<svg xmlns="http://www.w3.org/2000/svg" width="701" height="362" viewBox="0 0 701 362" version="1.1"><path d="M 313.583 1.750 C 313.170 2.163, 310.057 2.607, 306.666 2.737 C 287.861 3.459, 282.025 4.492, 274 8.520 C 268.563 11.249, 266.606 11.728, 262.031 11.451 C 258.510 11.238, 256.150 10.558, 255.408 9.543 C 253.699 7.206, 251.628 8.528, 249.215 13.494 C 247.862 16.280, 245.854 18.531, 243.784 19.584 C 237.708 22.675, 233.320 29.849, 234.352 35.008 C 234.896 37.732, 234.422 38.636, 230.394 42.552 C 227.569 45.296, 224.902 47, 223.429 47 C 221.662 47, 220.526 48.009, 219.063 50.877 C 217.975 53.009, 216.436 55.002, 215.643 55.307 C 214.850 55.611, 213.651 57.579, 212.977 59.680 C 212.304 61.781, 210.975 64.400, 210.023 65.500 C 207.397 68.535, 202 80.022, 202 82.576 C 202 83.818, 202.563 85.021, 203.250 85.251 C 203.938 85.481, 204.629 87.206, 204.787 89.085 C 205.744 100.468, 204.574 108.603, 201.491 112.010 C 200.020 113.636, 199.942 114.225, 201.024 115.529 C 201.739 116.391, 202.253 118.917, 202.165 121.144 C 202.060 123.828, 202.661 126.025, 203.948 127.660 C 205.015 129.017, 205.640 130.774, 205.337 131.564 C 205.034 132.354, 205.284 133, 205.893 133 C 206.502 133, 207 132.467, 207 131.816 C 207 130.385, 216.936 140.680, 217.152 142.336 C 217.871 147.829, 219.223 150.936, 221.163 151.552 C 222.243 151.894, 226.356 154.880, 230.303 158.186 C 240.812 166.987, 242.084 167.508, 246.981 165.010 C 251.571 162.668, 261.316 162.024, 264.702 163.839 C 266.912 165.023, 269.608 164.148, 281.561 158.369 C 283.507 157.428, 286.784 157, 290.561 157.194 C 296.245 157.487, 296.573 157.650, 298.197 161 C 301.054 166.893, 301.694 167.269, 307.614 166.529 C 313.811 165.755, 315.710 166.433, 313.508 168.635 C 312.678 169.464, 312 170.561, 312 171.071 C 312 172.598, 314.833 172.122, 315.775 170.437 C 316.489 169.162, 316.851 169.116, 317.738 170.187 C 318.479 171.082, 318.531 172.933, 317.899 176 C 317.389 178.475, 316.720 182.300, 316.413 184.500 C 316.105 186.700, 315.232 188.848, 314.472 189.274 C 312.318 190.482, 315.905 197.770, 322.454 205.490 C 325.504 209.085, 328 212.667, 328 213.450 C 328 214.232, 329.297 218.240, 330.881 222.355 C 332.835 227.428, 333.435 230.165, 332.745 230.855 C 332.056 231.544, 332.255 233.483, 333.364 236.874 C 335.613 243.750, 335.421 246.711, 332.500 250.183 C 331.125 251.817, 329.743 254.357, 329.430 255.827 C 329.117 257.297, 328.218 260.315, 327.431 262.533 C 324.676 270.300, 325.478 275.247, 331.500 287.631 C 335.185 295.209, 337.002 300.189, 337.008 302.721 C 337.017 307.387, 338.718 318.405, 340.090 322.682 C 340.651 324.432, 342.435 327.531, 344.055 329.569 C 345.675 331.607, 347 333.944, 347 334.762 C 347 335.581, 348.203 338.931, 349.674 342.208 C 351.661 346.637, 352.037 348.359, 351.135 348.916 C 350.313 349.425, 350.138 351.011, 350.592 353.848 C 351.150 357.338, 351.827 358.298, 354.685 359.655 C 357.294 360.893, 358.631 361.026, 360.305 360.215 C 363.639 358.598, 367.926 357.783, 374 357.611 C 380.436 357.429, 385.322 356.362, 389.496 354.227 C 393.854 351.998, 404.904 341.090, 407.045 336.903 C 408.057 334.924, 409.994 332.579, 411.349 331.691 C 414.227 329.805, 417.482 321.057, 416.606 317.565 C 416.093 315.522, 416.686 314.909, 421.290 312.730 C 424.189 311.357, 427.168 309.503, 427.909 308.610 C 429.623 306.544, 428.944 291.843, 427.028 289.533 C 425.896 288.170, 426.723 287.003, 433.109 280.945 C 437.174 277.089, 441.625 273.665, 443 273.336 C 446.010 272.615, 449.456 269.616, 451.998 265.503 C 454.629 261.247, 454.559 240.812, 451.901 237 C 449.712 233.862, 448.423 228, 449.921 228 C 450.514 228, 451 227.325, 451 226.500 C 451 225.675, 450.663 225, 450.250 225 C 449.837 225, 449.448 223.088, 449.384 220.750 C 449.320 218.412, 449.047 215.600, 448.777 214.500 C 448.508 213.400, 448.480 213.063, 448.717 213.750 C 448.953 214.438, 449.516 215, 449.966 215 C 451.321 215, 452.151 211.711, 450.979 210.987 C 449.541 210.098, 452.707 201.983, 455.190 200.192 C 456.188 199.472, 458.746 196.322, 460.875 193.192 C 464.814 187.397, 472.933 179.177, 476.714 177.153 C 479.888 175.454, 487.932 164.304, 491.253 157 C 492.878 153.425, 495.287 148.124, 496.604 145.220 C 497.922 142.317, 499 139.279, 499 138.470 C 499 137.662, 499.455 137, 500.012 137 C 501.158 137, 500.243 129.046, 498.931 127.608 C 498.461 127.094, 496.717 127.363, 494.808 128.243 C 492.989 129.083, 489.250 130.089, 486.500 130.479 C 483.750 130.868, 480.964 131.628, 480.310 132.167 C 479.655 132.705, 478.305 133.042, 477.310 132.914 C 476.314 132.786, 474.238 133.034, 472.695 133.463 C 469.006 134.491, 464.743 130.871, 465.604 127.443 C 466.053 125.653, 464.838 123.853, 459.634 118.598 C 456.041 114.969, 452.601 112, 451.991 112 C 451.381 112, 451.172 111.530, 451.527 110.956 C 452.384 109.569, 450.180 106.994, 448.641 107.584 C 447.886 107.874, 446.953 106.275, 446.172 103.353 C 445.377 100.381, 443.665 97.477, 441.507 95.442 C 438.754 92.845, 437.967 91.197, 437.414 86.864 C 436.610 80.580, 435.169 77.415, 431.586 74.067 C 429.908 72.500, 429.184 70.996, 429.551 69.840 C 429.876 68.816, 429.343 67.207, 428.310 66.092 C 427.315 65.018, 424.989 61.155, 423.143 57.508 C 420.187 51.668, 419.970 50.735, 421.325 49.688 C 423.844 47.743, 424.316 40.124, 422.202 35.524 C 420.544 31.912, 420.015 31.537, 416.438 31.435 C 414.272 31.373, 411.059 30.837, 409.298 30.245 C 406.656 29.356, 405.431 29.507, 402.298 31.110 C 398.726 32.938, 398.215 32.961, 393.715 31.495 C 391.083 30.638, 387.391 29.879, 385.510 29.808 C 383.630 29.737, 381.860 29.077, 381.577 28.340 C 381.294 27.603, 379.699 27, 378.031 27 C 376.333 27, 374.120 26.120, 373 25 C 370.634 22.634, 367.237 22.456, 362.468 24.449 C 359.226 25.804, 359 26.197, 359 30.480 C 359 35.946, 357.246 37.126, 353.500 34.179 C 352.093 33.072, 349.145 31.862, 346.949 31.491 C 343.967 30.988, 342.595 30.117, 341.527 28.052 C 340.082 25.259, 336.830 23.955, 327.639 22.485 C 324.916 22.050, 323.623 21.274, 323.251 19.853 C 322.892 18.480, 322.132 17.994, 320.862 18.326 C 318.490 18.946, 318.517 18.434, 321 15.770 C 323.368 13.228, 323.565 10.714, 321.528 9.023 C 320.234 7.949, 320.239 7.618, 321.573 6.285 C 323.385 4.472, 322.951 2.505, 320.734 2.487 C 319.858 2.480, 318.809 2.143, 318.404 1.737 C 317.447 0.781, 314.545 0.788, 313.583 1.750 M 312.734 4.089 C 311.378 4.878, 311.008 6.267, 311.142 10.055 C 311.266 13.561, 310.804 15.559, 309.547 16.948 C 307.850 18.824, 307.864 19.044, 309.901 22.339 C 311.069 24.229, 312.682 26.321, 313.486 26.988 C 314.289 27.655, 315.235 29.736, 315.587 31.612 C 316.411 36.005, 318 37.006, 318 33.132 C 318 31.137, 318.830 29.492, 320.500 28.179 C 323.818 25.568, 323.665 24.031, 319.764 20.826 L 316.509 18.151 318.926 15.579 C 321.069 13.298, 321.196 12.736, 320.055 10.602 C 319.347 9.279, 318.972 7.590, 319.222 6.849 C 319.684 5.475, 317.315 3.065, 315.500 3.062 C 314.950 3.061, 313.705 3.524, 312.734 4.089 M 300.504 4.962 C 299.406 5.367, 296.706 5.507, 294.504 5.272 C 290.339 4.827, 279.351 7.249, 277.604 8.996 C 277.052 9.548, 275.973 10, 275.208 10 C 274.442 10, 272.844 10.787, 271.658 11.750 C 269.771 13.280, 269.584 14.129, 270.170 18.500 C 270.539 21.250, 271.154 24.737, 271.537 26.250 C 272.206 28.893, 272.082 29.001, 268.367 29.032 C 264.394 29.064, 261.500 30.600, 261.500 32.675 C 261.500 34.426, 254.201 39.048, 248.996 40.594 C 243.399 42.256, 240 45.265, 240 48.560 C 240 50.387, 241.232 51.893, 244.673 54.271 C 256.999 62.789, 281.169 81.448, 282.078 83.146 C 282.641 84.197, 284.878 85.768, 287.050 86.637 C 289.814 87.743, 291 88.820, 291 90.225 C 291 91.820, 291.463 92.109, 293.250 91.630 C 294.488 91.299, 296.272 91.021, 297.217 91.014 C 298.161 91.006, 301.103 89.088, 303.754 86.750 C 306.406 84.413, 312.499 79.800, 317.295 76.500 C 326.632 70.075, 327.616 68.125, 322.312 66.561 C 319.809 65.823, 318.768 64.682, 317.449 61.226 C 316.501 58.745, 316.147 56.453, 316.637 55.963 C 317.771 54.829, 316.643 42.039, 314.772 34.834 C 313.964 31.718, 311.927 27.433, 310.247 25.312 C 306.408 20.465, 306.135 19.138, 308.307 15.885 C 309.890 13.515, 310.121 6.788, 308.670 5.337 C 307.805 4.471, 302.493 4.228, 300.504 4.962 M 250.638 14.536 C 249.381 17.591, 247.754 19.582, 245.638 20.653 C 239.050 23.988, 235.922 28.825, 236.177 35.284 C 236.298 38.334, 235.665 39.764, 232.913 42.660 C 231.036 44.636, 227.615 47.104, 225.311 48.146 C 223.007 49.187, 220.856 50.878, 220.531 51.903 C 220.205 52.928, 218.603 55.165, 216.970 56.874 C 215.336 58.583, 214 60.824, 214 61.853 C 214 62.883, 212.650 65.424, 211 67.500 C 209.350 69.576, 208 71.827, 208 72.503 C 208 73.178, 207.100 74.874, 206 76.273 C 204.900 77.671, 204 79.082, 204 79.408 C 204 79.733, 205.912 79.996, 208.250 79.992 C 211.884 79.986, 212.681 79.594, 213.750 77.293 C 214.438 75.812, 215 73.816, 215 72.856 C 215 71.897, 216.598 69.399, 218.550 67.306 C 220.503 65.213, 222.744 62.150, 223.530 60.500 C 226.875 53.482, 228.581 51.752, 231.470 52.451 C 235.653 53.464, 237.979 51.983, 238.633 47.893 C 239.275 43.882, 242.296 41.172, 248 39.492 C 252.148 38.270, 259.999 32.771, 260.008 31.082 C 260.017 29.141, 264.378 27, 268.322 27 C 270.534 27, 270.998 26.696, 270.232 25.750 C 269.674 25.063, 268.945 22.475, 268.610 20 C 267.880 14.604, 266.006 13, 260.431 13 C 257.930 13, 255.744 12.396, 255 11.500 C 253.142 9.261, 252.673 9.588, 250.638 14.536 M 325 25.448 C 325 26.175, 323.875 27.507, 322.500 28.408 C 321.057 29.354, 320 30.999, 320 32.301 C 320 33.540, 319.305 35.547, 318.455 36.760 C 317.298 38.413, 317.173 39.454, 317.955 40.917 C 319.223 43.285, 319.353 55.664, 318.118 56.427 C 316.602 57.364, 321.022 65, 323.081 65 C 324.111 65, 325.646 66.056, 326.491 67.346 C 327.336 68.636, 329.803 70.224, 331.972 70.873 C 334.141 71.523, 336.186 72.491, 336.515 73.025 C 336.867 73.594, 338.639 73.136, 340.807 71.916 L 344.500 69.839 361.495 79.435 C 370.842 84.713, 378.642 88.575, 378.828 88.016 C 379.014 87.457, 380.019 87, 381.060 87 C 382.839 87, 382.919 86.319, 382.392 75.750 C 382.083 69.563, 381.393 58.875, 380.857 52 C 380.321 45.125, 379.839 37.165, 379.785 34.312 L 379.688 29.123 375.922 28.487 C 373.851 28.137, 371.911 27.209, 371.610 26.425 C 370.868 24.492, 365.019 24.598, 362.164 26.597 C 360.329 27.883, 360.011 28.774, 360.536 31.165 C 361.606 36.034, 356.872 39.960, 354.042 36.551 C 352.891 35.164, 349.461 33.829, 343.921 32.614 C 342.503 32.303, 340.846 30.957, 340.238 29.624 C 339.107 27.140, 335.589 25.618, 328.750 24.654 C 326.041 24.272, 325 24.493, 325 25.448 M 381.504 36.458 C 382.428 48.457, 383.948 71.727, 383.973 74.250 L 384 77 408.250 76.978 C 431.389 76.957, 432.402 76.876, 430.356 75.228 C 429.178 74.277, 427.889 72.375, 427.494 71 C 426.478 67.468, 417.133 48.817, 415.436 46.935 C 413.512 44.801, 411.596 39.058, 412.521 38.199 C 412.935 37.815, 413.465 38.033, 413.699 38.685 C 413.932 39.337, 415.518 41.796, 417.223 44.150 C 419.994 47.974, 420.405 48.220, 421.091 46.465 C 422.323 43.313, 422.111 39.115, 420.568 36.132 C 419.309 33.698, 418.619 33.388, 414.863 33.570 C 412.512 33.684, 409.643 33.157, 408.486 32.399 C 406.651 31.197, 405.881 31.276, 402.458 33.021 C 398.537 35.021, 398.529 35.021, 392.017 33.031 C 388.433 31.936, 384.514 31.124, 383.308 31.228 C 381.310 31.400, 381.150 31.862, 381.504 36.458 M 240 55.966 L 240 59 233 59 L 226 59 226 64.885 C 226 70.059, 225.698 70.968, 223.500 72.408 C 221.527 73.701, 221 74.884, 221 78.023 L 221 82 213 82 C 205.746 82, 203.335 82.853, 205.976 84.485 C 206.513 84.817, 206.985 86.981, 207.023 89.294 C 207.062 91.608, 207.164 95.075, 207.250 97 C 207.336 98.925, 207.202 101.400, 206.953 102.500 C 206.548 104.288, 206.940 104.465, 210.643 104.174 C 214.449 103.875, 215.152 104.231, 219.287 108.546 C 223.183 112.612, 223.868 112.991, 224.385 111.361 C 224.931 109.642, 226.132 109.480, 238.241 109.489 L 251.500 109.500 251.337 107 C 251.247 105.625, 250.456 96.850, 249.579 87.500 C 247.138 61.477, 247.127 62.695, 249.821 62.050 C 251.918 61.548, 251.555 61.080, 246.071 57.213 L 240 52.931 240 55.966 M 228.594 55.615 C 228.181 56.691, 229.284 57, 233.531 57 C 237.523 57, 239 56.626, 239 55.615 C 239 54.623, 237.602 54.231, 234.063 54.231 C 230.779 54.231, 228.947 54.695, 228.594 55.615 M 249.503 70.750 C 249.846 74.463, 250.788 83.800, 251.596 91.500 C 253.176 106.551, 253.402 109.952, 252.852 110.446 C 252.658 110.620, 246.650 110.928, 239.500 111.131 C 223.520 111.585, 222.609 112.217, 226 120.500 C 226.450 121.600, 227.094 123.349, 227.430 124.387 C 227.956 126.009, 228.729 126.192, 232.941 125.693 L 237.840 125.113 239.592 129.985 C 241.395 135, 244.177 136.928, 246.650 134.876 C 247.340 134.303, 248.826 134.127, 249.952 134.485 C 251.597 135.007, 252.023 134.679, 252.118 132.817 C 252.184 131.543, 252.169 129.961, 252.087 129.302 C 252.004 128.643, 252.803 127.640, 253.863 127.073 C 254.923 126.506, 256.281 124.632, 256.882 122.909 C 257.574 120.924, 258.471 119.967, 259.332 120.297 C 260.079 120.584, 261.314 119.951, 262.078 118.892 C 264.615 115.372, 272.098 112.316, 280 111.574 C 284.125 111.187, 288.483 110.633, 289.684 110.343 C 292.439 109.679, 294 105.345, 294 98.363 C 294 93.424, 293.831 93.041, 291.753 93.262 C 290.107 93.436, 289.422 92.911, 289.190 91.297 C 289.016 90.086, 287.890 88.782, 286.687 88.401 C 285.485 88.019, 283.151 86.265, 281.501 84.504 C 279.850 82.742, 273.392 77.408, 267.149 72.650 C 257.947 65.637, 255.144 64, 252.339 64 L 248.879 64 249.503 70.750 M 220.361 67.676 C 218.634 69.229, 216.771 72.075, 216.219 74 C 215.668 75.925, 214.881 78.323, 214.471 79.330 C 213.836 80.888, 214.154 81.110, 216.612 80.830 C 219.229 80.531, 219.500 80.145, 219.500 76.714 C 219.500 73.278, 220.485 71.743, 223.338 70.737 C 223.798 70.574, 224.023 69.184, 223.838 67.647 L 223.500 64.852 220.361 67.676 M 318.740 77.364 C 314.501 80.315, 308.663 84.744, 305.767 87.206 C 302.870 89.669, 299.262 91.989, 297.750 92.361 C 295.091 93.016, 295 93.262, 294.985 99.769 C 294.965 109.246, 293.676 111.358, 287.477 112.079 C 281.768 112.743, 278 113.897, 278 114.982 C 278 115.393, 278.823 116.803, 279.830 118.115 C 280.836 119.427, 281.944 121.280, 282.292 122.233 C 282.675 123.284, 283.530 123.734, 284.462 123.376 C 285.308 123.052, 286 123.284, 286 123.893 C 286 124.502, 286.863 125, 287.917 125 C 288.971 125, 290.009 125.526, 290.223 126.168 C 290.437 126.811, 291.441 125.574, 292.454 123.418 C 293.467 121.263, 294.792 119.169, 295.398 118.765 C 297.547 117.333, 302.996 117.996, 304.926 119.926 C 306.125 121.125, 307.637 121.646, 308.933 121.307 C 310.077 121.008, 312.335 121.310, 313.949 121.979 C 316.394 122.992, 317.264 122.928, 319.165 121.597 C 321.673 119.840, 325.712 119.532, 327.918 120.928 C 329.644 122.021, 334 119.447, 334 117.335 C 334 115.338, 336.785 110.159, 340.094 106 C 342.620 102.827, 342.891 101.706, 342.995 94 C 343.114 85.215, 340.650 74.804, 338.547 75.206 C 337.971 75.316, 336.060 74.640, 334.300 73.703 C 329.326 71.056, 327.025 71.597, 318.740 77.364 M 342.322 72.638 C 340.780 73.267, 341.785 79.588, 344.010 83.253 C 345.312 85.397, 345.509 87.056, 344.901 90.753 C 344.471 93.364, 344.092 97.222, 344.060 99.327 C 344.016 102.134, 342.934 104.642, 340 108.740 C 335.301 115.301, 334.821 119.181, 338.416 121.537 C 341.190 123.354, 341.861 124.755, 342.953 131 C 343.386 133.475, 344.071 136.287, 344.477 137.250 C 345.104 138.739, 344.647 139, 341.411 139 L 337.608 139 340.804 142.298 C 342.562 144.111, 344 146.110, 344 146.739 C 344 148.588, 345.971 149.269, 347.544 147.964 C 348.349 147.295, 349 147.195, 349 147.740 C 349 148.314, 350.880 148.107, 353.500 147.244 C 356.610 146.221, 358 145.209, 358 143.969 C 358 142.663, 359.063 141.996, 361.915 141.514 C 364.969 140.998, 366.423 139.997, 368.529 136.958 C 370.014 134.815, 372.047 132.803, 373.046 132.485 C 374.624 131.985, 374.720 131.485, 373.771 128.704 C 373.170 126.942, 372.073 125.138, 371.332 124.697 C 370.371 124.123, 370.264 123.375, 370.958 122.078 C 371.492 121.080, 371.724 120.057, 371.472 119.805 C 371.220 119.553, 371.911 117.491, 373.007 115.222 C 374.103 112.953, 375 110.655, 375 110.116 C 375 109.576, 375.917 108.844, 377.038 108.488 C 378.911 107.893, 379.052 107.148, 378.788 99.255 L 378.500 90.670 362 81.366 C 345.688 72.168, 344.628 71.698, 342.322 72.638 M 384 84 C 384 88.410, 383.753 89, 381.904 89 C 379.863 89, 379.827 89.278, 380.523 99.500 L 381.239 110 378.728 110 C 376.844 110, 376.023 110.686, 375.440 112.750 C 374.544 115.921, 374.518 116.002, 373.753 118 C 372.544 121.153, 372.223 124, 373.075 124 C 373.563 124, 374.270 125.237, 374.647 126.750 C 375.024 128.262, 376.382 131.387, 377.666 133.692 C 378.950 135.998, 380 139.073, 380 140.526 C 380 144.152, 382.083 143.212, 383.515 138.940 C 384.894 134.827, 388.195 133.864, 390.780 136.820 C 391.819 138.007, 394.333 139.013, 397.128 139.357 C 400.916 139.825, 402.077 139.572, 403.533 137.964 C 405.568 135.714, 408.027 135.438, 409.875 137.250 C 411.812 139.150, 416.251 133.404, 415.587 129.855 C 415.193 127.752, 415.544 127.088, 417.296 126.618 C 420.807 125.677, 421 125.819, 421 129.345 C 421 131.420, 421.759 133.377, 423 134.500 C 424.827 136.154, 425 136.164, 425 134.624 C 425 133.696, 425.625 132.698, 426.388 132.405 C 427.151 132.112, 428.019 130.657, 428.316 129.172 C 428.612 127.688, 429.778 125.408, 430.907 124.108 C 432.871 121.843, 434.207 117.180, 433.804 114 C 433.700 113.175, 433.975 110.206, 434.416 107.401 C 435.065 103.272, 435.767 101.978, 438.109 100.595 C 441.617 98.522, 441.667 97.975, 438.606 95.099 C 436.892 93.489, 436.014 91.265, 435.514 87.268 C 435.131 84.198, 434.585 81.082, 434.301 80.343 C 433.889 79.269, 428.806 79, 408.893 79 L 384 79 384 84 M 441.018 100.776 C 440.203 101.076, 439.061 101.812, 438.482 102.411 C 437.297 103.635, 435 110.863, 435 113.366 C 435 115.250, 438.045 115.555, 439.758 113.842 C 440.634 112.966, 441.279 112.986, 442.414 113.928 C 443.238 114.613, 444.393 114.875, 444.981 114.512 C 447.403 113.015, 452.447 115.418, 457.249 120.357 C 462.625 125.887, 462.611 124.648, 457.228 118.573 C 455.429 116.542, 452.706 114.445, 451.177 113.912 C 448.200 112.874, 445 108.405, 445 105.287 C 445 102.627, 442.790 100.123, 441.018 100.776 M 209.250 105.794 C 207.385 105.985, 206 106.692, 206 107.453 C 206 108.182, 205.168 109.806, 204.152 111.061 C 202.616 112.958, 202.489 113.836, 203.402 116.259 C 204.409 118.932, 204.806 119.125, 208.182 118.586 C 212.222 117.941, 217 119.297, 217 121.089 C 217 121.794, 215.815 122.053, 213.887 121.770 C 210.613 121.290, 203.107 123.330, 204.648 124.282 C 205.141 124.587, 208.010 124.524, 211.023 124.143 C 214.035 123.761, 218.412 123.873, 220.749 124.392 C 225.697 125.492, 226.995 124.757, 224.661 122.177 C 223.747 121.168, 223 119.525, 223 118.526 C 223 116.083, 217.818 108.004, 216.250 108.002 C 215.563 108.001, 215 107.598, 215 107.107 C 215 105.853, 213.041 105.406, 209.250 105.794 M 269 115.646 C 266.525 116.953, 264.094 118.918, 263.597 120.012 C 263.069 121.175, 261.720 122, 260.347 122 C 259.056 122, 258.089 122.338, 258.198 122.750 C 258.563 124.133, 256.876 128, 255.908 128 C 254.047 128, 252.804 133.265, 254.095 135.678 C 255.065 137.490, 256.055 137.889, 259.146 137.716 C 262.619 137.521, 262.990 137.235, 262.995 134.750 C 263 132.088, 263.184 131.995, 268.750 131.842 C 271.913 131.754, 275.400 131.770, 276.500 131.875 C 277.600 131.981, 279.400 131.643, 280.500 131.124 C 281.600 130.606, 283.253 129.943, 284.172 129.652 C 286.410 128.943, 285.445 125.350, 282.833 124.667 C 281.743 124.382, 280.607 123.215, 280.309 122.074 C 280.011 120.933, 279.453 120, 279.069 120 C 278.685 120, 277.619 118.425, 276.701 116.500 C 274.785 112.481, 274.955 112.500, 269 115.646 M 440.337 116.563 C 440.097 117.190, 438.855 117.504, 437.578 117.260 C 435.579 116.878, 435.162 117.322, 434.573 120.464 C 434.196 122.470, 432.999 125.001, 431.913 126.087 C 430.826 127.174, 429.663 129.437, 429.327 131.117 C 428.991 132.797, 428.105 134.406, 427.358 134.693 C 426.469 135.034, 426 136.912, 426 140.132 C 426 144.576, 425.735 145.150, 423.250 146.095 C 420.626 147.093, 420.591 147.191, 422.488 148.253 C 425.214 149.779, 427.759 152.878, 429.466 156.750 C 430.253 158.537, 431.322 160, 431.841 160 C 432.359 160, 433.066 161.125, 433.411 162.500 C 433.843 164.221, 434.733 165.007, 436.269 165.022 C 437.496 165.034, 439.625 165.924, 441 167 C 443.476 168.937, 450 169.778, 450 168.161 C 450 166.531, 454.409 165.218, 456.160 166.326 C 457.427 167.128, 459.051 166.739, 463.003 164.688 C 465.853 163.210, 469.172 162, 470.378 162 C 471.883 162, 474.368 159.801, 478.290 155 C 482.463 149.892, 483.541 148, 482.276 148 C 481.322 148, 477.460 146.822, 473.692 145.382 C 468.326 143.332, 466.213 141.897, 463.939 138.758 C 462.343 136.553, 461.310 134.308, 461.643 133.768 C 462.009 133.177, 461.437 133.044, 460.206 133.435 C 457.437 134.313, 456.365 130.899, 458.423 127.758 C 459.884 125.527, 459.759 125.227, 455.581 120.962 C 451.785 117.086, 450.526 116.429, 445.993 115.962 C 442.555 115.607, 440.626 115.812, 440.337 116.563 M 294.483 123.395 C 292.753 127.039, 292.254 131.984, 293.425 133.878 C 293.821 134.520, 292.988 137.117, 291.573 139.648 C 288.355 145.406, 287.835 154.956, 290.750 154.755 C 295.287 154.442, 297.798 156.038, 299.940 160.596 L 302.109 165.211 306.711 164.521 C 311.588 163.789, 313.350 162.622, 314.357 159.453 C 315.286 156.532, 319.836 152, 321.840 152 C 322.808 152, 324.123 152.523, 324.763 153.163 C 325.647 154.047, 326.154 153.726, 326.876 151.826 C 329.467 145.010, 336.423 131.409, 337.866 130.337 C 339.228 129.324, 339.292 128.781, 338.250 127.074 C 337.563 125.948, 337 124.401, 337 123.636 C 337 121.088, 334.533 119.890, 332.439 121.421 C 331.137 122.373, 328.931 122.642, 325.408 122.278 C 322.139 121.941, 320.021 122.158, 319.578 122.874 C 318.664 124.353, 313.721 124.321, 312.227 122.827 C 311.355 121.955, 310.432 121.938, 308.623 122.762 C 306.604 123.682, 305.895 123.542, 304.441 121.935 C 303.384 120.767, 301.383 120, 299.392 120 C 296.625 120, 295.834 120.547, 294.483 123.395 M 207.500 126 C 205.555 126.836, 205.911 127.174, 209 127.428 C 209.825 127.495, 210.429 128.375, 210.343 129.382 C 210.229 130.721, 210.484 130.916, 211.293 130.107 C 211.902 129.498, 213.114 129, 213.986 129 C 214.905 129, 215.571 128.159, 215.571 127 C 215.571 125.424, 214.928 125.015, 212.536 125.070 C 210.866 125.109, 208.600 125.527, 207.500 126 M 217.631 125.702 C 217.284 126.049, 217 127.158, 217 128.167 C 217 129.175, 216.380 130, 215.622 130 C 214.865 130, 213.718 130.635, 213.074 131.410 C 212.144 132.532, 212.571 133.607, 215.162 136.660 C 216.955 138.772, 218.588 140.724, 218.792 140.998 C 218.996 141.273, 219.810 140.613, 220.599 139.533 C 221.389 138.454, 223.373 137.417, 225.008 137.231 C 227.542 136.941, 228.217 137.387, 229.581 140.248 C 230.461 142.094, 232.153 144.031, 233.341 144.552 C 234.528 145.073, 235.644 146.512, 235.820 147.750 C 236.165 150.179, 236.752 150.443, 238.852 149.113 C 240.936 147.792, 240.869 137.230, 238.750 133.039 C 237.787 131.135, 237 129.009, 237 128.314 C 237 127.430, 236.021 127.232, 233.750 127.656 C 231.963 127.989, 230.275 128.278, 230 128.299 C 228.715 128.396, 221.323 126.646, 219.881 125.904 C 218.991 125.445, 217.979 125.355, 217.631 125.702 M 463.079 125.750 C 463.036 126.438, 462.373 127, 461.607 127 C 460.297 127, 459 129.030, 459 131.082 C 459 131.587, 459.955 132, 461.122 132 C 462.842 132, 463.021 131.731, 462.067 130.581 C 461.140 129.464, 461.248 128.961, 462.574 128.219 C 463.500 127.700, 464.011 126.651, 463.708 125.888 C 463.327 124.927, 463.134 124.885, 463.079 125.750 M 287 128.448 C 287 129.336, 286.212 130.342, 285.250 130.683 C 284.288 131.025, 282.709 131.984, 281.742 132.814 C 280.090 134.233, 280.086 134.438, 281.673 136.191 C 282.883 137.528, 283.488 140.459, 283.806 146.528 C 284.198 153.992, 284.474 155, 286.129 155 C 287.772 155, 287.980 154.283, 287.797 149.250 C 287.642 145.010, 288.201 142.164, 289.925 138.410 C 292.028 133.829, 292.124 133.035, 290.881 130.483 C 289.306 127.249, 287 126.040, 287 128.448 M 418 130.333 C 418 131.617, 416.475 134.429, 414.610 136.583 C 411.306 140.401, 411.170 140.455, 409.221 138.695 C 407.283 136.946, 407.137 136.969, 404.465 139.445 C 401.576 142.122, 398.582 142.751, 397.450 140.919 C 397.082 140.324, 395.769 140.092, 394.531 140.403 C 393.027 140.780, 391.685 140.310, 390.485 138.984 C 387.225 135.381, 385.886 136.303, 383.566 143.750 C 383.054 145.395, 383.269 146, 384.365 146 C 385.190 146, 386.138 146.860, 386.472 147.911 C 386.805 148.961, 388.185 150.547, 389.539 151.434 C 390.893 152.320, 392 153.695, 392 154.488 C 392 155.281, 392.900 156.411, 394 157 C 395.100 157.589, 396.010 158.617, 396.022 159.285 C 396.034 159.953, 396.824 161.513, 397.777 162.751 C 399.257 164.673, 399.970 164.869, 402.669 164.095 C 405.377 163.318, 406.155 163.537, 408.115 165.623 C 410.109 167.745, 411.202 168.035, 416.649 167.885 C 422.606 167.721, 423.039 167.535, 425.973 163.884 C 428.939 160.193, 428.997 159.937, 427.578 156.778 C 425.733 152.668, 423.993 150.561, 421.750 149.719 C 419.269 148.788, 419.457 145, 421.984 145 C 423.686 145, 423.929 144.415, 423.693 140.889 C 423.527 138.421, 422.735 136.279, 421.709 135.529 C 420.725 134.810, 420 132.947, 420 131.140 C 420 129.413, 419.550 128, 419 128 C 418.450 128, 418 129.050, 418 130.333 M 495.419 129.981 C 494.584 130.816, 486.092 132.906, 477 134.516 C 475.625 134.759, 473.093 135.235, 471.374 135.574 C 468.829 136.076, 467.940 135.754, 466.595 133.845 C 465.199 131.862, 464.796 131.732, 463.987 133 C 462.682 135.047, 462.694 135.086, 465.777 138.634 C 468.563 141.841, 480.307 147, 484.821 147 C 486.811 147, 486.190 148.081, 479.942 155.500 C 473.648 162.974, 472.390 164, 469.515 164 C 467.716 164, 465.685 164.675, 465 165.500 C 464.315 166.325, 463.158 167, 462.428 167 C 461.699 167, 459.954 168.505, 458.551 170.344 C 456.255 173.354, 456 174.585, 456 182.644 C 456 194.853, 457.034 195.575, 463.081 187.587 C 465.710 184.114, 470.117 179.617, 472.874 177.593 C 480.040 172.332, 485.501 165.368, 489.534 156.345 C 491.463 152.030, 493.909 146.812, 494.971 144.748 C 496.033 142.685, 497.206 138.297, 497.580 134.998 C 498.235 129.208, 497.620 127.780, 495.419 129.981 M 338.171 132.318 C 336.977 133.589, 336 134.962, 336 135.369 C 336 136.777, 332.002 144.881, 331.003 145.498 C 330.451 145.839, 330 146.811, 330 147.658 C 330 150.292, 326.843 156, 325.386 156 C 324.624 156, 324 155.550, 324 155 C 324 153.178, 320.383 153.964, 318.246 156.250 C 315.305 159.396, 314.695 167, 317.383 167 C 318.816 167, 319.963 169.923, 319.986 173.636 C 319.999 175.643, 320.464 175.763, 327.750 175.636 C 332.012 175.561, 337.863 175.853, 340.750 176.284 C 346.943 177.210, 347.579 175.936, 343.558 170.665 C 342.215 168.904, 340.550 165.347, 339.858 162.760 C 338.706 158.451, 338.785 157.727, 340.800 154.142 C 343.694 148.993, 343.587 147.738, 339.894 143.532 C 336.572 139.748, 336.592 137, 339.944 137 C 341.667 137, 341.863 136.542, 341.331 133.750 C 340.534 129.562, 340.692 129.634, 338.171 132.318 M 266.922 133.749 C 264.376 134.095, 264.354 134.172, 265.149 139.983 C 265.753 144.396, 265.585 146.750, 264.477 149.401 C 262.673 153.717, 262.626 155.798, 264.250 159.283 C 265.988 163.010, 266.981 163.147, 272.395 160.403 C 275.002 159.081, 277.779 158, 278.567 158 C 280.193 158, 280.432 156.856, 279.100 155.450 C 278.605 154.928, 277.945 150.547, 277.633 145.715 C 277.320 140.884, 276.488 136.159, 275.782 135.215 C 274.509 133.512, 271.870 133.075, 266.922 133.749 M 371.995 134.750 C 371.983 136.738, 364.903 143, 362.668 143 C 361.076 143, 360.053 143.691, 359.712 144.995 C 359.425 146.092, 358.585 147.164, 357.845 147.377 C 356.558 147.747, 351.039 149.250, 346.239 150.536 C 343.556 151.255, 341 155.757, 341 159.763 C 341 161.337, 341.884 164.455, 342.965 166.692 C 344.992 170.888, 348 173.144, 348 170.469 C 348 169.028, 350.263 168.497, 354.750 168.882 C 356.212 169.008, 357 168.525, 357 167.503 C 357 165.311, 359.970 161, 361.480 161 C 362.168 161, 363.803 161.830, 365.115 162.845 C 368.412 165.396, 373.524 166.278, 374.963 164.544 C 375.589 163.791, 378.327 162.868, 381.049 162.493 C 383.771 162.119, 386.223 161.448, 386.499 161.001 C 386.775 160.555, 388.902 160.445, 391.225 160.757 L 395.450 161.324 392.662 157.912 C 391.129 156.035, 388.665 153.029, 387.187 151.231 C 385.709 149.433, 383.003 147.013, 381.174 145.852 C 378.432 144.113, 377.957 143.308, 378.469 141.266 C 379.250 138.157, 376.679 134, 373.977 134 C 372.890 134, 371.998 134.338, 371.995 134.750 M 242.024 137.881 C 242.037 138.221, 242.432 140.153, 242.901 142.173 C 243.428 144.439, 243.377 146.223, 242.770 146.830 C 242.228 147.372, 241.483 149.291, 241.114 151.095 C 240.588 153.668, 240.905 154.874, 242.584 156.685 C 244.068 158.286, 244.568 159.811, 244.214 161.661 C 243.772 163.974, 243.956 164.221, 245.602 163.523 C 250.248 161.554, 257.506 160.089, 259.782 160.660 C 262.134 161.250, 262.239 161.100, 261.718 157.892 C 261.413 156.010, 261.876 152.175, 262.758 149.279 C 264.041 145.062, 264.116 143.551, 263.147 141.422 C 262.081 139.084, 261.554 138.861, 258.460 139.442 C 255.809 139.939, 254.831 139.724, 254.379 138.545 C 253.926 137.365, 252.378 137.027, 247.892 137.128 C 244.651 137.201, 242.011 137.540, 242.024 137.881 M 279.530 145.500 C 280.249 154.599, 280.554 156, 281.815 156 C 283.041 156, 281.449 139.047, 280.100 137.741 C 279.061 136.734, 278.953 138.195, 279.530 145.500 M 224 138.741 C 219.555 140.470, 218.910 145.345, 222.600 149.325 C 225.079 151.998, 225.289 152.048, 227.100 150.409 C 229.201 148.508, 229.649 143.082, 227.965 139.934 C 226.882 137.911, 226.461 137.784, 224 138.741 M 229.605 149.629 C 226.849 153.083, 226.800 153.308, 228.605 154.312 C 229.647 154.892, 231.808 156.669, 233.406 158.262 C 235.005 159.855, 237.406 161.875, 238.742 162.750 C 240.820 164.112, 241.301 164.137, 242.070 162.921 C 243.549 160.585, 243.138 159.137, 240.508 157.414 C 238.675 156.212, 238.165 155.192, 238.576 153.554 C 239.037 151.717, 238.729 151.342, 236.817 151.413 C 235.006 151.481, 234.431 150.899, 234.184 148.750 C 233.769 145.144, 233.077 145.277, 229.605 149.629 M 428.807 162.750 C 426.102 165.900, 426.027 166.679, 428.025 170.816 C 430.510 175.960, 430.503 179.801, 428 183 C 425.663 185.988, 425.413 188.162, 427.500 187.362 C 428.325 187.045, 429 187.298, 429 187.924 C 429 188.551, 428.325 189.322, 427.500 189.638 C 424.779 190.682, 425.911 191.986, 434 197.121 C 438.400 199.915, 442 202.752, 442 203.426 C 442 204.937, 446.209 209, 447.774 209 C 448.404 209, 449.474 207.150, 450.151 204.889 C 450.829 202.628, 452.197 200.269, 453.192 199.648 C 454.186 199.027, 455 197.990, 455 197.343 C 455 196.696, 455.563 195.960, 456.250 195.708 C 457.250 195.342, 457.250 194.985, 456.250 193.925 C 454.717 192.300, 454.496 172.430, 456 171.500 C 457.555 170.539, 457.178 168.282, 455.345 167.579 C 454.345 167.195, 452.806 167.773, 451.459 169.039 C 449.672 170.717, 448.509 170.998, 445.606 170.454 C 443.613 170.080, 440.903 168.925, 439.584 167.887 C 438.264 166.849, 436.232 166, 435.068 166 C 433.729 166, 432.601 165.080, 432 163.500 C 430.869 160.526, 430.743 160.496, 428.807 162.750 M 387 162.898 C 386.175 163.357, 383.512 164.035, 381.082 164.405 C 378.652 164.775, 376.177 165.721, 375.582 166.507 C 374.719 167.647, 373.618 167.735, 370.151 166.941 C 367.760 166.394, 365.140 165.283, 364.330 164.473 C 362.059 162.202, 360.095 162.719, 359.483 165.750 C 359.178 167.262, 358.287 170.750, 357.503 173.500 C 356.720 176.250, 355.832 181.200, 355.530 184.500 C 355.171 188.432, 354.382 191.017, 353.241 192 C 350.214 194.607, 348 198.823, 348 201.980 C 348 204.066, 346.912 206.209, 344.556 208.765 C 341.520 212.057, 340.873 212.354, 339.102 211.270 C 337.796 210.471, 336.875 210.393, 336.471 211.047 C 336.129 211.600, 335.096 211.929, 334.175 211.777 C 333.098 211.599, 332.388 212.289, 332.186 213.710 C 331.885 215.827, 332.239 215.932, 340.598 216.210 L 349.325 216.500 350.412 220.008 C 352.224 225.852, 353.168 226.803, 356.633 226.280 C 358.695 225.969, 360.141 224.985, 360.862 223.404 C 361.597 221.791, 362.786 221, 364.479 221 C 365.865 221, 367 221.450, 367 222 C 367 222.550, 368.125 223, 369.500 223 C 371.630 223, 372.017 223.481, 372.118 226.250 C 372.289 230.956, 372.753 235.046, 373.537 238.744 C 374.197 241.853, 374.381 241.963, 377.987 241.386 C 380.130 241.043, 382.018 241.221, 382.375 241.798 C 382.720 242.356, 383.902 242.577, 385.001 242.289 C 386.347 241.937, 387 242.259, 387 243.275 C 387 245.271, 392.039 246.555, 393.105 244.830 C 393.940 243.479, 394.570 243.922, 400.943 250.344 C 403.052 252.470, 403.966 252.864, 404.560 251.903 C 405.035 251.135, 404.830 250.443, 404.052 250.184 C 400.341 248.947, 399.231 246.315, 399.560 239.530 C 399.937 231.739, 401.871 228, 405.523 228 C 408.563 228, 408.700 226.159, 405.922 222.628 C 404.539 220.870, 403.709 218.068, 403.438 214.244 C 403.214 211.085, 402.771 205.866, 402.454 202.647 C 401.995 197.993, 402.222 196.412, 403.560 194.934 C 404.485 193.911, 404.998 192.436, 404.698 191.656 C 403.907 189.593, 406.121 183.841, 409.323 179.644 C 410.851 177.640, 411.629 176, 411.051 176 C 410.473 176, 410 174.601, 410 172.891 C 410 168.381, 406.474 165.004, 402.850 166.043 C 400.798 166.632, 399.468 166.375, 397.784 165.065 C 395.045 162.936, 389.086 161.738, 387 162.898 M 418.250 169.343 C 412.613 170.187, 412 170.511, 412 172.640 C 412 173.938, 412.450 175, 413 175 C 413.550 175, 413.985 175.787, 413.967 176.750 C 413.928 178.810, 410.658 183, 409.090 183 C 408.490 183, 407.943 183.563, 407.872 184.250 C 407.394 188.937, 407.211 190.008, 406.629 191.523 C 406.123 192.844, 406.370 193.071, 407.739 192.541 C 408.707 192.167, 410.686 191.620, 412.136 191.328 C 413.612 191.030, 415.253 189.740, 415.865 188.398 C 416.477 187.053, 417.819 186, 418.920 186 C 419.999 186, 421.148 185.570, 421.473 185.044 C 421.798 184.518, 422.671 184.320, 423.413 184.605 C 424.210 184.911, 425.639 183.703, 426.908 181.649 C 428.987 178.285, 429.002 178.040, 427.377 173.838 C 426.454 171.452, 425.429 169.254, 425.100 168.953 C 424.770 168.652, 421.688 168.828, 418.250 169.343 M 349.693 170.724 C 349.441 171.151, 348.904 173.075, 348.500 175 C 347.469 179.910, 347.447 179.924, 343.261 178.430 C 338.130 176.599, 335 176.642, 335 178.544 C 335 179.420, 335.699 179.961, 336.617 179.794 C 339.176 179.329, 340.751 182.568, 339.185 185.075 C 338.126 186.770, 338.123 187.444, 339.169 188.703 C 340.399 190.186, 340.479 194.456, 339.349 198.327 C 338.942 199.724, 337.955 200.103, 335.158 199.937 C 328.357 199.534, 327.991 199.706, 328.650 203 C 329.124 205.370, 328.901 206, 327.590 206 C 326.260 206, 326.135 206.384, 326.962 207.929 C 327.783 209.462, 328.866 209.792, 332.247 209.536 C 334.586 209.359, 337.288 208.893, 338.250 208.500 C 339.459 208.007, 340 208.252, 340 209.294 C 340 210.351, 340.898 209.963, 343 208 C 345.221 205.926, 346 204.294, 346 201.721 C 346 199.809, 346.675 197.685, 347.500 197 C 348.325 196.315, 349 195.190, 349 194.500 C 349 193.809, 349.874 192.627, 350.943 191.872 C 352.348 190.879, 353.288 188.150, 354.344 182 C 355.146 177.325, 356.084 172.805, 356.429 171.956 C 356.913 170.763, 356.272 170.360, 353.603 170.180 C 351.704 170.052, 349.945 170.297, 349.693 170.724 M 319.607 178.582 C 318.526 181.399, 318.947 182, 322 182 C 324.533 182, 325 181.611, 325 179.500 C 325 177.530, 324.493 177, 322.607 177 C 321.291 177, 319.941 177.712, 319.607 178.582 M 327 180 C 327 182.833, 326.778 183, 323 183 C 318.865 183, 318.133 183.733, 320.200 185.800 C 321.107 186.707, 321.113 187, 320.223 187 C 319.576 187, 318.358 188.050, 317.517 189.334 C 316.136 191.441, 316.150 191.993, 317.656 195.011 C 318.573 196.850, 319.917 199.063, 320.643 199.928 C 321.368 200.792, 322.577 202.356, 323.329 203.403 C 325.149 205.935, 327.185 204.584, 326.380 201.377 C 325.880 199.385, 326.184 198.765, 327.876 198.322 C 329.044 198.017, 330 197.369, 330 196.883 C 330 196.398, 330.675 196, 331.500 196 C 332.325 196, 333 196.478, 333 197.063 C 333 198.353, 337.206 197.900, 338.235 196.500 C 339.542 194.720, 339.052 189.957, 337.500 189.362 C 335.614 188.638, 335.573 186.570, 337.409 184.734 C 339.174 182.969, 338.113 181.086, 335.486 181.322 C 334.120 181.444, 333.401 180.798, 333.181 179.250 C 332.932 177.501, 332.208 177, 329.930 177 C 327.341 177, 327 177.349, 327 180 M 421.659 187.767 C 420.647 187.995, 419.072 188.935, 418.159 189.856 C 416.216 191.818, 415.940 197.136, 417.750 197.746 C 418.438 197.977, 419 197.679, 419 197.083 C 419 196.488, 419.620 196, 420.378 196 C 422.226 196, 424 193.731, 424.558 190.651 C 425.068 187.838, 424.380 187.154, 421.659 187.767 M 411.810 196.500 C 412.082 198.827, 411.806 200, 410.987 200 C 410.034 200, 410.023 200.323, 410.938 201.425 C 411.874 202.553, 411.587 203.694, 409.559 206.906 C 406.888 211.137, 406.396 217.477, 408.580 219.500 C 409.174 220.050, 410.246 222.373, 410.961 224.662 C 412.020 228.049, 413.149 229.307, 417.016 231.412 C 419.631 232.836, 422.696 234, 423.826 234 C 426.302 234, 427.199 235.294, 427.964 239.966 C 428.387 242.552, 429.073 243.539, 430.521 243.644 C 431.609 243.723, 432.725 243.885, 433 244.003 C 434.493 244.648, 440 244.654, 440 244.011 C 440 243.595, 441.699 242.984, 443.776 242.652 C 448.291 241.930, 452.064 239.416, 450.353 238.269 C 448.756 237.197, 447.118 230.196, 447.483 226 C 447.651 224.075, 447.129 221.454, 446.322 220.176 C 445.169 218.347, 445.088 217.185, 445.943 214.733 C 446.947 211.854, 446.761 211.339, 443.515 208.015 C 441.582 206.036, 439.982 203.985, 439.959 203.458 C 439.896 201.971, 426.170 193.777, 424.977 194.514 C 424.395 194.874, 424.172 195.967, 424.482 196.943 C 424.793 197.924, 424.364 199.283, 423.523 199.981 C 422.685 200.676, 422 200.879, 422 200.431 C 422 199.984, 421.339 200.491, 420.532 201.559 C 419.203 203.315, 419.061 203.333, 419.032 201.750 C 418.996 199.765, 417.908 199.492, 416.327 201.073 C 414.987 202.413, 413.625 197.756, 414.527 194.915 C 414.978 193.495, 414.652 193, 413.268 193 C 411.724 193, 411.472 193.604, 411.810 196.500 M 407.356 194.806 C 406 194.999, 405.040 196.010, 404.745 197.556 C 404.260 200.092, 404.915 200.651, 406.550 199.097 C 407.072 198.600, 408.226 198.038, 409.113 197.847 C 411.557 197.321, 409.894 194.444, 407.356 194.806 M 406.750 201.438 C 404.872 202.814, 404.386 206.503, 405.956 207.473 C 407.418 208.376, 410.308 203.372, 409.330 201.632 C 408.644 200.412, 408.196 200.379, 406.750 201.438 M 332.236 217.833 C 331.241 218.464, 331.338 219.368, 332.690 222.068 C 333.635 223.956, 334.475 227.993, 334.557 231.040 C 334.638 234.087, 335.221 237.545, 335.852 238.724 C 337.841 242.441, 337.198 246.866, 334.095 250.809 C 331.316 254.340, 329.416 260.076, 328.296 268.316 L 327.777 272.132 331.274 271.476 C 333.413 271.075, 335.033 271.244, 335.444 271.910 C 335.860 272.582, 340.048 273, 346.359 273 C 352.515 273, 357.042 273.442, 357.707 274.107 C 358.938 275.338, 373.470 275.863, 374.615 274.718 C 375.015 274.319, 374.364 272.952, 373.171 271.682 C 371.268 269.657, 371 268.235, 371 260.186 L 371 251 374.893 251 C 379.028 251, 380 249.923, 380 245.342 C 380 243.068, 379.668 242.875, 376.250 243.170 C 372.027 243.534, 372.424 244.463, 371.376 231.750 C 370.797 224.729, 370.538 223.999, 368.618 223.986 C 367.453 223.979, 365.524 223.711, 364.332 223.391 C 362.609 222.929, 362.096 223.291, 361.832 225.155 C 361.534 227.258, 360.984 227.500, 356.500 227.500 L 351.500 227.500 349.500 222.261 L 347.500 217.022 340.500 217.026 C 336.650 217.029, 332.931 217.392, 332.236 217.833 M 405 229.726 C 402.561 230.648, 401.736 232.951, 401.439 239.652 C 401.158 246.004, 401.801 247.417, 405 247.474 C 405.825 247.488, 406.455 248.063, 406.400 248.750 C 406.345 249.438, 406.233 251.083, 406.150 252.406 C 405.950 255.618, 403.235 254.901, 398.428 250.367 C 396.438 248.491, 394.291 247.019, 393.655 247.096 C 390.684 247.458, 388.020 246.877, 386.728 245.585 C 384.028 242.885, 381.544 244.149, 381 248.500 C 380.513 252.400, 380.393 252.508, 376.250 252.807 L 372 253.115 372 260.870 C 372 268.046, 372.208 268.825, 374.781 271.290 C 376.583 273.017, 378.606 273.928, 380.531 273.880 C 382.164 273.839, 385.487 274.412, 387.916 275.153 C 391.711 276.310, 392.401 276.297, 392.814 275.057 C 393.638 272.587, 403.446 264, 405.444 264 C 406.219 264, 406.999 263.251, 407.177 262.336 C 407.368 261.349, 409.534 259.998, 412.500 259.015 C 417.136 257.479, 417.569 257.054, 418.442 253.179 C 418.960 250.881, 419.734 249, 420.161 249 C 420.588 249, 420.694 248.366, 420.397 247.591 C 420.099 246.816, 420.320 244.502, 420.887 242.448 C 422.306 237.306, 421.088 235.512, 413.770 231.967 C 407.296 228.831, 407.337 228.841, 405 229.726 M 422.948 237.689 C 423.695 239.236, 423.691 240.073, 422.934 240.541 C 422.344 240.905, 421.959 242.845, 422.079 244.852 C 422.198 246.858, 421.705 249.741, 420.984 251.259 C 419.897 253.541, 419.901 254.447, 421.005 256.509 C 422.459 259.227, 422.840 259.387, 424.835 258.123 C 425.885 257.458, 425.942 256.449, 425.103 253.411 C 424.516 251.285, 424.290 247.286, 424.600 244.523 C 425.027 240.724, 424.766 239.013, 423.527 237.500 C 421.915 235.531, 421.906 235.534, 422.948 237.689 M 449.203 242.570 C 447.970 243.434, 445.938 244.250, 444.688 244.383 C 443.438 244.516, 441.900 244.944, 441.270 245.333 C 440.640 245.723, 437.915 245.963, 435.215 245.867 C 432.514 245.772, 429.786 246.014, 429.152 246.406 C 427.212 247.605, 427.867 252.911, 430.419 256.666 C 432.297 259.430, 432.710 261.038, 432.267 263.863 C 431.953 265.863, 431.132 267.836, 430.441 268.248 C 429.751 268.659, 429.422 269.896, 429.710 270.998 C 430.529 274.130, 427.691 273.440, 425.668 270.014 C 424.411 267.887, 424.093 266.019, 424.563 263.514 C 425.143 260.423, 424.976 260, 423.170 260 C 422.042 260, 420.860 259.582, 420.544 259.071 C 420.213 258.536, 417.473 258.985, 414.093 260.126 C 406.770 262.599, 406.831 264.676, 414.309 267.565 C 419.031 269.389, 419.485 269.838, 419.333 272.535 C 418.447 288.275, 417.904 290.548, 413.653 296.318 C 411.689 298.984, 411.450 300.067, 412.180 303 C 412.658 304.925, 413.031 309.538, 413.008 313.250 C 412.980 317.640, 413.362 320, 414.099 320 C 414.723 320, 415.015 319.164, 414.747 318.142 C 413.963 315.142, 415.804 313.061, 421.453 310.563 C 426.342 308.401, 426.792 307.917, 427.214 304.359 C 427.466 302.237, 427.021 297.250, 426.226 293.278 L 424.780 286.056 428.140 283.295 C 429.988 281.777, 432.850 279.119, 434.500 277.388 C 436.150 275.658, 439.585 273.175, 442.133 271.871 C 447.221 269.267, 452.118 264.077, 452.121 261.285 C 452.133 252.142, 451.899 241, 451.697 241 C 451.558 241, 450.436 241.707, 449.203 242.570 M 426.583 263.215 C 426.700 269.218, 426.756 269.305, 429.076 267.143 C 431.770 264.634, 431.406 259.629, 428.500 259.215 C 426.756 258.967, 426.511 259.480, 426.583 263.215 M 402.667 266.667 C 402.300 267.033, 402 268.086, 402 269.006 C 402 269.926, 400.812 271.220, 399.361 271.881 C 397.909 272.543, 395.833 274.214, 394.746 275.596 C 393.156 277.618, 392.206 277.985, 389.885 277.475 C 388.298 277.126, 387 277.124, 387 277.470 C 387 279.250, 390.251 283.972, 392.936 286.093 C 394.742 287.520, 395.986 289.437, 395.991 290.802 C 395.997 292.457, 396.843 293.398, 399 294.150 C 400.650 294.725, 402 295.602, 402 296.098 C 402 296.594, 403.947 297, 406.326 297 C 410.838 297, 415 294.066, 415 290.886 C 415 290.068, 415.405 288.973, 415.899 288.450 C 416.394 287.928, 417.111 283.841, 417.493 279.370 L 418.187 271.240 414.940 269.620 C 413.154 268.729, 410.888 268, 409.905 268 C 408.922 268, 407.840 267.550, 407.500 267 C 406.802 265.870, 403.679 265.655, 402.667 266.667 M 328 274.819 C 328 275.644, 330.475 281.410, 333.500 287.631 C 337.764 296.399, 339.009 300.016, 339.040 303.721 C 339.100 310.939, 341.355 322.366, 343.307 325.345 C 344.813 327.645, 345.299 327.830, 347.012 326.761 C 348.697 325.708, 349.209 325.853, 350.548 327.765 C 352.268 330.221, 355.592 330.627, 358.134 328.693 C 359.463 327.681, 359.906 324.509, 360.505 311.724 C 361.162 297.722, 361.433 296, 362.985 296 C 364.893 296, 366 290.854, 366 281.990 L 366 277.260 361.376 276.739 C 358.833 276.452, 356.471 275.772, 356.126 275.228 C 355.782 274.683, 349.313 274.031, 341.750 273.777 C 329.983 273.383, 328 273.534, 328 274.819 M 381.167 278.062 C 379.884 278.576, 377.744 278.723, 376.411 278.388 C 375.078 278.054, 372.415 278.075, 370.493 278.435 L 367 279.091 367 288.045 C 367 296.165, 366.823 297, 365.107 297 C 364.066 297, 362.941 297.712, 362.607 298.582 C 361.480 301.518, 362.053 309.486, 363.532 311.441 C 364.339 312.509, 365 314.871, 365 316.691 C 365 319.009, 365.463 320, 366.545 320 C 368.174 320, 371.725 316.713, 373.631 313.441 C 374.713 311.584, 374.889 311.573, 377.705 313.202 C 380.727 314.951, 385 314.640, 385 312.671 C 385 312.068, 386.121 310.433, 387.491 309.038 C 388.861 307.642, 390.998 305.370, 392.241 303.989 C 393.483 302.608, 395.850 300.442, 397.500 299.176 C 399.150 297.910, 400.001 296.661, 399.392 296.401 C 397.176 295.455, 395.103 293.466, 394.805 292 C 394.637 291.175, 393.109 289.150, 391.409 287.500 C 389.709 285.850, 387.520 282.813, 386.545 280.750 C 384.625 276.688, 384.611 276.681, 381.167 278.062 M 400.458 299.259 C 395.978 301.982, 392 305.442, 392 306.615 C 392 307.297, 390.946 308.684, 389.659 309.696 C 388.371 310.709, 386.756 312.587, 386.071 313.868 C 384.810 316.223, 382.466 316.404, 376.500 314.606 C 374.985 314.150, 374.012 314.791, 372.487 317.252 C 370.872 319.857, 369.716 320.563, 366.643 320.816 C 362.918 321.123, 362.828 321.054, 363.404 318.316 C 363.730 316.767, 363.609 314.898, 363.135 314.163 C 362.595 313.323, 362.091 315.674, 361.783 320.481 C 361.199 329.574, 359.828 331.524, 354.259 331.174 C 352.192 331.044, 349.981 330.250, 349.346 329.409 C 346.136 325.157, 347.810 334.865, 351.525 342.048 C 352.674 344.271, 353.016 346.497, 352.604 349.075 C 352.103 352.210, 352.449 353.380, 354.654 356 C 356.648 358.370, 357.827 358.993, 359.403 358.509 C 365.342 356.683, 369.988 355.778, 374.500 355.568 C 384.142 355.118, 387.697 353.922, 393.652 349.123 C 396.819 346.573, 400.896 342.464, 402.713 339.993 C 404.531 337.522, 407.620 333.587, 409.579 331.250 C 413.200 326.928, 415.699 321, 413.899 321 C 413.370 321, 412.678 321.675, 412.362 322.500 C 411.565 324.575, 409.649 324.375, 407.491 321.990 C 405.905 320.237, 405.843 319.662, 407.005 317.490 C 407.738 316.121, 409.205 315, 410.265 315 C 411.972 315, 412.133 314.455, 411.668 310.250 C 410.730 301.763, 409.864 299.001, 408.137 298.986 C 407.236 298.979, 405.600 298.758, 404.500 298.495 C 403.400 298.232, 401.581 298.576, 400.458 299.259 M 408.452 318.152 C 407.604 320.823, 409.683 323.116, 411.026 320.992 C 412.384 318.844, 412.214 317.296, 410.551 316.658 C 409.661 316.317, 408.851 316.893, 408.452 318.152 M 392.091 331.577 C 389.128 334.070, 389.077 334.249, 390.540 337.077 C 391.949 339.801, 395 341.163, 395 339.067 C 395 338.554, 395.789 337.884, 396.752 337.579 C 397.716 337.273, 399.097 336.074, 399.821 334.915 C 400.944 333.118, 400.884 332.529, 399.413 330.904 C 397.124 328.374, 395.747 328.501, 392.091 331.577 M 393.594 332.315 C 391.089 334.820, 390.924 338.720, 393.373 337.543 C 393.993 337.245, 395.256 336.732, 396.181 336.402 C 398.585 335.545, 399.319 332.890, 397.621 331.193 C 396.351 329.923, 395.845 330.064, 393.594 332.315" stroke="none" fill="#f1f4f7" fill-rule="evenodd"/><path d="M 312.734 4.089 C 311.378 4.878, 311.008 6.267, 311.142 10.055 C 311.266 13.561, 310.804 15.559, 309.547 16.948 C 307.850 18.824, 307.864 19.044, 309.901 22.339 C 311.069 24.229, 312.682 26.321, 313.486 26.988 C 314.289 27.655, 315.235 29.736, 315.587 31.612 C 316.411 36.005, 318 37.006, 318 33.132 C 318 31.137, 318.830 29.492, 320.500 28.179 C 323.818 25.568, 323.665 24.031, 319.764 20.826 L 316.509 18.151 318.926 15.579 C 321.069 13.298, 321.196 12.736, 320.055 10.602 C 319.347 9.279, 318.972 7.590, 319.222 6.849 C 319.684 5.475, 317.315 3.065, 315.500 3.062 C 314.950 3.061, 313.705 3.524, 312.734 4.089 M 300.504 4.962 C 299.406 5.367, 296.706 5.507, 294.504 5.272 C 290.339 4.827, 279.351 7.249, 277.604 8.996 C 277.052 9.548, 275.973 10, 275.208 10 C 274.442 10, 272.844 10.787, 271.658 11.750 C 269.771 13.280, 269.584 14.129, 270.170 18.500 C 270.539 21.250, 271.154 24.737, 271.537 26.250 C 272.206 28.893, 272.082 29.001, 268.367 29.032 C 264.394 29.064, 261.500 30.600, 261.500 32.675 C 261.500 34.426, 254.201 39.048, 248.996 40.594 C 243.399 42.256, 240 45.265, 240 48.560 C 240 50.387, 241.232 51.893, 244.673 54.271 C 256.999 62.789, 281.169 81.448, 282.078 83.146 C 282.641 84.197, 284.878 85.768, 287.050 86.637 C 289.814 87.743, 291 88.820, 291 90.225 C 291 91.820, 291.463 92.109, 293.250 91.630 C 294.488 91.299, 296.272 91.021, 297.217 91.014 C 298.161 91.006, 301.103 89.088, 303.754 86.750 C 306.406 84.413, 312.499 79.800, 317.295 76.500 C 326.632 70.075, 327.616 68.125, 322.312 66.561 C 319.809 65.823, 318.768 64.682, 317.449 61.226 C 316.501 58.745, 316.147 56.453, 316.637 55.963 C 317.771 54.829, 316.643 42.039, 314.772 34.834 C 313.964 31.718, 311.927 27.433, 310.247 25.312 C 306.408 20.465, 306.135 19.138, 308.307 15.885 C 309.890 13.515, 310.121 6.788, 308.670 5.337 C 307.805 4.471, 302.493 4.228, 300.504 4.962 M 250.638 14.536 C 249.381 17.591, 247.754 19.582, 245.638 20.653 C 239.050 23.988, 235.922 28.825, 236.177 35.284 C 236.298 38.334, 235.665 39.764, 232.913 42.660 C 231.036 44.636, 227.615 47.104, 225.311 48.146 C 223.007 49.187, 220.856 50.878, 220.531 51.903 C 220.205 52.928, 218.603 55.165, 216.970 56.874 C 215.336 58.583, 214 60.824, 214 61.853 C 214 62.883, 212.650 65.424, 211 67.500 C 209.350 69.576, 208 71.827, 208 72.503 C 208 73.178, 207.100 74.874, 206 76.273 C 204.900 77.671, 204 79.082, 204 79.408 C 204 79.733, 205.912 79.996, 208.250 79.992 C 211.884 79.986, 212.681 79.594, 213.750 77.293 C 214.438 75.812, 215 73.816, 215 72.856 C 215 71.897, 216.598 69.399, 218.550 67.306 C 220.503 65.213, 222.744 62.150, 223.530 60.500 C 226.875 53.482, 228.581 51.752, 231.470 52.451 C 235.653 53.464, 237.979 51.983, 238.633 47.893 C 239.275 43.882, 242.296 41.172, 248 39.492 C 252.148 38.270, 259.999 32.771, 260.008 31.082 C 260.017 29.141, 264.378 27, 268.322 27 C 270.534 27, 270.998 26.696, 270.232 25.750 C 269.674 25.063, 268.945 22.475, 268.610 20 C 267.880 14.604, 266.006 13, 260.431 13 C 257.930 13, 255.744 12.396, 255 11.500 C 253.142 9.261, 252.673 9.588, 250.638 14.536 M 325 25.448 C 325 26.175, 323.875 27.507, 322.500 28.408 C 321.057 29.354, 320 30.999, 320 32.301 C 320 33.540, 319.305 35.547, 318.455 36.760 C 317.298 38.413, 317.173 39.454, 317.955 40.917 C 319.223 43.285, 319.353 55.664, 318.118 56.427 C 316.602 57.364, 321.022 65, 323.081 65 C 324.111 65, 325.646 66.056, 326.491 67.346 C 327.336 68.636, 329.803 70.224, 331.972 70.873 C 334.141 71.523, 336.186 72.491, 336.515 73.025 C 336.867 73.594, 338.639 73.136, 340.807 71.916 L 344.500 69.839 361.495 79.435 C 370.842 84.713, 378.642 88.575, 378.828 88.016 C 379.014 87.457, 380.019 87, 381.060 87 C 382.839 87, 382.919 86.319, 382.392 75.750 C 382.083 69.563, 381.393 58.875, 380.857 52 C 380.321 45.125, 379.839 37.165, 379.785 34.312 L 379.688 29.123 375.922 28.487 C 373.851 28.137, 371.911 27.209, 371.610 26.425 C 370.868 24.492, 365.019 24.598, 362.164 26.597 C 360.329 27.883, 360.011 28.774, 360.536 31.165 C 361.606 36.034, 356.872 39.960, 354.042 36.551 C 352.891 35.164, 349.461 33.829, 343.921 32.614 C 342.503 32.303, 340.846 30.957, 340.238 29.624 C 339.107 27.140, 335.589 25.618, 328.750 24.654 C 326.041 24.272, 325 24.493, 325 25.448 M 381.504 36.458 C 382.428 48.457, 383.948 71.727, 383.973 74.250 L 384 77 408.250 76.978 C 431.389 76.957, 432.402 76.876, 430.356 75.228 C 429.178 74.277, 427.889 72.375, 427.494 71 C 426.478 67.468, 417.133 48.817, 415.436 46.935 C 413.512 44.801, 411.596 39.058, 412.521 38.199 C 412.935 37.815, 413.465 38.033, 413.699 38.685 C 413.932 39.337, 415.518 41.796, 417.223 44.150 C 419.994 47.974, 420.405 48.220, 421.091 46.465 C 422.323 43.313, 422.111 39.115, 420.568 36.132 C 419.309 33.698, 418.619 33.388, 414.863 33.570 C 412.512 33.684, 409.643 33.157, 408.486 32.399 C 406.651 31.197, 405.881 31.276, 402.458 33.021 C 398.537 35.021, 398.529 35.021, 392.017 33.031 C 388.433 31.936, 384.514 31.124, 383.308 31.228 C 381.310 31.400, 381.150 31.862, 381.504 36.458 M 240 55.966 L 240 59 233 59 L 226 59 226 64.885 C 226 70.059, 225.698 70.968, 223.500 72.408 C 221.527 73.701, 221 74.884, 221 78.023 L 221 82 213 82 C 205.746 82, 203.335 82.853, 205.976 84.485 C 206.513 84.817, 206.985 86.981, 207.023 89.294 C 207.062 91.608, 207.164 95.075, 207.250 97 C 207.336 98.925, 207.202 101.400, 206.953 102.500 C 206.548 104.288, 206.940 104.465, 210.643 104.174 C 214.449 103.875, 215.152 104.231, 219.287 108.546 C 223.183 112.612, 223.868 112.991, 224.385 111.361 C 224.931 109.642, 226.132 109.480, 238.241 109.489 L 251.500 109.500 251.337 107 C 251.247 105.625, 250.456 96.850, 249.579 87.500 C 247.138 61.477, 247.127 62.695, 249.821 62.050 C 251.918 61.548, 251.555 61.080, 246.071 57.213 L 240 52.931 240 55.966 M 228.594 55.615 C 228.181 56.691, 229.284 57, 233.531 57 C 237.523 57, 239 56.626, 239 55.615 C 239 54.623, 237.602 54.231, 234.063 54.231 C 230.779 54.231, 228.947 54.695, 228.594 55.615 M 249.503 70.750 C 249.846 74.463, 250.788 83.800, 251.596 91.500 C 253.176 106.551, 253.402 109.952, 252.852 110.446 C 252.658 110.620, 246.650 110.928, 239.500 111.131 C 223.520 111.585, 222.609 112.217, 226 120.500 C 226.450 121.600, 227.094 123.349, 227.430 124.387 C 227.956 126.009, 228.729 126.192, 232.941 125.693 L 237.840 125.113 239.592 129.985 C 241.395 135, 244.177 136.928, 246.650 134.876 C 247.340 134.303, 248.826 134.127, 249.952 134.485 C 251.597 135.007, 252.023 134.679, 252.118 132.817 C 252.184 131.543, 252.169 129.961, 252.087 129.302 C 252.004 128.643, 252.803 127.640, 253.863 127.073 C 254.923 126.506, 256.281 124.632, 256.882 122.909 C 257.574 120.924, 258.471 119.967, 259.332 120.297 C 260.079 120.584, 261.314 119.951, 262.078 118.892 C 264.615 115.372, 272.098 112.316, 280 111.574 C 284.125 111.187, 288.483 110.633, 289.684 110.343 C 292.439 109.679, 294 105.345, 294 98.363 C 294 93.424, 293.831 93.041, 291.753 93.262 C 290.107 93.436, 289.422 92.911, 289.190 91.297 C 289.016 90.086, 287.890 88.782, 286.687 88.401 C 285.485 88.019, 283.151 86.265, 281.501 84.504 C 279.850 82.742, 273.392 77.408, 267.149 72.650 C 257.947 65.637, 255.144 64, 252.339 64 L 248.879 64 249.503 70.750 M 220.361 67.676 C 218.634 69.229, 216.771 72.075, 216.219 74 C 215.668 75.925, 214.881 78.323, 214.471 79.330 C 213.836 80.888, 214.154 81.110, 216.612 80.830 C 219.229 80.531, 219.500 80.145, 219.500 76.714 C 219.500 73.278, 220.485 71.743, 223.338 70.737 C 223.798 70.574, 224.023 69.184, 223.838 67.647 L 223.500 64.852 220.361 67.676 M 318.740 77.364 C 314.501 80.315, 308.663 84.744, 305.767 87.206 C 302.870 89.669, 299.262 91.989, 297.750 92.361 C 295.091 93.016, 295 93.262, 294.985 99.769 C 294.965 109.246, 293.676 111.358, 287.477 112.079 C 281.768 112.743, 278 113.897, 278 114.982 C 278 115.393, 278.823 116.803, 279.830 118.115 C 280.836 119.427, 281.944 121.280, 282.292 122.233 C 282.675 123.284, 283.530 123.734, 284.462 123.376 C 285.308 123.052, 286 123.284, 286 123.893 C 286 124.502, 286.863 125, 287.917 125 C 288.971 125, 290.009 125.526, 290.223 126.168 C 290.437 126.811, 291.441 125.574, 292.454 123.418 C 293.467 121.263, 294.792 119.169, 295.398 118.765 C 297.547 117.333, 302.996 117.996, 304.926 119.926 C 306.125 121.125, 307.637 121.646, 308.933 121.307 C 310.077 121.008, 312.335 121.310, 313.949 121.979 C 316.394 122.992, 317.264 122.928, 319.165 121.597 C 321.673 119.840, 325.712 119.532, 327.918 120.928 C 329.644 122.021, 334 119.447, 334 117.335 C 334 115.338, 336.785 110.159, 340.094 106 C 342.620 102.827, 342.891 101.706, 342.995 94 C 343.114 85.215, 340.650 74.804, 338.547 75.206 C 337.971 75.316, 336.060 74.640, 334.300 73.703 C 329.326 71.056, 327.025 71.597, 318.740 77.364 M 342.322 72.638 C 340.780 73.267, 341.785 79.588, 344.010 83.253 C 345.312 85.397, 345.509 87.056, 344.901 90.753 C 344.471 93.364, 344.092 97.222, 344.060 99.327 C 344.016 102.134, 342.934 104.642, 340 108.740 C 335.301 115.301, 334.821 119.181, 338.416 121.537 C 341.190 123.354, 341.861 124.755, 342.953 131 C 343.386 133.475, 344.071 136.287, 344.477 137.250 C 345.104 138.739, 344.647 139, 341.411 139 L 337.608 139 340.804 142.298 C 342.562 144.111, 344 146.110, 344 146.739 C 344 148.588, 345.971 149.269, 347.544 147.964 C 348.349 147.295, 349 147.195, 349 147.740 C 349 148.314, 350.880 148.107, 353.500 147.244 C 356.610 146.221, 358 145.209, 358 143.969 C 358 142.663, 359.063 141.996, 361.915 141.514 C 364.969 140.998, 366.423 139.997, 368.529 136.958 C 370.014 134.815, 372.047 132.803, 373.046 132.485 C 374.624 131.985, 374.720 131.485, 373.771 128.704 C 373.170 126.942, 372.073 125.138, 371.332 124.697 C 370.371 124.123, 370.264 123.375, 370.958 122.078 C 371.492 121.080, 371.724 120.057, 371.472 119.805 C 371.220 119.553, 371.911 117.491, 373.007 115.222 C 374.103 112.953, 375 110.655, 375 110.116 C 375 109.576, 375.917 108.844, 377.038 108.488 C 378.911 107.893, 379.052 107.148, 378.788 99.255 L 378.500 90.670 362 81.366 C 345.688 72.168, 344.628 71.698, 342.322 72.638 M 384 84 C 384 88.410, 383.753 89, 381.904 89 C 379.863 89, 379.827 89.278, 380.523 99.500 L 381.239 110 378.728 110 C 376.844 110, 376.023 110.686, 375.440 112.750 C 374.544 115.921, 374.518 116.002, 373.753 118 C 372.544 121.153, 372.223 124, 373.075 124 C 373.563 124, 374.270 125.237, 374.647 126.750 C 375.024 128.262, 376.382 131.387, 377.666 133.692 C 378.950 135.998, 380 139.073, 380 140.526 C 380 144.152, 382.083 143.212, 383.515 138.940 C 384.894 134.827, 388.195 133.864, 390.780 136.820 C 391.819 138.007, 394.333 139.013, 397.128 139.357 C 400.916 139.825, 402.077 139.572, 403.533 137.964 C 405.568 135.714, 408.027 135.438, 409.875 137.250 C 411.812 139.150, 416.251 133.404, 415.587 129.855 C 415.193 127.752, 415.544 127.088, 417.296 126.618 C 420.807 125.677, 421 125.819, 421 129.345 C 421 131.420, 421.759 133.377, 423 134.500 C 424.827 136.154, 425 136.164, 425 134.624 C 425 133.696, 425.625 132.698, 426.388 132.405 C 427.151 132.112, 428.019 130.657, 428.316 129.172 C 428.612 127.688, 429.778 125.408, 430.907 124.108 C 432.871 121.843, 434.207 117.180, 433.804 114 C 433.700 113.175, 433.975 110.206, 434.416 107.401 C 435.065 103.272, 435.767 101.978, 438.109 100.595 C 441.617 98.522, 441.667 97.975, 438.606 95.099 C 436.892 93.489, 436.014 91.265, 435.514 87.268 C 435.131 84.198, 434.585 81.082, 434.301 80.343 C 433.889 79.269, 428.806 79, 408.893 79 L 384 79 384 84 M 441.018 100.776 C 440.203 101.076, 439.061 101.812, 438.482 102.411 C 437.297 103.635, 435 110.863, 435 113.366 C 435 115.250, 438.045 115.555, 439.758 113.842 C 440.634 112.966, 441.279 112.986, 442.414 113.928 C 443.238 114.613, 444.393 114.875, 444.981 114.512 C 447.403 113.015, 452.447 115.418, 457.249 120.357 C 462.625 125.887, 462.611 124.648, 457.228 118.573 C 455.429 116.542, 452.706 114.445, 451.177 113.912 C 448.200 112.874, 445 108.405, 445 105.287 C 445 102.627, 442.790 100.123, 441.018 100.776 M 209.250 105.794 C 207.385 105.985, 206 106.692, 206 107.453 C 206 108.182, 205.168 109.806, 204.152 111.061 C 202.616 112.958, 202.489 113.836, 203.402 116.259 C 204.409 118.932, 204.806 119.125, 208.182 118.586 C 212.222 117.941, 217 119.297, 217 121.089 C 217 121.794, 215.815 122.053, 213.887 121.770 C 210.613 121.290, 203.107 123.330, 204.648 124.282 C 205.141 124.587, 208.010 124.524, 211.023 124.143 C 214.035 123.761, 218.412 123.873, 220.749 124.392 C 225.697 125.492, 226.995 124.757, 224.661 122.177 C 223.747 121.168, 223 119.525, 223 118.526 C 223 116.083, 217.818 108.004, 216.250 108.002 C 215.563 108.001, 215 107.598, 215 107.107 C 215 105.853, 213.041 105.406, 209.250 105.794 M 269 115.646 C 266.525 116.953, 264.094 118.918, 263.597 120.012 C 263.069 121.175, 261.720 122, 260.347 122 C 259.056 122, 258.089 122.338, 258.198 122.750 C 258.563 124.133, 256.876 128, 255.908 128 C 254.047 128, 252.804 133.265, 254.095 135.678 C 255.065 137.490, 256.055 137.889, 259.146 137.716 C 262.619 137.521, 262.990 137.235, 262.995 134.750 C 263 132.088, 263.184 131.995, 268.750 131.842 C 271.913 131.754, 275.400 131.770, 276.500 131.875 C 277.600 131.981, 279.400 131.643, 280.500 131.124 C 281.600 130.606, 283.253 129.943, 284.172 129.652 C 286.410 128.943, 285.445 125.350, 282.833 124.667 C 281.743 124.382, 280.607 123.215, 280.309 122.074 C 280.011 120.933, 279.453 120, 279.069 120 C 278.685 120, 277.619 118.425, 276.701 116.500 C 274.785 112.481, 274.955 112.500, 269 115.646 M 440.337 116.563 C 440.097 117.190, 438.855 117.504, 437.578 117.260 C 435.579 116.878, 435.162 117.322, 434.573 120.464 C 434.196 122.470, 432.999 125.001, 431.913 126.087 C 430.826 127.174, 429.663 129.437, 429.327 131.117 C 428.991 132.797, 428.105 134.406, 427.358 134.693 C 426.469 135.034, 426 136.912, 426 140.132 C 426 144.576, 425.735 145.150, 423.250 146.095 C 420.626 147.093, 420.591 147.191, 422.488 148.253 C 425.214 149.779, 427.759 152.878, 429.466 156.750 C 430.253 158.537, 431.322 160, 431.841 160 C 432.359 160, 433.066 161.125, 433.411 162.500 C 433.843 164.221, 434.733 165.007, 436.269 165.022 C 437.496 165.034, 439.625 165.924, 441 167 C 443.476 168.937, 450 169.778, 450 168.161 C 450 166.531, 454.409 165.218, 456.160 166.326 C 457.427 167.128, 459.051 166.739, 463.003 164.688 C 465.853 163.210, 469.172 162, 470.378 162 C 471.883 162, 474.368 159.801, 478.290 155 C 482.463 149.892, 483.541 148, 482.276 148 C 481.322 148, 477.460 146.822, 473.692 145.382 C 468.326 143.332, 466.213 141.897, 463.939 138.758 C 462.343 136.553, 461.310 134.308, 461.643 133.768 C 462.009 133.177, 461.437 133.044, 460.206 133.435 C 457.437 134.313, 456.365 130.899, 458.423 127.758 C 459.884 125.527, 459.759 125.227, 455.581 120.962 C 451.785 117.086, 450.526 116.429, 445.993 115.962 C 442.555 115.607, 440.626 115.812, 440.337 116.563 M 294.483 123.395 C 292.753 127.039, 292.254 131.984, 293.425 133.878 C 293.821 134.520, 292.988 137.117, 291.573 139.648 C 288.355 145.406, 287.835 154.956, 290.750 154.755 C 295.287 154.442, 297.798 156.038, 299.940 160.596 L 302.109 165.211 306.711 164.521 C 311.588 163.789, 313.350 162.622, 314.357 159.453 C 315.286 156.532, 319.836 152, 321.840 152 C 322.808 152, 324.123 152.523, 324.763 153.163 C 325.647 154.047, 326.154 153.726, 326.876 151.826 C 329.467 145.010, 336.423 131.409, 337.866 130.337 C 339.228 129.324, 339.292 128.781, 338.250 127.074 C 337.563 125.948, 337 124.401, 337 123.636 C 337 121.088, 334.533 119.890, 332.439 121.421 C 331.137 122.373, 328.931 122.642, 325.408 122.278 C 322.139 121.941, 320.021 122.158, 319.578 122.874 C 318.664 124.353, 313.721 124.321, 312.227 122.827 C 311.355 121.955, 310.432 121.938, 308.623 122.762 C 306.604 123.682, 305.895 123.542, 304.441 121.935 C 303.384 120.767, 301.383 120, 299.392 120 C 296.625 120, 295.834 120.547, 294.483 123.395 M 207.500 126 C 205.555 126.836, 205.911 127.174, 209 127.428 C 209.825 127.495, 210.429 128.375, 210.343 129.382 C 210.229 130.721, 210.484 130.916, 211.293 130.107 C 211.902 129.498, 213.114 129, 213.986 129 C 214.905 129, 215.571 128.159, 215.571 127 C 215.571 125.424, 214.928 125.015, 212.536 125.070 C 210.866 125.109, 208.600 125.527, 207.500 126 M 217.631 125.702 C 217.284 126.049, 217 127.158, 217 128.167 C 217 129.175, 216.380 130, 215.622 130 C 214.865 130, 213.718 130.635, 213.074 131.410 C 212.144 132.532, 212.571 133.607, 215.162 136.660 C 216.955 138.772, 218.588 140.724, 218.792 140.998 C 218.996 141.273, 219.810 140.613, 220.599 139.533 C 221.389 138.454, 223.373 137.417, 225.008 137.231 C 227.542 136.941, 228.217 137.387, 229.581 140.248 C 230.461 142.094, 232.153 144.031, 233.341 144.552 C 234.528 145.073, 235.644 146.512, 235.820 147.750 C 236.165 150.179, 236.752 150.443, 238.852 149.113 C 240.936 147.792, 240.869 137.230, 238.750 133.039 C 237.787 131.135, 237 129.009, 237 128.314 C 237 127.430, 236.021 127.232, 233.750 127.656 C 231.963 127.989, 230.275 128.278, 230 128.299 C 228.715 128.396, 221.323 126.646, 219.881 125.904 C 218.991 125.445, 217.979 125.355, 217.631 125.702 M 463.079 125.750 C 463.036 126.438, 462.373 127, 461.607 127 C 460.297 127, 459 129.030, 459 131.082 C 459 131.587, 459.955 132, 461.122 132 C 462.842 132, 463.021 131.731, 462.067 130.581 C 461.140 129.464, 461.248 128.961, 462.574 128.219 C 463.500 127.700, 464.011 126.651, 463.708 125.888 C 463.327 124.927, 463.134 124.885, 463.079 125.750 M 287 128.448 C 287 129.336, 286.212 130.342, 285.250 130.683 C 284.288 131.025, 282.709 131.984, 281.742 132.814 C 280.090 134.233, 280.086 134.438, 281.673 136.191 C 282.883 137.528, 283.488 140.459, 283.806 146.528 C 284.198 153.992, 284.474 155, 286.129 155 C 287.772 155, 287.980 154.283, 287.797 149.250 C 287.642 145.010, 288.201 142.164, 289.925 138.410 C 292.028 133.829, 292.124 133.035, 290.881 130.483 C 289.306 127.249, 287 126.040, 287 128.448 M 418 130.333 C 418 131.617, 416.475 134.429, 414.610 136.583 C 411.306 140.401, 411.170 140.455, 409.221 138.695 C 407.283 136.946, 407.137 136.969, 404.465 139.445 C 401.576 142.122, 398.582 142.751, 397.450 140.919 C 397.082 140.324, 395.769 140.092, 394.531 140.403 C 393.027 140.780, 391.685 140.310, 390.485 138.984 C 387.225 135.381, 385.886 136.303, 383.566 143.750 C 383.054 145.395, 383.269 146, 384.365 146 C 385.190 146, 386.138 146.860, 386.472 147.911 C 386.805 148.961, 388.185 150.547, 389.539 151.434 C 390.893 152.320, 392 153.695, 392 154.488 C 392 155.281, 392.900 156.411, 394 157 C 395.100 157.589, 396.010 158.617, 396.022 159.285 C 396.034 159.953, 396.824 161.513, 397.777 162.751 C 399.257 164.673, 399.970 164.869, 402.669 164.095 C 405.377 163.318, 406.155 163.537, 408.115 165.623 C 410.109 167.745, 411.202 168.035, 416.649 167.885 C 422.606 167.721, 423.039 167.535, 425.973 163.884 C 428.939 160.193, 428.997 159.937, 427.578 156.778 C 425.733 152.668, 423.993 150.561, 421.750 149.719 C 419.269 148.788, 419.457 145, 421.984 145 C 423.686 145, 423.929 144.415, 423.693 140.889 C 423.527 138.421, 422.735 136.279, 421.709 135.529 C 420.725 134.810, 420 132.947, 420 131.140 C 420 129.413, 419.550 128, 419 128 C 418.450 128, 418 129.050, 418 130.333 M 495.419 129.981 C 494.584 130.816, 486.092 132.906, 477 134.516 C 475.625 134.759, 473.093 135.235, 471.374 135.574 C 468.829 136.076, 467.940 135.754, 466.595 133.845 C 465.199 131.862, 464.796 131.732, 463.987 133 C 462.682 135.047, 462.694 135.086, 465.777 138.634 C 468.563 141.841, 480.307 147, 484.821 147 C 486.811 147, 486.190 148.081, 479.942 155.500 C 473.648 162.974, 472.390 164, 469.515 164 C 467.716 164, 465.685 164.675, 465 165.500 C 464.315 166.325, 463.158 167, 462.428 167 C 461.699 167, 459.954 168.505, 458.551 170.344 C 456.255 173.354, 456 174.585, 456 182.644 C 456 194.853, 457.034 195.575, 463.081 187.587 C 465.710 184.114, 470.117 179.617, 472.874 177.593 C 480.040 172.332, 485.501 165.368, 489.534 156.345 C 491.463 152.030, 493.909 146.812, 494.971 144.748 C 496.033 142.685, 497.206 138.297, 497.580 134.998 C 498.235 129.208, 497.620 127.780, 495.419 129.981 M 338.171 132.318 C 336.977 133.589, 336 134.962, 336 135.369 C 336 136.777, 332.002 144.881, 331.003 145.498 C 330.451 145.839, 330 146.811, 330 147.658 C 330 150.292, 326.843 156, 325.386 156 C 324.624 156, 324 155.550, 324 155 C 324 153.178, 320.383 153.964, 318.246 156.250 C 315.305 159.396, 314.695 167, 317.383 167 C 318.816 167, 319.963 169.923, 319.986 173.636 C 319.999 175.643, 320.464 175.763, 327.750 175.636 C 332.012 175.561, 337.863 175.853, 340.750 176.284 C 346.943 177.210, 347.579 175.936, 343.558 170.665 C 342.215 168.904, 340.550 165.347, 339.858 162.760 C 338.706 158.451, 338.785 157.727, 340.800 154.142 C 343.694 148.993, 343.587 147.738, 339.894 143.532 C 336.572 139.748, 336.592 137, 339.944 137 C 341.667 137, 341.863 136.542, 341.331 133.750 C 340.534 129.562, 340.692 129.634, 338.171 132.318 M 266.922 133.749 C 264.376 134.095, 264.354 134.172, 265.149 139.983 C 265.753 144.396, 265.585 146.750, 264.477 149.401 C 262.673 153.717, 262.626 155.798, 264.250 159.283 C 265.988 163.010, 266.981 163.147, 272.395 160.403 C 275.002 159.081, 277.779 158, 278.567 158 C 280.193 158, 280.432 156.856, 279.100 155.450 C 278.605 154.928, 277.945 150.547, 277.633 145.715 C 277.320 140.884, 276.488 136.159, 275.782 135.215 C 274.509 133.512, 271.870 133.075, 266.922 133.749 M 371.995 134.750 C 371.983 136.738, 364.903 143, 362.668 143 C 361.076 143, 360.053 143.691, 359.712 144.995 C 359.425 146.092, 358.585 147.164, 357.845 147.377 C 356.558 147.747, 351.039 149.250, 346.239 150.536 C 343.556 151.255, 341 155.757, 341 159.763 C 341 161.337, 341.884 164.455, 342.965 166.692 C 344.992 170.888, 348 173.144, 348 170.469 C 348 169.028, 350.263 168.497, 354.750 168.882 C 356.212 169.008, 357 168.525, 357 167.503 C 357 165.311, 359.970 161, 361.480 161 C 362.168 161, 363.803 161.830, 365.115 162.845 C 368.412 165.396, 373.524 166.278, 374.963 164.544 C 375.589 163.791, 378.327 162.868, 381.049 162.493 C 383.771 162.119, 386.223 161.448, 386.499 161.001 C 386.775 160.555, 388.902 160.445, 391.225 160.757 L 395.450 161.324 392.662 157.912 C 391.129 156.035, 388.665 153.029, 387.187 151.231 C 385.709 149.433, 383.003 147.013, 381.174 145.852 C 378.432 144.113, 377.957 143.308, 378.469 141.266 C 379.250 138.157, 376.679 134, 373.977 134 C 372.890 134, 371.998 134.338, 371.995 134.750 M 242.024 137.881 C 242.037 138.221, 242.432 140.153, 242.901 142.173 C 243.428 144.439, 243.377 146.223, 242.770 146.830 C 242.228 147.372, 241.483 149.291, 241.114 151.095 C 240.588 153.668, 240.905 154.874, 242.584 156.685 C 244.068 158.286, 244.568 159.811, 244.214 161.661 C 243.772 163.974, 243.956 164.221, 245.602 163.523 C 250.248 161.554, 257.506 160.089, 259.782 160.660 C 262.134 161.250, 262.239 161.100, 261.718 157.892 C 261.413 156.010, 261.876 152.175, 262.758 149.279 C 264.041 145.062, 264.116 143.551, 263.147 141.422 C 262.081 139.084, 261.554 138.861, 258.460 139.442 C 255.809 139.939, 254.831 139.724, 254.379 138.545 C 253.926 137.365, 252.378 137.027, 247.892 137.128 C 244.651 137.201, 242.011 137.540, 242.024 137.881 M 279.530 145.500 C 280.249 154.599, 280.554 156, 281.815 156 C 283.041 156, 281.449 139.047, 280.100 137.741 C 279.061 136.734, 278.953 138.195, 279.530 145.500 M 224 138.741 C 219.555 140.470, 218.910 145.345, 222.600 149.325 C 225.079 151.998, 225.289 152.048, 227.100 150.409 C 229.201 148.508, 229.649 143.082, 227.965 139.934 C 226.882 137.911, 226.461 137.784, 224 138.741 M 229.605 149.629 C 226.849 153.083, 226.800 153.308, 228.605 154.312 C 229.647 154.892, 231.808 156.669, 233.406 158.262 C 235.005 159.855, 237.406 161.875, 238.742 162.750 C 240.820 164.112, 241.301 164.137, 242.070 162.921 C 243.549 160.585, 243.138 159.137, 240.508 157.414 C 238.675 156.212, 238.165 155.192, 238.576 153.554 C 239.037 151.717, 238.729 151.342, 236.817 151.413 C 235.006 151.481, 234.431 150.899, 234.184 148.750 C 233.769 145.144, 233.077 145.277, 229.605 149.629 M 428.807 162.750 C 426.102 165.900, 426.027 166.679, 428.025 170.816 C 430.510 175.960, 430.503 179.801, 428 183 C 425.663 185.988, 425.413 188.162, 427.500 187.362 C 428.325 187.045, 429 187.298, 429 187.924 C 429 188.551, 428.325 189.322, 427.500 189.638 C 424.779 190.682, 425.911 191.986, 434 197.121 C 438.400 199.915, 442 202.752, 442 203.426 C 442 204.937, 446.209 209, 447.774 209 C 448.404 209, 449.474 207.150, 450.151 204.889 C 450.829 202.628, 452.197 200.269, 453.192 199.648 C 454.186 199.027, 455 197.990, 455 197.343 C 455 196.696, 455.563 195.960, 456.250 195.708 C 457.250 195.342, 457.250 194.985, 456.250 193.925 C 454.717 192.300, 454.496 172.430, 456 171.500 C 457.555 170.539, 457.178 168.282, 455.345 167.579 C 454.345 167.195, 452.806 167.773, 451.459 169.039 C 449.672 170.717, 448.509 170.998, 445.606 170.454 C 443.613 170.080, 440.903 168.925, 439.584 167.887 C 438.264 166.849, 436.232 166, 435.068 166 C 433.729 166, 432.601 165.080, 432 163.500 C 430.869 160.526, 430.743 160.496, 428.807 162.750 M 387 162.898 C 386.175 163.357, 383.512 164.035, 381.082 164.405 C 378.652 164.775, 376.177 165.721, 375.582 166.507 C 374.719 167.647, 373.618 167.735, 370.151 166.941 C 367.760 166.394, 365.140 165.283, 364.330 164.473 C 362.059 162.202, 360.095 162.719, 359.483 165.750 C 359.178 167.262, 358.287 170.750, 357.503 173.500 C 356.720 176.250, 355.832 181.200, 355.530 184.500 C 355.171 188.432, 354.382 191.017, 353.241 192 C 350.214 194.607, 348 198.823, 348 201.980 C 348 204.066, 346.912 206.209, 344.556 208.765 C 341.520 212.057, 340.873 212.354, 339.102 211.270 C 337.796 210.471, 336.875 210.393, 336.471 211.047 C 336.129 211.600, 335.096 211.929, 334.175 211.777 C 333.098 211.599, 332.388 212.289, 332.186 213.710 C 331.885 215.827, 332.239 215.932, 340.598 216.210 L 349.325 216.500 350.412 220.008 C 352.224 225.852, 353.168 226.803, 356.633 226.280 C 358.695 225.969, 360.141 224.985, 360.862 223.404 C 361.597 221.791, 362.786 221, 364.479 221 C 365.865 221, 367 221.450, 367 222 C 367 222.550, 368.125 223, 369.500 223 C 371.630 223, 372.017 223.481, 372.118 226.250 C 372.289 230.956, 372.753 235.046, 373.537 238.744 C 374.197 241.853, 374.381 241.963, 377.987 241.386 C 380.130 241.043, 382.018 241.221, 382.375 241.798 C 382.720 242.356, 383.902 242.577, 385.001 242.289 C 386.347 241.937, 387 242.259, 387 243.275 C 387 245.271, 392.039 246.555, 393.105 244.830 C 393.940 243.479, 394.570 243.922, 400.943 250.344 C 403.052 252.470, 403.966 252.864, 404.560 251.903 C 405.035 251.135, 404.830 250.443, 404.052 250.184 C 400.341 248.947, 399.231 246.315, 399.560 239.530 C 399.937 231.739, 401.871 228, 405.523 228 C 408.563 228, 408.700 226.159, 405.922 222.628 C 404.539 220.870, 403.709 218.068, 403.438 214.244 C 403.214 211.085, 402.771 205.866, 402.454 202.647 C 401.995 197.993, 402.222 196.412, 403.560 194.934 C 404.485 193.911, 404.998 192.436, 404.698 191.656 C 403.907 189.593, 406.121 183.841, 409.323 179.644 C 410.851 177.640, 411.629 176, 411.051 176 C 410.473 176, 410 174.601, 410 172.891 C 410 168.381, 406.474 165.004, 402.850 166.043 C 400.798 166.632, 399.468 166.375, 397.784 165.065 C 395.045 162.936, 389.086 161.738, 387 162.898 M 418.250 169.343 C 412.613 170.187, 412 170.511, 412 172.640 C 412 173.938, 412.450 175, 413 175 C 413.550 175, 413.985 175.787, 413.967 176.750 C 413.928 178.810, 410.658 183, 409.090 183 C 408.490 183, 407.943 183.563, 407.872 184.250 C 407.394 188.937, 407.211 190.008, 406.629 191.523 C 406.123 192.844, 406.370 193.071, 407.739 192.541 C 408.707 192.167, 410.686 191.620, 412.136 191.328 C 413.612 191.030, 415.253 189.740, 415.865 188.398 C 416.477 187.053, 417.819 186, 418.920 186 C 419.999 186, 421.148 185.570, 421.473 185.044 C 421.798 184.518, 422.671 184.320, 423.413 184.605 C 424.210 184.911, 425.639 183.703, 426.908 181.649 C 428.987 178.285, 429.002 178.040, 427.377 173.838 C 426.454 171.452, 425.429 169.254, 425.100 168.953 C 424.770 168.652, 421.688 168.828, 418.250 169.343 M 349.693 170.724 C 349.441 171.151, 348.904 173.075, 348.500 175 C 347.469 179.910, 347.447 179.924, 343.261 178.430 C 338.130 176.599, 335 176.642, 335 178.544 C 335 179.420, 335.699 179.961, 336.617 179.794 C 339.176 179.329, 340.751 182.568, 339.185 185.075 C 338.126 186.770, 338.123 187.444, 339.169 188.703 C 340.399 190.186, 340.479 194.456, 339.349 198.327 C 338.942 199.724, 337.955 200.103, 335.158 199.937 C 328.357 199.534, 327.991 199.706, 328.650 203 C 329.124 205.370, 328.901 206, 327.590 206 C 326.260 206, 326.135 206.384, 326.962 207.929 C 327.783 209.462, 328.866 209.792, 332.247 209.536 C 334.586 209.359, 337.288 208.893, 338.250 208.500 C 339.459 208.007, 340 208.252, 340 209.294 C 340 210.351, 340.898 209.963, 343 208 C 345.221 205.926, 346 204.294, 346 201.721 C 346 199.809, 346.675 197.685, 347.500 197 C 348.325 196.315, 349 195.190, 349 194.500 C 349 193.809, 349.874 192.627, 350.943 191.872 C 352.348 190.879, 353.288 188.150, 354.344 182 C 355.146 177.325, 356.084 172.805, 356.429 171.956 C 356.913 170.763, 356.272 170.360, 353.603 170.180 C 351.704 170.052, 349.945 170.297, 349.693 170.724 M 319.607 178.582 C 318.526 181.399, 318.947 182, 322 182 C 324.533 182, 325 181.611, 325 179.500 C 325 177.530, 324.493 177, 322.607 177 C 321.291 177, 319.941 177.712, 319.607 178.582 M 327 180 C 327 182.833, 326.778 183, 323 183 C 318.865 183, 318.133 183.733, 320.200 185.800 C 321.107 186.707, 321.113 187, 320.223 187 C 319.576 187, 318.358 188.050, 317.517 189.334 C 316.136 191.441, 316.150 191.993, 317.656 195.011 C 318.573 196.850, 319.917 199.063, 320.643 199.928 C 321.368 200.792, 322.577 202.356, 323.329 203.403 C 325.149 205.935, 327.185 204.584, 326.380 201.377 C 325.880 199.385, 326.184 198.765, 327.876 198.322 C 329.044 198.017, 330 197.369, 330 196.883 C 330 196.398, 330.675 196, 331.500 196 C 332.325 196, 333 196.478, 333 197.063 C 333 198.353, 337.206 197.900, 338.235 196.500 C 339.542 194.720, 339.052 189.957, 337.500 189.362 C 335.614 188.638, 335.573 186.570, 337.409 184.734 C 339.174 182.969, 338.113 181.086, 335.486 181.322 C 334.120 181.444, 333.401 180.798, 333.181 179.250 C 332.932 177.501, 332.208 177, 329.930 177 C 327.341 177, 327 177.349, 327 180 M 411.810 196.500 C 412.082 198.827, 411.806 200, 410.987 200 C 410.034 200, 410.023 200.323, 410.938 201.425 C 411.874 202.553, 411.587 203.694, 409.559 206.906 C 406.888 211.137, 406.396 217.477, 408.580 219.500 C 409.174 220.050, 410.246 222.373, 410.961 224.662 C 412.020 228.049, 413.149 229.307, 417.016 231.412 C 419.631 232.836, 422.696 234, 423.826 234 C 426.302 234, 427.199 235.294, 427.964 239.966 C 428.387 242.552, 429.073 243.539, 430.521 243.644 C 431.609 243.723, 432.725 243.885, 433 244.003 C 434.493 244.648, 440 244.654, 440 244.011 C 440 243.595, 441.699 242.984, 443.776 242.652 C 448.291 241.930, 452.064 239.416, 450.353 238.269 C 448.756 237.197, 447.118 230.196, 447.483 226 C 447.651 224.075, 447.129 221.454, 446.322 220.176 C 445.169 218.347, 445.088 217.185, 445.943 214.733 C 446.947 211.854, 446.761 211.339, 443.515 208.015 C 441.582 206.036, 439.982 203.985, 439.959 203.458 C 439.896 201.971, 426.170 193.777, 424.977 194.514 C 424.395 194.874, 424.172 195.967, 424.482 196.943 C 424.793 197.924, 424.364 199.283, 423.523 199.981 C 422.685 200.676, 422 200.879, 422 200.431 C 422 199.984, 421.339 200.491, 420.532 201.559 C 419.203 203.315, 419.061 203.333, 419.032 201.750 C 418.996 199.765, 417.908 199.492, 416.327 201.073 C 414.987 202.413, 413.625 197.756, 414.527 194.915 C 414.978 193.495, 414.652 193, 413.268 193 C 411.724 193, 411.472 193.604, 411.810 196.500 M 407.356 194.806 C 406 194.999, 405.040 196.010, 404.745 197.556 C 404.260 200.092, 404.915 200.651, 406.550 199.097 C 407.072 198.600, 408.226 198.038, 409.113 197.847 C 411.557 197.321, 409.894 194.444, 407.356 194.806 M 406.750 201.438 C 404.872 202.814, 404.386 206.503, 405.956 207.473 C 407.418 208.376, 410.308 203.372, 409.330 201.632 C 408.644 200.412, 408.196 200.379, 406.750 201.438 M 332.236 217.833 C 331.241 218.464, 331.338 219.368, 332.690 222.068 C 333.635 223.956, 334.475 227.993, 334.557 231.040 C 334.638 234.087, 335.221 237.545, 335.852 238.724 C 337.841 242.441, 337.198 246.866, 334.095 250.809 C 331.316 254.340, 329.416 260.076, 328.296 268.316 L 327.777 272.132 331.274 271.476 C 333.413 271.075, 335.033 271.244, 335.444 271.910 C 335.860 272.582, 340.048 273, 346.359 273 C 352.515 273, 357.042 273.442, 357.707 274.107 C 358.938 275.338, 373.470 275.863, 374.615 274.718 C 375.015 274.319, 374.364 272.952, 373.171 271.682 C 371.268 269.657, 371 268.235, 371 260.186 L 371 251 374.893 251 C 379.028 251, 380 249.923, 380 245.342 C 380 243.068, 379.668 242.875, 376.250 243.170 C 372.027 243.534, 372.424 244.463, 371.376 231.750 C 370.797 224.729, 370.538 223.999, 368.618 223.986 C 367.453 223.979, 365.524 223.711, 364.332 223.391 C 362.609 222.929, 362.096 223.291, 361.832 225.155 C 361.534 227.258, 360.984 227.500, 356.500 227.500 L 351.500 227.500 349.500 222.261 L 347.500 217.022 340.500 217.026 C 336.650 217.029, 332.931 217.392, 332.236 217.833 M 405 229.726 C 402.561 230.648, 401.736 232.951, 401.439 239.652 C 401.158 246.004, 401.801 247.417, 405 247.474 C 405.825 247.488, 406.455 248.063, 406.400 248.750 C 406.345 249.438, 406.233 251.083, 406.150 252.406 C 405.950 255.618, 403.235 254.901, 398.428 250.367 C 396.438 248.491, 394.291 247.019, 393.655 247.096 C 390.684 247.458, 388.020 246.877, 386.728 245.585 C 384.028 242.885, 381.544 244.149, 381 248.500 C 380.513 252.400, 380.393 252.508, 376.250 252.807 L 372 253.115 372 260.870 C 372 268.046, 372.208 268.825, 374.781 271.290 C 376.583 273.017, 378.606 273.928, 380.531 273.880 C 382.164 273.839, 385.487 274.412, 387.916 275.153 C 391.711 276.310, 392.401 276.297, 392.814 275.057 C 393.638 272.587, 403.446 264, 405.444 264 C 406.219 264, 406.999 263.251, 407.177 262.336 C 407.368 261.349, 409.534 259.998, 412.500 259.015 C 417.136 257.479, 417.569 257.054, 418.442 253.179 C 418.960 250.881, 419.734 249, 420.161 249 C 420.588 249, 420.694 248.366, 420.397 247.591 C 420.099 246.816, 420.320 244.502, 420.887 242.448 C 422.306 237.306, 421.088 235.512, 413.770 231.967 C 407.296 228.831, 407.337 228.841, 405 229.726 M 422.948 237.689 C 423.695 239.236, 423.691 240.073, 422.934 240.541 C 422.344 240.905, 421.959 242.845, 422.079 244.852 C 422.198 246.858, 421.705 249.741, 420.984 251.259 C 419.897 253.541, 419.901 254.447, 421.005 256.509 C 422.459 259.227, 422.840 259.387, 424.835 258.123 C 425.885 257.458, 425.942 256.449, 425.103 253.411 C 424.516 251.285, 424.290 247.286, 424.600 244.523 C 425.027 240.724, 424.766 239.013, 423.527 237.500 C 421.915 235.531, 421.906 235.534, 422.948 237.689 M 449.203 242.570 C 447.970 243.434, 445.938 244.250, 444.688 244.383 C 443.438 244.516, 441.900 244.944, 441.270 245.333 C 440.640 245.723, 437.915 245.963, 435.215 245.867 C 432.514 245.772, 429.786 246.014, 429.152 246.406 C 427.212 247.605, 427.867 252.911, 430.419 256.666 C 432.297 259.430, 432.710 261.038, 432.267 263.863 C 431.953 265.863, 431.132 267.836, 430.441 268.248 C 429.751 268.659, 429.422 269.896, 429.710 270.998 C 430.529 274.130, 427.691 273.440, 425.668 270.014 C 424.411 267.887, 424.093 266.019, 424.563 263.514 C 425.143 260.423, 424.976 260, 423.170 260 C 422.042 260, 420.860 259.582, 420.544 259.071 C 420.213 258.536, 417.473 258.985, 414.093 260.126 C 406.770 262.599, 406.831 264.676, 414.309 267.565 C 419.031 269.389, 419.485 269.838, 419.333 272.535 C 418.447 288.275, 417.904 290.548, 413.653 296.318 C 411.689 298.984, 411.450 300.067, 412.180 303 C 412.658 304.925, 413.031 309.538, 413.008 313.250 C 412.980 317.640, 413.362 320, 414.099 320 C 414.723 320, 415.015 319.164, 414.747 318.142 C 413.963 315.142, 415.804 313.061, 421.453 310.563 C 426.342 308.401, 426.792 307.917, 427.214 304.359 C 427.466 302.237, 427.021 297.250, 426.226 293.278 L 424.780 286.056 428.140 283.295 C 429.988 281.777, 432.850 279.119, 434.500 277.388 C 436.150 275.658, 439.585 273.175, 442.133 271.871 C 447.221 269.267, 452.118 264.077, 452.121 261.285 C 452.133 252.142, 451.899 241, 451.697 241 C 451.558 241, 450.436 241.707, 449.203 242.570 M 426.583 263.215 C 426.700 269.218, 426.756 269.305, 429.076 267.143 C 431.770 264.634, 431.406 259.629, 428.500 259.215 C 426.756 258.967, 426.511 259.480, 426.583 263.215 M 402.667 266.667 C 402.300 267.033, 402 268.086, 402 269.006 C 402 269.926, 400.812 271.220, 399.361 271.881 C 397.909 272.543, 395.833 274.214, 394.746 275.596 C 393.156 277.618, 392.206 277.985, 389.885 277.475 C 388.298 277.126, 387 277.124, 387 277.470 C 387 279.250, 390.251 283.972, 392.936 286.093 C 394.742 287.520, 395.986 289.437, 395.991 290.802 C 395.997 292.457, 396.843 293.398, 399 294.150 C 400.650 294.725, 402 295.602, 402 296.098 C 402 296.594, 403.947 297, 406.326 297 C 410.838 297, 415 294.066, 415 290.886 C 415 290.068, 415.405 288.973, 415.899 288.450 C 416.394 287.928, 417.111 283.841, 417.493 279.370 L 418.187 271.240 414.940 269.620 C 413.154 268.729, 410.888 268, 409.905 268 C 408.922 268, 407.840 267.550, 407.500 267 C 406.802 265.870, 403.679 265.655, 402.667 266.667 M 328 274.819 C 328 275.644, 330.475 281.410, 333.500 287.631 C 337.764 296.399, 339.009 300.016, 339.040 303.721 C 339.100 310.939, 341.355 322.366, 343.307 325.345 C 344.813 327.645, 345.299 327.830, 347.012 326.761 C 348.697 325.708, 349.209 325.853, 350.548 327.765 C 352.268 330.221, 355.592 330.627, 358.134 328.693 C 359.463 327.681, 359.906 324.509, 360.505 311.724 C 361.162 297.722, 361.433 296, 362.985 296 C 364.893 296, 366 290.854, 366 281.990 L 366 277.260 361.376 276.739 C 358.833 276.452, 356.471 275.772, 356.126 275.228 C 355.782 274.683, 349.313 274.031, 341.750 273.777 C 329.983 273.383, 328 273.534, 328 274.819 M 381.167 278.062 C 379.884 278.576, 377.744 278.723, 376.411 278.388 C 375.078 278.054, 372.415 278.075, 370.493 278.435 L 367 279.091 367 288.045 C 367 296.165, 366.823 297, 365.107 297 C 364.066 297, 362.941 297.712, 362.607 298.582 C 361.480 301.518, 362.053 309.486, 363.532 311.441 C 364.339 312.509, 365 314.871, 365 316.691 C 365 319.009, 365.463 320, 366.545 320 C 368.174 320, 371.725 316.713, 373.631 313.441 C 374.713 311.584, 374.889 311.573, 377.705 313.202 C 380.727 314.951, 385 314.640, 385 312.671 C 385 312.068, 386.121 310.433, 387.491 309.038 C 388.861 307.642, 390.998 305.370, 392.241 303.989 C 393.483 302.608, 395.850 300.442, 397.500 299.176 C 399.150 297.910, 400.001 296.661, 399.392 296.401 C 397.176 295.455, 395.103 293.466, 394.805 292 C 394.637 291.175, 393.109 289.150, 391.409 287.500 C 389.709 285.850, 387.520 282.813, 386.545 280.750 C 384.625 276.688, 384.611 276.681, 381.167 278.062 M 400.458 299.259 C 395.978 301.982, 392 305.442, 392 306.615 C 392 307.297, 390.946 308.684, 389.659 309.696 C 388.371 310.709, 386.756 312.587, 386.071 313.868 C 384.810 316.223, 382.466 316.404, 376.500 314.606 C 374.985 314.150, 374.012 314.791, 372.487 317.252 C 370.872 319.857, 369.716 320.563, 366.643 320.816 C 362.918 321.123, 362.828 321.054, 363.404 318.316 C 363.730 316.767, 363.609 314.898, 363.135 314.163 C 362.595 313.323, 362.091 315.674, 361.783 320.481 C 361.199 329.574, 359.828 331.524, 354.259 331.174 C 352.192 331.044, 349.981 330.250, 349.346 329.409 C 346.136 325.157, 347.810 334.865, 351.525 342.048 C 352.674 344.271, 353.016 346.497, 352.604 349.075 C 352.103 352.210, 352.449 353.380, 354.654 356 C 356.648 358.370, 357.827 358.993, 359.403 358.509 C 365.342 356.683, 369.988 355.778, 374.500 355.568 C 384.142 355.118, 387.697 353.922, 393.652 349.123 C 396.819 346.573, 400.896 342.464, 402.713 339.993 C 404.531 337.522, 407.620 333.587, 409.579 331.250 C 413.200 326.928, 415.699 321, 413.899 321 C 413.370 321, 412.678 321.675, 412.362 322.500 C 411.565 324.575, 409.649 324.375, 407.491 321.990 C 405.905 320.237, 405.843 319.662, 407.005 317.490 C 407.738 316.121, 409.205 315, 410.265 315 C 411.972 315, 412.133 314.455, 411.668 310.250 C 410.730 301.763, 409.864 299.001, 408.137 298.986 C 407.236 298.979, 405.600 298.758, 404.500 298.495 C 403.400 298.232, 401.581 298.576, 400.458 299.259 M 408.452 318.152 C 407.604 320.823, 409.683 323.116, 411.026 320.992 C 412.384 318.844, 412.214 317.296, 410.551 316.658 C 409.661 316.317, 408.851 316.893, 408.452 318.152 M 392.091 331.577 C 389.128 334.070, 389.077 334.249, 390.540 337.077 C 391.949 339.801, 395 341.163, 395 339.067 C 395 338.554, 395.789 337.884, 396.752 337.579 C 397.716 337.273, 399.097 336.074, 399.821 334.915 C 400.944 333.118, 400.884 332.529, 399.413 330.904 C 397.124 328.374, 395.747 328.501, 392.091 331.577 M 393.594 332.315 C 391.089 334.820, 390.924 338.720, 393.373 337.543 C 393.993 337.245, 395.256 336.732, 396.181 336.402 C 398.585 335.545, 399.319 332.890, 397.621 331.193 C 396.351 329.923, 395.845 330.064, 393.594 332.315" stroke="none" fill="#8da5bc" fill-rule="evenodd"/></svg>