<svg xmlns="http://www.w3.org/2000/svg" width="394" height="300" viewBox="0 0 394 300" version="1.1">
<path d="M 239.527 56.873 C 236.947 57.426, 235.083 59.510, 233.732 63.351 C 233.567 63.819, 230.787 64.359, 227.552 64.552 C 222.877 64.831, 221.091 64.489, 218.839 62.885 C 216.318 61.090, 215.621 61.008, 212.503 62.135 C 210.542 62.844, 209 64.087, 209 64.958 C 209 66.189, 208.059 66.440, 204.500 66.157 C 200.926 65.872, 200 66.122, 200 67.368 C 200 68.292, 199.432 68.719, 198.618 68.407 C 196.844 67.726, 191.597 72.539, 192.507 74.012 C 193.336 75.352, 190.316 78.917, 187.411 80.029 C 185.801 80.645, 185.418 81.485, 185.741 83.687 C 186.035 85.689, 185.535 87.111, 184.072 88.435 C 182.071 90.246, 182.057 90.408, 183.742 92.332 C 185.419 94.247, 185.419 94.310, 183.741 93.698 C 181.412 92.848, 177.362 94.455, 176.156 96.708 C 174.854 99.142, 176.766 109.086, 178.879 110.865 C 180.102 111.895, 180.187 112.347, 179.222 112.707 C 178.364 113.028, 178.143 114.243, 178.548 116.407 C 178.977 118.689, 178.693 120.010, 177.576 120.937 C 176.709 121.656, 176 123.090, 176 124.122 C 176 125.155, 175.316 126, 174.481 126 C 171.513 126, 175.394 134.924, 181.294 141.665 C 183.164 143.802, 183.158 143.849, 180.844 145.311 C 177.405 147.484, 174.258 148.227, 173.525 147.041 C 173.171 146.468, 173.359 146, 173.941 146 C 174.523 146, 175 145.325, 175 144.500 C 175 143.675, 174.269 143, 173.375 143 C 172.129 143, 171.880 142.348, 172.309 140.203 C 172.617 138.665, 172.545 136.881, 172.149 136.241 C 171.241 134.771, 167.317 135.732, 166.601 137.599 C 166.305 138.369, 165.014 139, 163.731 139 C 162.449 139, 160.860 139.540, 160.200 140.200 C 158.462 141.938, 158.673 150.036, 160.491 151.390 C 161.311 152, 162.137 153.964, 162.328 155.754 C 162.519 157.544, 162.946 159.279, 163.277 159.610 C 164.574 160.908, 161.517 162.542, 158.461 162.185 C 156.687 161.978, 154.932 162.302, 154.559 162.904 C 154.187 163.507, 152.645 164, 151.132 164 C 149.620 164, 147.528 164.625, 146.483 165.389 C 145.438 166.153, 144.045 166.571, 143.387 166.318 C 142.696 166.053, 141.918 167.097, 141.546 168.789 C 140.738 172.471, 136.005 177.385, 131.750 178.961 C 126.272 180.990, 125.511 181.609, 125.189 184.293 C 124.954 186.252, 124.020 187.168, 121.369 188.043 C 119.439 188.680, 117.618 189.831, 117.323 190.601 C 116.621 192.431, 111.372 192.413, 110.668 190.578 C 110.328 189.692, 109.324 189.364, 108.005 189.709 C 106.526 190.096, 106.089 190.752, 106.557 191.881 C 108.436 196.420, 108.301 197, 105.367 196.985 C 103.790 196.976, 101.892 196.584, 101.150 196.114 C 99.741 195.221, 92.094 196.526, 90.713 197.895 C 90.280 198.323, 90.357 199.809, 90.885 201.197 C 91.611 203.108, 92.796 203.872, 95.771 204.347 C 100.082 205.037, 105 208.342, 105 210.550 C 105 211.322, 106.085 212.665, 107.411 213.533 C 109.666 215.011, 109.797 215.592, 109.446 222.557 C 109.239 226.651, 108.599 230.882, 108.023 231.958 C 106.883 234.086, 105.311 234.089, 81.654 232.004 C 71.878 231.142, 69 231.393, 69 233.107 C 69 233.598, 68.357 234, 67.571 234 C 66.786 234, 65.442 234.701, 64.586 235.557 C 63.261 236.882, 63.228 237.441, 64.362 239.307 C 65.229 240.732, 65.636 244.334, 65.524 249.596 C 65.387 256.078, 64.899 258.428, 63.076 261.377 C 60.634 265.329, 60.844 270, 63.463 270 C 64.754 270, 64.844 273.659, 63.691 279.286 C 63.445 280.486, 70.958 280.864, 73.250 279.767 C 75.650 278.619, 78.634 280.404, 79.397 283.445 C 79.742 284.818, 80.961 286.444, 82.106 287.057 C 83.796 287.961, 84.595 287.800, 86.344 286.201 C 89.097 283.684, 91.047 283.154, 98.853 282.804 C 104.447 282.553, 105.436 282.197, 107.124 279.826 C 108.178 278.345, 110.044 276.991, 111.270 276.817 C 112.689 276.615, 113.615 275.689, 113.817 274.270 C 113.991 273.043, 115.229 271.179, 116.567 270.126 C 118.985 268.224, 119.815 266, 118.107 266 C 117.616 266, 116.928 265.255, 116.579 264.345 C 115.931 262.655, 120.483 255, 122.136 255 C 122.611 255, 123 254.386, 123 253.636 C 123 252.886, 124.999 251.508, 127.442 250.575 C 129.885 249.642, 133.074 247.943, 134.527 246.800 C 136.781 245.027, 137.075 244.215, 136.526 241.285 C 136.132 239.186, 136.341 237.294, 137.063 236.424 C 138.563 234.617, 143.354 234.625, 148.500 236.443 C 151.967 237.668, 152.767 237.664, 154.500 236.408 C 155.600 235.611, 158.412 234.084, 160.750 233.015 C 163.088 231.946, 165 230.653, 165 230.143 C 165 228.326, 168.085 228.073, 171.336 229.623 C 174.693 231.224, 178.063 237.146, 176.007 237.831 C 175.453 238.016, 175 238.609, 175 239.151 C 175 239.692, 175.794 239.883, 176.765 239.574 C 177.963 239.194, 180.557 240.781, 184.829 244.507 C 188.293 247.528, 191.828 250, 192.684 250 C 194.893 250, 202.920 255.256, 202.963 256.731 C 202.984 257.408, 204.141 258.248, 205.536 258.598 C 208.533 259.351, 211.644 265.519, 210.016 267.481 C 209.467 268.143, 209.241 268.908, 209.514 269.181 C 210.401 270.067, 199.629 271.955, 195 271.724 C 191.012 271.525, 190.464 271.756, 190.180 273.754 C 189.970 275.233, 190.486 276.221, 191.680 276.625 C 195.399 277.884, 202.007 281.203, 202.553 282.087 C 202.864 282.589, 203.983 283, 205.040 283 C 207.028 283, 208.179 280.226, 207.737 276.500 C 207.565 275.052, 208.179 274.405, 209.961 274.153 C 212.672 273.770, 214.919 271.398, 214.968 268.867 C 214.986 267.968, 215.902 266.997, 217.004 266.709 C 219.221 266.130, 218.852 263.418, 216.272 261.326 C 215.476 260.680, 214.987 259.330, 215.187 258.326 C 215.663 255.928, 219.734 256.450, 221.955 259.193 C 223.371 260.942, 223.745 261.012, 224.810 259.729 C 225.483 258.918, 225.787 257.607, 225.483 256.818 C 224.888 255.266, 215.857 249.586, 212.353 248.560 C 210.822 248.111, 210.353 247.366, 210.719 245.965 C 211.159 244.285, 210.720 244, 207.693 244 C 203.543 244, 198.880 240.540, 197.038 236.093 C 196.367 234.471, 194.083 231.997, 191.964 230.595 C 188.569 228.348, 188.138 227.619, 188.340 224.465 C 188.631 219.916, 193 216.553, 193 220.878 C 193 223.130, 195.494 225.431, 196.956 224.527 C 197.530 224.172, 198 224.359, 198 224.941 C 198 225.523, 198.405 226, 198.900 226 C 199.395 226, 201.348 227.462, 203.239 229.250 C 212.143 237.665, 214 239.201, 214 238.153 C 214 236.808, 224.743 242.413, 227.250 245.065 C 228.416 246.299, 229 248.517, 229 251.711 C 229 255.759, 229.475 256.954, 232.046 259.381 C 234.978 262.148, 235.146 262.186, 236.526 260.378 C 237.314 259.345, 238.529 257.262, 239.224 255.750 C 239.919 254.237, 241.252 253, 242.185 253 C 243.118 253, 244.167 252.538, 244.516 251.973 C 244.865 251.409, 245.679 251.038, 246.325 251.149 C 246.971 251.260, 249.525 250.766, 252 250.052 C 255.016 249.182, 257.654 249.042, 260 249.627 C 265.118 250.903, 268.421 250.237, 269.532 247.705 C 270.276 246.010, 271.346 245.500, 274.155 245.500 C 278.372 245.500, 279.733 244.590, 278.231 242.774 C 276.880 241.140, 277.845 235.997, 279.632 235.311 C 280.385 235.022, 281 233.455, 281 231.827 C 281 228.122, 282.616 225, 284.535 225 C 285.484 225, 286 223.981, 286 222.106 C 286 220.292, 287.083 218.052, 288.901 216.106 C 291.811 212.991, 295.218 211.910, 294.750 214.250 C 294.584 215.081, 296.318 215.668, 299.924 216 C 305.308 216.496, 305.329 216.511, 302.651 217.931 C 299.313 219.703, 299.696 221.195, 303.793 222.369 C 306.154 223.047, 306.876 223.790, 306.714 225.381 C 306.449 228, 310.347 228.861, 312.832 226.732 C 315.280 224.636, 318.140 223.684, 321.250 223.932 C 323.179 224.085, 324 223.680, 324 222.575 C 324 219.834, 323.579 219.500, 320.127 219.500 C 317.770 219.500, 316.316 218.842, 315.299 217.316 C 313.939 215.276, 314.043 215.029, 316.872 213.566 C 318.538 212.705, 320.711 211.997, 321.700 211.994 C 322.690 211.990, 324.789 211.315, 326.364 210.494 C 327.940 209.672, 329.852 209, 330.614 209 C 331.376 209, 332 208.148, 332 207.107 C 332 205.148, 333.838 204, 336.975 204 C 338.985 204, 340.387 201.434, 339.320 199.708 C 338.942 199.097, 338.734 196.883, 338.857 194.789 C 339.054 191.453, 338.737 190.848, 336.291 189.902 C 334.756 189.308, 332.825 188.680, 332 188.505 C 326.978 187.442, 324.366 186.509, 323.226 185.369 C 322.329 184.472, 321.207 184.351, 319.569 184.974 C 318.269 185.468, 316.934 185.601, 316.602 185.269 C 316.271 184.937, 315.069 184.597, 313.932 184.513 C 312.795 184.430, 311.322 183.267, 310.659 181.931 C 309.911 180.422, 308.419 179.380, 306.727 179.184 C 304.911 178.973, 304 178.279, 304 177.108 C 304 173.889, 299.672 170.875, 295.643 171.288 C 293.642 171.494, 291.704 171.963, 291.336 172.331 C 290.084 173.583, 289.149 173.005, 287.687 170.075 C 286.552 167.799, 286.518 167.262, 287.536 167.652 C 289.111 168.256, 293 166.328, 293 164.943 C 293 164.400, 290.919 162.636, 288.376 161.024 C 283.265 157.782, 281.619 155.822, 280.647 151.817 C 280.020 149.235, 277.869 147.884, 273.500 147.328 C 267.839 146.609, 265.125 145.639, 264.602 144.150 C 264.284 143.242, 263.178 141.150, 262.145 139.500 C 261.112 137.850, 260.470 136.143, 260.719 135.707 C 260.968 135.271, 259.985 133.358, 258.535 131.457 C 256.555 128.861, 256.276 128, 257.414 128 C 259.273 128, 261.418 124.376, 260.057 123.535 C 259.536 123.213, 255.359 122.865, 250.775 122.762 C 241.886 122.562, 236 124.148, 236 126.744 C 236 127.943, 235.708 128.002, 234.548 127.040 C 233.749 126.377, 232.174 126.127, 231.048 126.485 C 228.747 127.215, 228.366 128.577, 230.250 129.338 C 231.250 129.741, 231.250 129.858, 230.250 129.921 C 228.658 130.022, 228.625 133.225, 230.200 134.800 C 231.133 135.733, 231.031 136, 229.740 136 C 226.979 136, 225.446 142.950, 226.990 148.466 C 228.258 152.993, 228.657 153.306, 234.303 154.211 C 235.294 154.370, 236.194 154.950, 236.303 155.500 C 236.420 156.093, 232.720 156.617, 227.217 156.788 C 219.721 157.020, 217.621 156.764, 216.313 155.456 C 214.425 153.568, 209.895 154.106, 203.500 156.977 C 201.300 157.965, 197.980 159.098, 196.123 159.494 C 193.216 160.114, 192.451 159.846, 190.623 157.562 L 188.500 154.909 183.500 157.450 C 177.981 160.255, 177 160.487, 177 158.984 C 177 158.425, 178.578 157.215, 180.507 156.295 C 183.260 154.982, 183.881 154.200, 183.392 152.660 C 182.882 151.054, 183.108 150.829, 184.635 151.423 C 186.842 152.281, 186.746 152.269, 190.250 152.118 C 192.285 152.031, 193 151.485, 193 150.019 C 193 148.663, 193.867 147.859, 195.750 147.469 C 203.914 145.779, 204.428 145.490, 205.418 142.037 C 206.134 139.542, 206.075 138.525, 205.197 138.232 C 204.539 138.013, 204 136.125, 204 134.038 C 204 130.757, 204.410 130.073, 207.026 128.989 C 210.491 127.554, 214.434 122.574, 213.674 120.593 C 213.392 119.858, 211.149 118.282, 208.690 117.092 C 201.027 113.382, 202.226 106.223, 211.500 100.314 C 220.155 94.800, 222.597 92.424, 221.262 90.816 C 220.337 89.702, 220.575 88.838, 222.387 86.730 C 224.441 84.339, 225.278 84.086, 230.312 84.332 C 233.408 84.484, 236.225 84.891, 236.571 85.238 C 237.302 85.969, 235.888 87.869, 231 92.721 C 225.861 97.823, 224.437 99, 223.407 99 C 222.898 99, 221.892 99.943, 221.172 101.096 C 220.068 102.865, 220.132 103.759, 221.587 106.824 C 222.534 108.821, 223.249 112.041, 223.174 113.978 C 223.046 117.281, 223.331 117.620, 227.769 119.426 C 230.371 120.486, 232.725 121.678, 233 122.077 C 233.275 122.475, 236.875 121.953, 241 120.918 C 245.125 119.883, 250.654 118.743, 253.286 118.384 C 257.488 117.812, 258.998 116.850, 265.664 110.501 C 270.014 106.358, 273.062 102.678, 272.800 101.885 C 272.550 101.123, 270.789 99.600, 268.887 98.500 C 266.606 97.181, 265.552 95.903, 265.789 94.747 C 265.986 93.783, 265.440 92.722, 264.574 92.390 C 263.708 92.058, 263 91.352, 263 90.822 C 263 90.291, 262.325 89.182, 261.499 88.356 C 260.626 87.484, 260.229 85.937, 260.549 84.662 C 260.946 83.080, 260.250 81.656, 258.054 79.552 C 255.119 76.739, 255.068 76.546, 256.637 74.151 C 258.161 71.824, 258.145 71.579, 256.382 70.290 C 255.347 69.533, 253.446 68.649, 252.159 68.325 C 249.788 67.730, 249.624 66.160, 251.475 61.759 C 252.061 60.366, 251.270 59.616, 247.521 58.009 C 244.943 56.904, 242.759 56.053, 242.667 56.118 C 242.575 56.183, 241.162 56.523, 239.527 56.873 M 239 58.891 C 237.499 59.306, 236.376 60.436, 236.190 61.718 C 235.679 65.242, 233.328 66.353, 226.691 66.208 C 221.356 66.092, 220.882 66.218, 223.265 67.125 C 226.061 68.188, 230.280 75.409, 230.429 79.386 C 230.504 81.382, 231.787 82.394, 236.250 83.976 C 238.266 84.691, 239 85.624, 239 87.475 C 239 88.864, 238.514 90, 237.921 90 C 237.328 90, 234.255 92.250, 231.093 95 C 227.932 97.750, 224.848 100, 224.240 100 C 222.267 100, 221.822 103.936, 223.430 107.161 C 224.294 108.891, 225 111.544, 225 113.056 C 225 115.211, 225.648 116.030, 228 116.850 C 229.650 117.425, 231 118.297, 231 118.786 C 231 120.011, 240.236 119.604, 247.500 118.060 C 250.800 117.358, 254.436 116.618, 255.579 116.416 C 258.051 115.978, 271 104.366, 271 102.587 C 271 101.908, 269.313 100.450, 267.250 99.348 C 264.773 98.025, 263.559 96.707, 263.673 95.466 C 263.769 94.433, 262.723 92.546, 261.350 91.273 C 259.562 89.617, 258.941 88.127, 259.161 86.029 C 259.385 83.892, 258.682 82.277, 256.565 80.068 C 253.918 77.305, 253.772 76.796, 254.911 74.296 C 255.598 72.787, 255.787 71.427, 255.330 71.273 C 254.874 71.118, 253.059 70.114, 251.299 69.040 C 248.159 67.126, 247.858 65.943, 249.475 61.869 C 249.954 60.664, 249.285 59.946, 246.912 59.119 C 243.390 57.891, 242.687 57.871, 239 58.891 M 214.550 63.888 C 215.072 64.376, 216.621 65.116, 217.992 65.532 C 220.223 66.209, 220.341 66.116, 219.120 64.644 C 218.369 63.740, 216.820 63, 215.678 63 C 214.421 63, 213.975 63.351, 214.550 63.888 M 211 66.061 C 211 67.928, 210.588 68.061, 206.642 67.469 C 203.171 66.949, 202.160 67.139, 201.674 68.408 C 201.338 69.284, 199.939 70, 198.567 70 C 196.176 70, 193.656 72.815, 194.236 74.836 C 194.568 75.990, 189.330 82, 187.992 82 C 187.447 82, 187 83.025, 187 84.277 C 187 85.530, 186.299 87.555, 185.443 88.777 C 184.571 90.023, 184.351 91, 184.943 91 C 185.524 91, 186 91.900, 186 93 C 186 94.596, 185.333 95, 182.700 95 C 180.885 95, 178.860 95.540, 178.200 96.200 C 176.712 97.688, 176.618 103.646, 178.068 104.542 C 178.656 104.905, 178.859 105.926, 178.519 106.810 C 178.132 107.819, 178.740 109.050, 180.152 110.115 C 181.923 111.450, 182.155 112.108, 181.243 113.208 C 180.605 113.976, 180.348 115.615, 180.671 116.850 C 181.071 118.381, 180.547 119.853, 179.024 121.474 C 177.796 122.782, 177.067 124.299, 177.404 124.845 C 177.742 125.392, 177.321 126.536, 176.468 127.389 C 175.083 128.774, 175.078 129.249, 176.416 131.837 C 177.239 133.430, 179.521 136.840, 181.486 139.414 C 183.452 141.989, 184.833 144.460, 184.557 144.907 C 184.281 145.354, 184.606 146.904, 185.278 148.352 C 186.157 150.246, 187.263 150.987, 189.219 150.992 C 191.082 150.998, 191.775 150.578, 191.423 149.660 C 190.684 147.735, 193.351 145.885, 197.014 145.781 C 199.363 145.714, 200.396 145.088, 201.066 143.327 C 202.420 139.764, 202.497 130.925, 201.180 130.111 C 200.536 129.713, 201.983 128.885, 204.491 128.214 C 207.655 127.367, 208.788 126.611, 208.401 125.601 C 208.070 124.741, 208.673 123.921, 209.928 123.523 C 211.067 123.161, 212 122.478, 212 122.005 C 212 120.769, 206.986 117, 205.340 117 C 203.308 117, 201.854 112.294, 202.622 108.202 C 203.424 103.925, 207.116 100.106, 213.221 97.236 C 217.902 95.036, 219.049 93.476, 219.508 88.692 C 219.859 85.022, 222.550 83.090, 227.500 82.953 C 229.700 82.892, 230.938 82.615, 230.250 82.338 C 229.563 82.060, 229 80.703, 229 79.321 C 229 76.526, 226.309 71.144, 224 69.321 C 223.175 68.670, 220.576 67.594, 218.224 66.931 C 215.873 66.268, 213.709 65.337, 213.415 64.863 C 212.431 63.270, 211 63.980, 211 66.061 M 240 125.264 C 238.625 125.885, 237.351 126.491, 237.169 126.611 C 236.128 127.296, 239.391 131, 241.035 131 C 242.116 131, 243 131.450, 243 132 C 243 132.550, 244.238 133.003, 245.750 133.006 C 247.262 133.010, 249.789 133.685, 251.364 134.506 C 257.484 137.698, 260.377 135.790, 256.466 131.142 L 253.918 128.114 256.209 126.849 L 258.500 125.583 255.500 124.910 C 250.761 123.846, 242.734 124.030, 240 125.264 M 231 131 C 229.787 131.784, 229.931 131.972, 231.750 131.985 C 232.988 131.993, 234 131.550, 234 131 C 234 129.747, 232.939 129.747, 231 131 M 234.750 132.412 C 232.132 133.339, 230.960 135, 232.923 135 C 233.431 135, 235.222 136.157, 236.903 137.572 C 240.430 140.539, 241.898 140.123, 241.786 136.187 C 241.686 132.670, 238.639 131.035, 234.750 132.412 M 211.200 135.200 C 209.786 136.614, 209.674 138.937, 210.925 140.912 C 211.681 142.106, 212.074 142.069, 213.474 140.669 C 214.385 139.758, 215.335 137.885, 215.585 136.506 C 215.933 134.583, 215.616 134, 214.220 134 C 213.219 134, 211.860 134.540, 211.200 135.200 M 243.500 135 C 243.160 135.550, 243.172 136.470, 243.527 137.044 C 244.355 138.384, 242.203 141, 240.272 141 C 239.456 141, 237.498 139.914, 235.921 138.587 C 232.696 135.874, 229 136.125, 229 139.058 C 229 140.061, 228.550 141.160, 228 141.500 C 227.450 141.840, 227 142.654, 227 143.309 C 226.999 144.161, 229.777 144.451, 236.750 144.327 C 244.776 144.185, 247.296 144.523, 251 146.241 C 255.810 148.471, 259.464 148.689, 261.649 146.876 C 263.390 145.432, 263.353 144.496, 261.482 142.625 C 260.647 141.790, 260.085 140.534, 260.232 139.835 C 260.387 139.100, 258.810 138.098, 256.500 137.462 C 254.300 136.858, 251.233 135.831, 249.685 135.181 C 246.243 133.737, 244.316 133.680, 243.500 135 M 212.094 136.387 C 211.276 137.372, 211.234 138.026, 211.959 138.474 C 212.539 138.833, 213.292 138.404, 213.631 137.520 C 214.475 135.320, 213.547 134.636, 212.094 136.387 M 167.655 138.829 C 166.745 139.835, 166 141.149, 166 141.749 C 166 142.350, 164.612 143.146, 162.916 143.518 C 160.195 144.116, 159.909 144.500, 160.483 146.787 C 161.255 149.864, 164.748 155, 166.068 155 C 166.581 155, 167 153.923, 167 152.606 C 167 151.289, 168.284 148.837, 169.854 147.157 C 172.051 144.804, 172.378 143.975, 171.274 143.552 C 170.249 143.158, 170.029 142.147, 170.500 140.001 C 171.246 136.602, 170.099 136.129, 167.655 138.829 M 229.479 146.392 C 227.112 148.123, 229.052 151.756, 232.779 152.572 C 237.549 153.615, 238 153.899, 238 155.852 C 238 156.905, 238.787 158.048, 239.750 158.393 C 246.317 160.741, 246.852 160.768, 249.915 158.905 C 251.612 157.874, 253 156.496, 253 155.843 C 253 155.191, 253.736 153.844, 254.636 152.849 C 256.163 151.163, 256.112 150.908, 253.886 149.054 C 252.574 147.961, 250.787 147.052, 249.917 147.033 C 249.046 147.015, 248.093 146.760, 247.800 146.467 C 246.553 145.219, 231.169 145.156, 229.479 146.392 M 180 147.930 C 180 148.442, 179.058 149.005, 177.906 149.180 L 175.811 149.500 177.816 151.800 C 179.349 153.558, 180.012 153.794, 180.635 152.800 C 181.917 150.754, 182.175 147, 181.034 147 C 180.465 147, 180 147.419, 180 147.930 M 262 147.951 C 261.175 148.449, 259.720 149.096, 258.767 149.390 C 257.748 149.704, 257.265 150.527, 257.594 151.385 C 257.924 152.245, 257.300 153.305, 256.078 153.958 C 254.931 154.572, 254 156.066, 254 157.292 C 254 159.007, 253.092 159.796, 250.016 160.757 C 247.824 161.440, 245.357 162, 244.532 162 C 243.239 162, 243.269 162.495, 244.747 165.595 C 246.382 169.025, 246.377 169.251, 244.630 170.529 C 242.860 171.823, 242.864 171.937, 244.730 173.941 C 246.413 175.748, 247.073 175.871, 249.862 174.898 C 252.715 173.904, 258.725 174.265, 264 175.749 C 264.825 175.981, 268.941 176.594, 273.146 177.112 L 280.792 178.054 283.935 174.911 C 286.871 171.975, 286.980 171.619, 285.591 169.499 C 283.881 166.889, 284.393 166, 287.608 166 C 290.877 166, 291.547 164.159, 288.675 163.066 C 285.203 161.746, 279.467 155.555, 279.268 152.911 C 279.053 150.059, 277.217 148.850, 273.774 149.295 C 272.275 149.488, 270.925 149.314, 270.774 148.907 C 270.327 147.701, 263.625 146.970, 262 147.951 M 170.500 152 C 170.840 152.550, 171.541 153, 172.059 153 C 172.577 153, 173 152.550, 173 152 C 173 151.450, 172.298 151, 171.441 151 C 170.584 151, 170.160 151.450, 170.500 152 M 194 152.441 C 194 154.480, 195.960 155.440, 197.329 154.071 C 198.201 153.199, 198.119 152.687, 196.992 151.974 C 194.881 150.640, 194 150.777, 194 152.441 M 171 155.375 C 171 156.140, 171.900 157.002, 173 157.290 C 174.100 157.577, 175 157.513, 175 157.147 C 175 156.781, 174.100 155.919, 173 155.232 C 171.360 154.208, 171 154.233, 171 155.375 M 165 158.417 C 165 159.746, 165.563 161.060, 166.250 161.338 C 167.250 161.741, 167.250 161.858, 166.250 161.921 C 163.961 162.066, 163.508 162.291, 162.269 163.901 C 161.234 165.246, 160.892 165.278, 160.120 164.104 C 158.799 162.097, 156.001 163.531, 155.994 166.219 C 155.983 170.765, 153.954 176, 152.203 176 C 150.981 176, 150.524 176.798, 150.584 178.827 C 150.630 180.381, 151.035 182.248, 151.485 182.976 C 151.934 183.703, 152.426 185.863, 152.578 187.776 C 152.917 192.045, 153.561 192.725, 158 193.500 C 162.741 194.328, 163.319 195.159, 161.535 198.579 C 160.698 200.186, 160.010 202.014, 160.006 202.643 C 159.998 204.114, 162.762 205.195, 163.495 204.007 C 164.104 203.022, 168.037 203.328, 172 204.669 C 174.494 205.513, 176.816 205.460, 184.632 204.382 C 187.890 203.933, 188.669 203.452, 188.318 202.109 C 188.034 201.023, 188.802 199.909, 190.436 199.034 C 193.673 197.302, 193.621 196.944, 189.782 194.500 C 188.055 193.400, 185.858 191.085, 184.900 189.356 L 183.159 186.211 187.829 184.474 C 190.398 183.519, 192.928 182.346, 193.450 181.869 C 193.972 181.391, 195.258 181, 196.307 181 C 197.732 181, 198.031 180.557, 197.492 179.250 C 197.095 178.287, 196.404 175.972, 195.957 174.104 C 195.510 172.236, 194.614 170.379, 193.965 169.979 C 193.315 169.577, 193.066 168.369, 193.409 167.288 C 194.069 165.206, 191.269 161.588, 187.174 159.232 C 185.356 158.186, 184.456 158.230, 182.035 159.482 C 178.714 161.199, 173.544 161.547, 174.507 159.988 C 174.854 159.426, 173.776 158.705, 172.083 158.367 C 170.405 158.031, 169.277 157.361, 169.575 156.878 C 169.874 156.395, 168.966 156, 167.559 156 C 165.520 156, 165 156.491, 165 158.417 M 204.985 157.867 C 203.068 158.893, 200.063 160.049, 198.306 160.434 C 195.502 161.049, 195.075 161.583, 194.806 164.817 C 194.627 166.974, 195.035 168.921, 195.792 169.517 C 196.503 170.077, 197.192 171.652, 197.325 173.017 C 197.758 177.497, 200.878 182.026, 203.954 182.641 C 205.747 182.999, 207.044 184.019, 207.411 185.357 C 207.851 186.958, 208.213 187.169, 208.845 186.192 C 209.768 184.763, 215 185.542, 215 187.108 C 215 187.599, 215.752 188, 216.671 188 C 217.590 188, 219.182 188.760, 220.208 189.688 C 222.237 191.524, 223.479 191.784, 232.500 192.253 C 235.800 192.425, 239.366 192.966, 240.424 193.456 C 241.980 194.177, 242.227 194.033, 241.715 192.701 C 241.299 191.617, 242.298 189.767, 244.636 187.288 C 247.448 184.305, 247.958 183.207, 247.087 182.011 C 246.481 181.180, 245.490 179.375, 244.885 178 C 244.280 176.625, 243.330 174.633, 242.774 173.573 C 241.998 172.095, 242.163 171.354, 243.484 170.388 C 245.095 169.210, 245.057 168.834, 242.889 164.492 C 241.615 161.941, 240.249 159.654, 239.855 159.410 C 239.460 159.166, 233.842 158.818, 227.370 158.638 C 219.628 158.422, 215.471 157.914, 215.218 157.155 C 214.628 155.383, 208.876 155.783, 204.985 157.867 M 148.147 165.888 C 147.086 166.560, 147.042 167.210, 147.943 168.893 C 149.324 171.473, 148.579 173, 145.941 173 C 144.648 173, 144 172.312, 144 170.941 C 144 169.801, 143.546 169.162, 142.984 169.510 C 142.425 169.856, 142.189 170.497, 142.460 170.935 C 142.731 171.374, 142.094 172.510, 141.044 173.460 C 139.038 175.276, 139.292 178.209, 141.386 177.406 C 142.057 177.148, 144.289 177.640, 146.346 178.500 L 150.086 180.063 149.793 177.281 C 149.563 175.103, 149.879 174.564, 151.250 174.794 C 152.941 175.078, 153.451 174.027, 153.042 171.106 C 152.934 170.340, 153.397 169.373, 154.069 168.957 C 154.741 168.542, 155.015 167.481, 154.677 166.601 C 154.018 164.883, 150.362 164.484, 148.147 165.888 M 291.856 173.477 C 291.377 173.956, 287.590 174.787, 285.250 174.926 C 284.563 174.967, 284 176.174, 284 177.608 C 284 179.812, 283.650 180.130, 281.750 179.661 C 280.512 179.355, 276.350 178.826, 272.500 178.485 C 268.650 178.144, 263.925 177.448, 262 176.938 C 253.537 174.696, 244.423 176.823, 247.842 180.242 C 249.831 182.231, 249.120 185.028, 245.946 187.699 C 243.912 189.410, 242.990 191.013, 243.184 192.495 C 243.344 193.720, 242.845 195.482, 242.074 196.411 C 239.942 198.980, 242.294 200.535, 250.196 201.783 C 257.185 202.887, 260.474 202.556, 263 200.493 C 266.100 197.962, 270.021 197.847, 275.089 200.137 C 277.790 201.358, 280 202.792, 280 203.325 C 280 203.858, 281.575 206.216, 283.500 208.565 C 285.425 210.915, 287 213.098, 287 213.418 C 287 213.738, 285.762 214.003, 284.250 214.006 C 282.250 214.011, 281.039 214.823, 279.809 216.984 C 278.879 218.618, 278.429 220.138, 278.809 220.360 C 279.847 220.969, 284 219.199, 284 218.149 C 284 217.645, 284.898 216.999, 285.995 216.712 C 287.092 216.425, 288.297 215.360, 288.672 214.345 C 289.047 213.330, 289.837 212.169, 290.427 211.765 C 292.044 210.658, 300 210.853, 300 212 C 300 212.550, 299.212 213.007, 298.250 213.015 C 296.754 213.028, 296.718 213.172, 298 214 C 298.825 214.533, 301.188 214.976, 303.250 214.985 C 307.521 215.002, 308.012 216.076, 304.750 218.269 L 302.500 219.783 305.250 221.052 C 306.762 221.750, 308 223.122, 308 224.101 C 308 226.606, 309.821 227.440, 311.813 225.848 C 314.939 223.350, 317.957 222.001, 320.736 221.858 C 322.817 221.751, 322.519 221.566, 319.533 221.108 C 316.555 220.652, 315.184 219.801, 314.033 217.694 C 312.613 215.093, 312.641 214.782, 314.418 213.461 C 315.473 212.676, 319.318 211.093, 322.963 209.942 C 327.584 208.484, 329.879 207.192, 330.545 205.675 C 331.189 204.209, 332.559 203.398, 334.750 203.187 C 337.151 202.955, 338 202.383, 338 200.996 C 338 199.963, 337.527 198.826, 336.948 198.468 C 336.370 198.110, 336.032 196.426, 336.198 194.725 C 336.484 191.794, 336.237 191.557, 331.500 190.222 C 328.750 189.446, 325.076 188.129, 323.335 187.294 C 321.594 186.460, 319.690 186.074, 319.102 186.437 C 317.040 187.711, 310.872 185.828, 310.078 183.682 C 309.658 182.545, 307.781 181.100, 305.907 180.469 C 303.904 179.795, 302.353 178.535, 302.142 177.411 C 301.537 174.177, 299.910 173, 296.044 173 C 294.003 173, 292.119 173.215, 291.856 173.477 M 136.187 179.735 C 133.393 179.985, 132.028 180.540, 132.312 181.311 C 132.553 181.965, 133.256 182.387, 133.875 182.250 C 134.494 182.113, 135 182.406, 135 182.902 C 135 183.398, 136.350 184.275, 138 184.850 C 139.650 185.425, 141 186.407, 141 187.031 C 141 187.656, 141.534 187.989, 142.188 187.771 C 142.841 187.553, 144.191 188.191, 145.188 189.188 C 147.137 191.137, 149.543 191.688, 148.461 189.937 C 148.100 189.352, 148.567 188.030, 149.500 186.999 C 151.111 185.220, 151.038 184.970, 148.064 182.063 C 146.233 180.273, 144.010 179.073, 142.716 179.175 C 141.497 179.271, 138.559 179.523, 136.187 179.735 M 128.079 181.951 C 127.439 182.347, 126.570 183.960, 126.149 185.537 C 125.586 187.641, 124.534 188.623, 122.191 189.230 C 120.423 189.688, 119 190.714, 119 191.529 C 119 192.338, 118.438 193.050, 117.750 193.111 C 114.897 193.363, 111.419 192.739, 110.226 191.760 C 108.358 190.228, 107.918 191.226, 108.920 194.720 C 109.792 197.763, 109.747 197.814, 105.881 198.183 C 103.723 198.389, 101.590 198.190, 101.141 197.741 C 100.692 197.292, 98.523 197.213, 96.321 197.565 C 92.812 198.126, 92.371 198.490, 92.756 200.504 C 93.107 202.342, 94.056 202.931, 97.498 203.447 C 102.276 204.164, 104.944 206.125, 106.752 210.250 C 107.415 211.762, 108.606 213, 109.399 213 C 110.192 213, 111.136 214.345, 111.497 215.989 C 111.858 217.632, 112.569 219.234, 113.077 219.548 C 113.585 219.861, 114 220.822, 114 221.681 C 114 222.898, 113.694 222.991, 112.618 222.098 C 111.482 221.155, 111.119 221.891, 110.576 226.234 C 110.213 229.140, 109.526 232.149, 109.049 232.921 C 108.517 233.782, 108.640 234.783, 109.368 235.511 C 111.312 237.455, 117.806 239.200, 120.753 238.572 C 122.359 238.229, 124.689 238.612, 126.364 239.493 C 130.511 241.675, 134 241.467, 134 239.039 C 134 237.960, 134.999 236.148, 136.219 235.011 C 138.058 233.297, 139.214 233.054, 142.969 233.588 C 145.461 233.943, 147.928 234.631, 148.450 235.117 C 150.140 236.688, 153.055 236.060, 156.592 233.362 C 159.969 230.787, 160.003 230.690, 158.025 229.305 C 156.911 228.525, 156 227.039, 156 226.002 C 156 224.966, 155.492 223.804, 154.872 223.421 C 154.105 222.947, 154.283 222.421, 155.427 221.781 C 156.726 221.054, 156.850 220.524, 155.969 219.463 C 155.342 218.707, 155.062 217.709, 155.348 217.246 C 155.634 216.783, 155.482 215.780, 155.010 215.017 C 154.344 213.939, 153.836 213.892, 152.734 214.806 C 150.986 216.257, 149.926 215.373, 150.753 213.152 C 151.728 210.534, 156.388 205, 157.619 205 C 158.235 205, 158.984 203.537, 159.284 201.750 C 159.584 199.963, 160.141 197.713, 160.522 196.750 C 161.062 195.383, 160.698 194.999, 158.857 194.994 C 157.561 194.990, 155.211 194.315, 153.636 193.494 C 152.060 192.672, 149.897 192, 148.828 192 C 146.772 192, 140.234 188.619, 133.372 184.006 C 131.101 182.480, 128.719 181.555, 128.079 181.951 M 195 183.474 C 192.525 184.152, 189.232 185.223, 187.683 185.854 L 184.865 187.002 186.950 189.930 C 190.452 194.848, 199 199.087, 199 195.906 C 199 195.157, 200.655 195.051, 204.250 195.569 C 211.656 196.637, 214.052 196.300, 216.690 193.821 C 217.961 192.628, 219 191.366, 219 191.018 C 219 189.786, 211.227 186.976, 209.575 187.610 C 208.566 187.997, 207.023 187.456, 205.699 186.251 C 201.734 182.643, 199.835 182.150, 195 183.474 M 217.809 194.703 C 216.622 195.966, 214.830 197, 213.826 197 C 211.497 197, 211.450 199.862, 213.750 201.608 C 216.069 203.368, 219.132 203.333, 222.636 201.506 C 224.211 200.685, 226.232 200.010, 227.128 200.006 C 228.023 200.003, 229.273 199.375, 229.907 198.612 C 230.768 197.574, 231.998 197.440, 234.780 198.081 C 237.778 198.772, 238.746 198.611, 239.766 197.256 C 240.845 195.822, 240.671 195.384, 238.591 194.294 C 237.160 193.544, 234.186 193.199, 231.403 193.460 C 228.792 193.705, 226.170 193.592, 225.578 193.209 C 223.394 191.799, 219.908 192.469, 217.809 194.703 M 199.660 197.443 C 199.246 198.522, 198.017 198.957, 195.850 198.792 C 194.018 198.652, 192.476 199.072, 192.242 199.774 C 192.017 200.448, 191.180 201, 190.381 201 C 189.240 201, 189.158 201.427, 190 203 C 190.589 204.100, 190.942 205.047, 190.785 205.104 C 190.490 205.212, 184.736 205.816, 179.500 206.288 C 177.850 206.437, 175.969 206.890, 175.319 207.295 C 174.670 207.701, 173.856 207.575, 173.510 207.016 C 172.716 205.732, 171 205.689, 171 206.953 C 171 208.498, 178.034 210.052, 180.077 208.959 C 182.583 207.618, 185.755 207.764, 186.248 209.244 C 186.928 211.285, 196.851 212.717, 201.746 211.480 C 206.715 210.225, 207.811 209.318, 208.310 206.048 C 208.513 204.723, 209.391 203.383, 210.263 203.070 C 211.623 202.581, 211.663 202.154, 210.545 200.073 C 209.827 198.739, 208.399 197.562, 207.370 197.458 C 206.342 197.355, 204.323 196.951, 202.886 196.561 C 200.957 196.037, 200.111 196.269, 199.660 197.443 M 230.384 199.982 C 229.770 200.615, 227.745 201.372, 225.884 201.665 C 224.023 201.958, 222.208 202.668, 221.851 203.244 C 221.477 203.848, 219.495 204.061, 217.163 203.749 C 212.868 203.173, 210.859 204.448, 209.619 208.536 C 209.141 210.112, 209.947 211.300, 213.182 213.786 C 217.886 217.401, 219.357 217.624, 224.730 215.533 C 226.803 214.726, 229.175 214.122, 230 214.190 C 234.526 214.567, 235.578 213.857, 237.861 208.879 C 239.214 205.930, 241.032 203.543, 242.146 203.252 C 244.050 202.754, 244.049 202.723, 242.107 201.363 C 239.361 199.439, 231.777 198.546, 230.384 199.982 M 268.910 200.056 C 267.903 200.678, 268.600 202.082, 271.791 205.867 C 275.058 209.741, 276 211.677, 276 214.513 C 276 218.656, 278.059 218.936, 279.035 214.926 C 279.445 213.239, 280.292 212.524, 281.813 212.579 C 284.570 212.679, 284.550 212.409, 281.500 208.411 C 280.125 206.608, 278.999 204.766, 278.997 204.317 C 278.991 202.853, 270.314 199.188, 268.910 200.056 M 263.581 201.869 C 262.739 203.231, 255.948 203.894, 251 203.097 C 244.858 202.108, 242.030 203.707, 238.998 209.882 C 237.624 212.680, 235.938 214.976, 235.250 214.984 C 233.746 215.003, 233.733 215.167, 234.975 218.435 C 235.512 219.846, 236.584 221, 237.359 221 C 238.133 221, 239.002 221.900, 239.290 223 C 239.646 224.363, 240.654 225, 242.454 225 C 244.033 225, 245.982 226.018, 247.298 227.529 C 250.184 230.843, 261.019 232.860, 264.364 230.705 C 267.915 228.417, 270.949 228.081, 274.531 229.577 C 279.280 231.562, 279.998 231.388, 280.015 228.250 C 280.033 225.097, 280.953 223.500, 282.750 223.500 C 283.438 223.500, 283.887 223.050, 283.750 222.500 C 283.613 221.950, 282.489 221.629, 281.254 221.787 C 276.995 222.332, 275 220.339, 275 215.542 C 275 211.724, 274.400 210.495, 270.379 206.077 C 265.740 200.980, 264.576 200.259, 263.581 201.869 M 161.119 206.003 C 159.259 206.442, 156.334 208.217, 154.619 209.949 C 152.903 211.680, 152.253 212.815, 153.173 212.470 C 154.271 212.060, 155.229 212.559, 155.958 213.922 C 157.306 216.440, 160.815 216.635, 162.532 214.288 C 163.625 212.792, 164 212.755, 165.500 214 C 166.989 215.236, 167.367 215.226, 168.358 213.926 C 168.986 213.102, 170.216 212.575, 171.092 212.756 C 171.968 212.938, 173.217 212.443, 173.869 211.658 C 174.830 210.500, 174.599 210.116, 172.646 209.626 C 171.322 209.294, 170.002 208.117, 169.713 207.011 C 169.147 204.846, 167.059 204.601, 161.119 206.003 M 180.274 210.348 C 177.557 210.943, 175.836 211.942, 175.454 213.144 C 175.030 214.482, 174.170 214.889, 172.430 214.573 C 170.722 214.263, 169.679 214.732, 168.920 216.149 C 167.879 218.094, 167.770 218.102, 165.859 216.373 C 164.570 215.206, 163.637 214.948, 163.189 215.636 C 162.810 216.217, 161.375 216.967, 160 217.304 C 157.760 217.852, 157.491 218.440, 157.416 222.958 C 157.345 227.211, 157.619 228, 159.166 228 C 160.175 228, 161 228.675, 161 229.500 C 161 231.630, 162.760 231.357, 164.232 229 C 166.721 225.015, 174.787 227.859, 177.001 233.503 C 178.599 237.576, 191.240 249, 194.149 249 C 196.157 249, 205 254.707, 205 256.003 C 205 256.477, 205.896 257.149, 206.990 257.497 C 208.085 257.844, 209.801 260.010, 210.804 262.310 C 212.362 265.883, 212.437 266.854, 211.320 268.995 C 209.435 272.606, 209.700 273.582, 212 271.500 C 213.100 270.505, 214 269.233, 214 268.674 C 214 268.115, 214.776 266.800, 215.724 265.752 C 217.367 263.936, 217.334 263.761, 215.021 262.016 C 212.847 260.376, 212.721 259.908, 213.811 257.516 C 214.884 255.161, 215.406 254.930, 218.249 255.555 C 220.021 255.944, 222.026 256.991, 222.704 257.881 C 223.497 258.923, 223.948 259.057, 223.968 258.256 C 224.010 256.613, 216.742 251.400, 212.421 249.974 C 210.014 249.180, 209 248.241, 209 246.806 C 209 245.144, 208.514 244.860, 206.376 245.269 C 204.379 245.650, 202.850 244.956, 199.978 242.361 C 197.903 240.486, 195.941 237.903, 195.620 236.620 C 195.298 235.338, 193.227 233.092, 191.017 231.630 C 188.808 230.168, 186.951 228.416, 186.890 227.736 C 186.185 219.786, 186.111 220.041, 189.617 218.378 C 193.409 216.578, 193.394 216.606, 191.965 213.934 C 191.380 212.842, 189.879 212, 188.515 212 C 187.186 212, 185.740 211.420, 185.300 210.711 C 184.698 209.740, 183.456 209.650, 180.274 210.348 M 204 212.287 C 202.075 212.813, 199.037 213.267, 197.250 213.296 C 193.797 213.353, 193.399 214.008, 194.999 216.999 C 196.181 219.207, 201.720 219.423, 203.802 217.341 C 204.539 216.604, 204.773 215.985, 204.321 215.967 C 203.870 215.948, 204.576 215.037, 205.892 213.942 C 208.882 211.452, 208.449 211.073, 204 212.287 M 207.750 214.080 C 206.787 214.641, 206 215.752, 206 216.550 C 206 217.347, 205.550 218, 205 218 C 204.450 218, 204 218.684, 204 219.519 C 204 220.655, 203.306 220.887, 201.250 220.438 C 199.374 220.029, 198.926 220.139, 199.840 220.784 C 201.193 221.738, 203.090 224.691, 204.895 228.653 C 206.044 231.172, 207.008 231.855, 211.052 233.015 C 212.880 233.539, 213.814 233.508, 213.460 232.936 C 212.082 230.705, 214.890 232.291, 218 235.500 C 221.152 238.752, 223.326 240.009, 222.758 238.250 C 222.418 237.197, 225.247 233.399, 226.738 232.908 C 227.688 232.595, 227.632 231.838, 226.493 229.646 C 225.678 228.076, 225.260 226.389, 225.564 225.896 C 225.869 225.403, 225.454 225, 224.642 225 C 223.831 225, 223.017 224.600, 222.833 224.112 C 222.410 222.985, 211.061 222.092, 210.416 223.135 C 210.152 223.563, 209.275 223.659, 208.468 223.349 C 207.661 223.040, 207 223.298, 207 223.924 C 207 224.551, 207.675 225.322, 208.500 225.638 C 209.325 225.955, 210 226.855, 210 227.638 C 210 228.422, 210.675 229.322, 211.500 229.638 C 213.032 230.226, 213.606 232.017, 212.250 231.979 C 210.836 231.938, 205.815 223.924, 206.343 222.549 C 206.739 221.515, 208.620 221.260, 213.930 221.518 C 217.812 221.707, 221.892 222.148, 222.995 222.498 C 225.260 223.217, 225.451 222.712, 223.965 219.934 C 223.254 218.606, 221.868 218, 219.542 218 C 217.387 218, 215.072 217.090, 213.182 215.500 C 209.803 212.656, 210.073 212.727, 207.750 214.080 M 225.784 216.683 C 224.191 217.101, 224.209 217.397, 226.029 220.793 C 227.108 222.806, 227.750 225.213, 227.455 226.143 C 227.160 227.072, 227.387 228.121, 227.959 228.475 C 228.532 228.829, 229 230.451, 229 232.080 C 229 234.292, 229.652 235.340, 231.572 236.215 C 233.629 237.152, 234.313 237.111, 234.993 236.011 C 235.682 234.896, 236.523 235.097, 239.422 237.068 C 241.518 238.492, 242.789 240.064, 242.489 240.861 C 242.143 241.781, 242.494 242.024, 243.570 241.611 C 244.447 241.275, 245.338 241, 245.550 241 C 245.763 241, 245.680 240.329, 245.365 239.508 C 245.034 238.646, 245.491 237.749, 246.448 237.381 C 247.926 236.815, 247.879 236.536, 246.020 234.804 C 244.341 233.239, 244.066 232.167, 244.606 229.286 C 245.057 226.884, 244.931 225.925, 244.222 226.363 C 242.615 227.356, 238 225.251, 238 223.525 C 238 222.686, 237.553 222, 237.008 222 C 236.462 222, 234.813 220.650, 233.342 219 C 230.766 216.109, 229.475 215.713, 225.784 216.683 M 195.667 220.667 C 194.711 221.622, 194.845 223, 195.893 223 C 196.384 223, 197.045 222.325, 197.362 221.500 C 197.947 219.976, 196.881 219.452, 195.667 220.667 M 245.649 230.684 C 245.282 231.051, 245.963 232.396, 247.162 233.672 C 249.127 235.764, 249.206 236.246, 247.967 238.561 C 246.869 240.614, 246.840 241.469, 247.825 242.815 C 248.503 243.742, 249.325 245.298, 249.652 246.273 C 250.117 247.664, 251.242 248.011, 254.873 247.885 C 257.418 247.796, 261.188 248.070, 263.250 248.493 C 266.179 249.093, 267 248.952, 267 247.846 C 267 245.665, 272.639 242.751, 275.254 243.581 C 277.257 244.216, 277.342 244.116, 276.085 242.602 C 275.024 241.324, 274.966 240.634, 275.842 239.758 C 276.479 239.121, 277 237.812, 277 236.850 C 277 235.887, 277.747 234.681, 278.660 234.170 C 280.157 233.333, 280.120 233.135, 278.285 232.153 C 274.289 230.014, 268.418 229.680, 265.735 231.438 C 263.697 232.774, 261.799 232.966, 255.856 232.439 C 251.810 232.081, 248.009 231.389, 247.408 230.902 C 246.807 230.416, 246.016 230.318, 245.649 230.684 M 68.500 234.917 C 66.850 235.787, 65.379 236.546, 65.232 236.601 C 65.085 236.657, 65.624 237.975, 66.431 239.530 C 68.184 242.909, 72.373 244.889, 76.500 244.289 C 78.813 243.953, 79.812 244.365, 80.860 246.089 C 82.070 248.079, 81.988 248.500, 80.113 249.915 C 78.612 251.047, 77.957 252.733, 77.838 255.766 C 77.746 258.110, 77.064 260.532, 76.323 261.147 C 75.265 262.025, 75.234 262.577, 76.178 263.714 C 77.115 264.844, 77.106 265.601, 76.132 267.160 C 75.163 268.712, 75.151 269.477, 76.081 270.597 C 77.024 271.734, 76.930 272.419, 75.638 273.847 C 73.348 276.378, 73.593 277.681, 76.494 278.409 C 78.096 278.811, 79.508 280.280, 80.443 282.518 C 81.833 285.845, 84.227 287.060, 85.461 285.063 C 86.846 282.823, 92.679 281, 98.466 281 C 104.149 281, 104.795 280.768, 106.842 278 C 108.062 276.350, 109.691 275, 110.463 275 C 111.234 275, 112.156 274.085, 112.511 272.966 C 112.866 271.848, 114.055 270.095, 115.153 269.072 C 116.437 267.876, 116.766 266.974, 116.075 266.547 C 113.997 265.262, 115.039 261.445, 118.989 255.877 C 121.935 251.725, 123.787 250.093, 126.073 249.635 C 129.929 248.864, 135 245.340, 135 243.432 C 135 242.380, 133.672 242, 130 242 C 127.250 242, 125 241.550, 125 241 C 125 240.450, 123.313 239.997, 121.250 239.994 C 116.677 239.988, 110.034 238.252, 108 236.533 C 107.175 235.836, 105.825 235.257, 105 235.246 C 104.175 235.236, 99.225 234.948, 94 234.607 C 73.428 233.265, 71.587 233.288, 68.500 234.917 M 225.213 236.188 C 223.734 237.666, 223.628 240.652, 225.023 241.514 C 226.382 242.354, 232 239.824, 232 238.373 C 232 237.746, 231.213 236.955, 230.250 236.616 C 229.287 236.276, 228.033 235.768, 227.463 235.487 C 226.892 235.205, 225.879 235.521, 225.213 236.188 M 168.112 238.882 C 166.082 240.441, 165.826 241.259, 166.402 244.331 C 166.775 246.319, 167.794 248.345, 168.666 248.833 C 169.967 249.561, 169.682 249.971, 167.081 251.110 C 164.607 252.194, 164.041 252.940, 164.510 254.500 C 164.840 255.600, 165.283 258.474, 165.493 260.887 C 165.937 265.994, 167.133 267.587, 169.683 266.469 C 170.682 266.031, 171.800 265.634, 172.167 265.586 C 173.479 265.416, 173.808 264.424, 174.332 259.056 C 174.656 255.729, 174.403 252.812, 173.681 251.556 C 173.032 250.425, 172.500 246.839, 172.500 243.587 C 172.500 240.335, 172.050 237.533, 171.500 237.361 C 170.950 237.188, 169.425 237.873, 168.112 238.882 M 234.560 238.531 C 232.643 239.981, 232.643 240.019, 234.605 241.847 C 236.038 243.182, 237.203 243.469, 238.795 242.880 C 241.479 241.887, 241.573 240.829, 239.171 238.655 C 236.985 236.676, 237.011 236.677, 234.560 238.531 M 167.739 241.238 C 167.457 241.973, 167.796 243.908, 168.493 245.537 C 169.843 248.692, 170.721 247.893, 171.238 243.041 C 171.524 240.359, 168.645 238.876, 167.739 241.238 M 229.923 241.250 C 229.307 243.266, 229.347 245.096, 230.017 245.510 C 230.478 245.795, 230.640 247.984, 230.377 250.373 C 229.990 253.894, 230.329 255.200, 232.166 257.262 L 234.433 259.807 236.216 257.750 C 238.358 255.281, 238.405 254.120, 236.468 251.559 C 235.661 250.491, 235 248.291, 235 246.669 C 235 245.034, 234.221 243.129, 233.250 242.392 C 231.639 241.169, 230.109 240.644, 229.923 241.250 M 239.352 243.993 C 236.559 245.121, 235.726 246.562, 236.487 248.958 C 237.269 251.422, 240.611 252.509, 243.369 251.196 C 244.541 250.638, 246.287 249.930, 247.250 249.622 C 251.045 248.409, 247.951 243.025, 243.500 243.095 C 242.400 243.113, 240.534 243.517, 239.352 243.993 M 67.512 244.981 C 67.178 245.521, 67.112 247.769, 67.366 249.976 C 67.620 252.183, 67.416 254.243, 66.914 254.553 C 66.411 254.864, 65.997 255.879, 65.994 256.809 C 65.990 257.739, 65.404 259.625, 64.690 261 C 62.100 265.991, 61.851 267.271, 63.600 266.600 C 64.765 266.153, 65.059 266.404, 64.643 267.489 C 64.310 268.356, 64.613 269, 65.352 269 C 66.318 269, 66.481 270.254, 66 274 L 65.359 279 69.179 279 C 72.563 279, 73 278.721, 73 276.559 C 73 275.216, 73.435 273.849, 73.967 273.520 C 74.499 273.191, 74.679 271.644, 74.367 270.083 C 74.044 268.469, 74.278 266.946, 74.910 266.556 C 75.692 266.072, 75.574 265.230, 74.511 263.712 C 72.619 261.011, 72.600 260, 74.439 260 C 75.395 260, 76.102 258.406, 76.545 255.250 C 76.913 252.637, 77.848 249.995, 78.624 249.377 C 79.400 248.759, 79.759 247.536, 79.423 246.659 C 78.938 245.396, 77.893 245.190, 74.405 245.668 C 71.429 246.076, 70 245.903, 70 245.136 C 70 243.742, 68.341 243.639, 67.512 244.981 M 167.162 252.473 C 165.725 253.271, 165.243 254.032, 165.912 254.445 C 166.510 254.815, 167 257.266, 167 259.892 C 167 265.619, 167.364 266.101, 170.576 264.633 C 172.864 263.587, 173.033 263.040, 172.777 257.510 C 172.476 250.992, 171.461 250.082, 167.162 252.473 M 139 258.427 C 139 259.354, 139.855 260, 141.083 260 C 143.520 260, 143.176 257.663, 140.667 257.177 C 139.680 256.985, 139 257.495, 139 258.427 M 132.078 259.658 C 129.818 261.241, 129.794 261.376, 131.547 262.658 C 132.556 263.396, 134.166 264, 135.124 264 C 137.367 264, 138.703 260.060, 136.857 258.890 C 135.014 257.723, 134.789 257.759, 132.078 259.658 M 133.229 261.188 C 133.847 263.042, 136 263.349, 136 261.583 C 136 260.712, 135.287 260, 134.417 260 C 133.546 260, 133.011 260.534, 133.229 261.188 M 124.500 265 C 123.684 266.320, 124.880 268.192, 126.069 267.457 C 127.284 266.707, 127.276 264, 126.059 264 C 125.541 264, 124.840 264.450, 124.500 265 M 192.750 272.692 C 191.787 272.942, 191.016 273.451, 191.036 273.823 C 191.095 274.946, 204.776 281.256, 205.790 280.630 C 206.308 280.310, 206.514 278.909, 206.248 277.518 C 205.982 276.127, 206.370 274.259, 207.110 273.368 C 208.329 271.899, 208.036 271.820, 203.977 272.522 C 198.862 273.408, 198.072 273.429, 196 272.738 C 195.175 272.463, 193.713 272.442, 192.750 272.692" stroke="none" fill="#e5ebf1" fill-rule="evenodd" />
<path d="M 239 58.891 C 237.499 59.306, 236.376 60.436, 236.190 61.718 C 235.679 65.242, 233.328 66.353, 226.691 66.208 C 221.356 66.092, 220.882 66.218, 223.265 67.125 C 226.061 68.188, 230.280 75.409, 230.429 79.386 C 230.504 81.382, 231.787 82.394, 236.250 83.976 C 238.266 84.691, 239 85.624, 239 87.475 C 239 88.864, 238.514 90, 237.921 90 C 237.328 90, 234.255 92.250, 231.093 95 C 227.932 97.750, 224.848 100, 224.240 100 C 222.267 100, 221.822 103.936, 223.430 107.161 C 224.294 108.891, 225 111.544, 225 113.056 C 225 115.211, 225.648 116.030, 228 116.850 C 229.650 117.425, 231 118.297, 231 118.786 C 231 120.011, 240.236 119.604, 247.500 118.060 C 250.800 117.358, 254.436 116.618, 255.579 116.416 C 258.051 115.978, 271 104.366, 271 102.587 C 271 101.908, 269.313 100.450, 267.250 99.348 C 264.773 98.025, 263.559 96.707, 263.673 95.466 C 263.769 94.433, 262.723 92.546, 261.350 91.273 C 259.562 89.617, 258.941 88.127, 259.161 86.029 C 259.385 83.892, 258.682 82.277, 256.565 80.068 C 253.918 77.305, 253.772 76.796, 254.911 74.296 C 255.598 72.787, 255.787 71.427, 255.330 71.273 C 254.874 71.118, 253.059 70.114, 251.299 69.040 C 248.159 67.126, 247.858 65.943, 249.475 61.869 C 249.954 60.664, 249.285 59.946, 246.912 59.119 C 243.390 57.891, 242.687 57.871, 239 58.891 M 214.550 63.888 C 215.072 64.376, 216.621 65.116, 217.992 65.532 C 220.223 66.209, 220.341 66.116, 219.120 64.644 C 218.369 63.740, 216.820 63, 215.678 63 C 214.421 63, 213.975 63.351, 214.550 63.888 M 211 66.061 C 211 67.928, 210.588 68.061, 206.642 67.469 C 203.171 66.949, 202.160 67.139, 201.674 68.408 C 201.338 69.284, 199.939 70, 198.567 70 C 196.176 70, 193.656 72.815, 194.236 74.836 C 194.568 75.990, 189.330 82, 187.992 82 C 187.447 82, 187 83.025, 187 84.277 C 187 85.530, 186.299 87.555, 185.443 88.777 C 184.571 90.023, 184.351 91, 184.943 91 C 185.524 91, 186 91.900, 186 93 C 186 94.596, 185.333 95, 182.700 95 C 180.885 95, 178.860 95.540, 178.200 96.200 C 176.712 97.688, 176.618 103.646, 178.068 104.542 C 178.656 104.905, 178.859 105.926, 178.519 106.810 C 178.132 107.819, 178.740 109.050, 180.152 110.115 C 181.923 111.450, 182.155 112.108, 181.243 113.208 C 180.605 113.976, 180.348 115.615, 180.671 116.850 C 181.071 118.381, 180.547 119.853, 179.024 121.474 C 177.796 122.782, 177.067 124.299, 177.404 124.845 C 177.742 125.392, 177.321 126.536, 176.468 127.389 C 175.083 128.774, 175.078 129.249, 176.416 131.837 C 177.239 133.430, 179.521 136.840, 181.486 139.414 C 183.452 141.989, 184.833 144.460, 184.557 144.907 C 184.281 145.354, 184.606 146.904, 185.278 148.352 C 186.157 150.246, 187.263 150.987, 189.219 150.992 C 191.082 150.998, 191.775 150.578, 191.423 149.660 C 190.684 147.735, 193.351 145.885, 197.014 145.781 C 199.363 145.714, 200.396 145.088, 201.066 143.327 C 202.420 139.764, 202.497 130.925, 201.180 130.111 C 200.536 129.713, 201.983 128.885, 204.491 128.214 C 207.655 127.367, 208.788 126.611, 208.401 125.601 C 208.070 124.741, 208.673 123.921, 209.928 123.523 C 211.067 123.161, 212 122.478, 212 122.005 C 212 120.769, 206.986 117, 205.340 117 C 203.308 117, 201.854 112.294, 202.622 108.202 C 203.424 103.925, 207.116 100.106, 213.221 97.236 C 217.902 95.036, 219.049 93.476, 219.508 88.692 C 219.859 85.022, 222.550 83.090, 227.500 82.953 C 229.700 82.892, 230.938 82.615, 230.250 82.338 C 229.563 82.060, 229 80.703, 229 79.321 C 229 76.526, 226.309 71.144, 224 69.321 C 223.175 68.670, 220.576 67.594, 218.224 66.931 C 215.873 66.268, 213.709 65.337, 213.415 64.863 C 212.431 63.270, 211 63.980, 211 66.061 M 240 125.264 C 238.625 125.885, 237.351 126.491, 237.169 126.611 C 236.128 127.296, 239.391 131, 241.035 131 C 242.116 131, 243 131.450, 243 132 C 243 132.550, 244.238 133.003, 245.750 133.006 C 247.262 133.010, 249.789 133.685, 251.364 134.506 C 257.484 137.698, 260.377 135.790, 256.466 131.142 L 253.918 128.114 256.209 126.849 L 258.500 125.583 255.500 124.910 C 250.761 123.846, 242.734 124.030, 240 125.264 M 231 131 C 229.787 131.784, 229.931 131.972, 231.750 131.985 C 232.988 131.993, 234 131.550, 234 131 C 234 129.747, 232.939 129.747, 231 131 M 243.500 135 C 243.160 135.550, 243.172 136.470, 243.527 137.044 C 244.355 138.384, 242.203 141, 240.272 141 C 239.456 141, 237.498 139.914, 235.921 138.587 C 232.696 135.874, 229 136.125, 229 139.058 C 229 140.061, 228.550 141.160, 228 141.500 C 227.450 141.840, 227 142.654, 227 143.309 C 226.999 144.161, 229.777 144.451, 236.750 144.327 C 244.776 144.185, 247.296 144.523, 251 146.241 C 255.810 148.471, 259.464 148.689, 261.649 146.876 C 263.390 145.432, 263.353 144.496, 261.482 142.625 C 260.647 141.790, 260.085 140.534, 260.232 139.835 C 260.387 139.100, 258.810 138.098, 256.500 137.462 C 254.300 136.858, 251.233 135.831, 249.685 135.181 C 246.243 133.737, 244.316 133.680, 243.500 135 M 212.094 136.387 C 211.276 137.372, 211.234 138.026, 211.959 138.474 C 212.539 138.833, 213.292 138.404, 213.631 137.520 C 214.475 135.320, 213.547 134.636, 212.094 136.387 M 167.655 138.829 C 166.745 139.835, 166 141.149, 166 141.749 C 166 142.350, 164.612 143.146, 162.916 143.518 C 160.195 144.116, 159.909 144.500, 160.483 146.787 C 161.255 149.864, 164.748 155, 166.068 155 C 166.581 155, 167 153.923, 167 152.606 C 167 151.289, 168.284 148.837, 169.854 147.157 C 172.051 144.804, 172.378 143.975, 171.274 143.552 C 170.249 143.158, 170.029 142.147, 170.500 140.001 C 171.246 136.602, 170.099 136.129, 167.655 138.829 M 229.479 146.392 C 227.112 148.123, 229.052 151.756, 232.779 152.572 C 237.549 153.615, 238 153.899, 238 155.852 C 238 156.905, 238.787 158.048, 239.750 158.393 C 246.317 160.741, 246.852 160.768, 249.915 158.905 C 251.612 157.874, 253 156.496, 253 155.843 C 253 155.191, 253.736 153.844, 254.636 152.849 C 256.163 151.163, 256.112 150.908, 253.886 149.054 C 252.574 147.961, 250.787 147.052, 249.917 147.033 C 249.046 147.015, 248.093 146.760, 247.800 146.467 C 246.553 145.219, 231.169 145.156, 229.479 146.392 M 180 147.930 C 180 148.442, 179.058 149.005, 177.906 149.180 L 175.811 149.500 177.816 151.800 C 179.349 153.558, 180.012 153.794, 180.635 152.800 C 181.917 150.754, 182.175 147, 181.034 147 C 180.465 147, 180 147.419, 180 147.930 M 262 147.951 C 261.175 148.449, 259.720 149.096, 258.767 149.390 C 257.748 149.704, 257.265 150.527, 257.594 151.385 C 257.924 152.245, 257.300 153.305, 256.078 153.958 C 254.931 154.572, 254 156.066, 254 157.292 C 254 159.007, 253.092 159.796, 250.016 160.757 C 247.824 161.440, 245.357 162, 244.532 162 C 243.239 162, 243.269 162.495, 244.747 165.595 C 246.382 169.025, 246.377 169.251, 244.630 170.529 C 242.860 171.823, 242.864 171.937, 244.730 173.941 C 246.413 175.748, 247.073 175.871, 249.862 174.898 C 252.715 173.904, 258.725 174.265, 264 175.749 C 264.825 175.981, 268.941 176.594, 273.146 177.112 L 280.792 178.054 283.935 174.911 C 286.871 171.975, 286.980 171.619, 285.591 169.499 C 283.881 166.889, 284.393 166, 287.608 166 C 290.877 166, 291.547 164.159, 288.675 163.066 C 285.203 161.746, 279.467 155.555, 279.268 152.911 C 279.053 150.059, 277.217 148.850, 273.774 149.295 C 272.275 149.488, 270.925 149.314, 270.774 148.907 C 270.327 147.701, 263.625 146.970, 262 147.951 M 170.500 152 C 170.840 152.550, 171.541 153, 172.059 153 C 172.577 153, 173 152.550, 173 152 C 173 151.450, 172.298 151, 171.441 151 C 170.584 151, 170.160 151.450, 170.500 152 M 165 158.417 C 165 159.746, 165.563 161.060, 166.250 161.338 C 167.250 161.741, 167.250 161.858, 166.250 161.921 C 163.961 162.066, 163.508 162.291, 162.269 163.901 C 161.234 165.246, 160.892 165.278, 160.120 164.104 C 158.799 162.097, 156.001 163.531, 155.994 166.219 C 155.983 170.765, 153.954 176, 152.203 176 C 150.981 176, 150.524 176.798, 150.584 178.827 C 150.630 180.381, 151.035 182.248, 151.485 182.976 C 151.934 183.703, 152.426 185.863, 152.578 187.776 C 152.917 192.045, 153.561 192.725, 158 193.500 C 162.741 194.328, 163.319 195.159, 161.535 198.579 C 160.698 200.186, 160.010 202.014, 160.006 202.643 C 159.998 204.114, 162.762 205.195, 163.495 204.007 C 164.104 203.022, 168.037 203.328, 172 204.669 C 174.494 205.513, 176.816 205.460, 184.632 204.382 C 187.890 203.933, 188.669 203.452, 188.318 202.109 C 188.034 201.023, 188.802 199.909, 190.436 199.034 C 193.673 197.302, 193.621 196.944, 189.782 194.500 C 188.055 193.400, 185.858 191.085, 184.900 189.356 L 183.159 186.211 187.829 184.474 C 190.398 183.519, 192.928 182.346, 193.450 181.869 C 193.972 181.391, 195.258 181, 196.307 181 C 197.732 181, 198.031 180.557, 197.492 179.250 C 197.095 178.287, 196.404 175.972, 195.957 174.104 C 195.510 172.236, 194.614 170.379, 193.965 169.979 C 193.315 169.577, 193.066 168.369, 193.409 167.288 C 194.069 165.206, 191.269 161.588, 187.174 159.232 C 185.356 158.186, 184.456 158.230, 182.035 159.482 C 178.714 161.199, 173.544 161.547, 174.507 159.988 C 174.854 159.426, 173.776 158.705, 172.083 158.367 C 170.405 158.031, 169.277 157.361, 169.575 156.878 C 169.874 156.395, 168.966 156, 167.559 156 C 165.520 156, 165 156.491, 165 158.417 M 204.985 157.867 C 203.068 158.893, 200.063 160.049, 198.306 160.434 C 195.502 161.049, 195.075 161.583, 194.806 164.817 C 194.627 166.974, 195.035 168.921, 195.792 169.517 C 196.503 170.077, 197.192 171.652, 197.325 173.017 C 197.758 177.497, 200.878 182.026, 203.954 182.641 C 205.747 182.999, 207.044 184.019, 207.411 185.357 C 207.851 186.958, 208.213 187.169, 208.845 186.192 C 209.768 184.763, 215 185.542, 215 187.108 C 215 187.599, 215.752 188, 216.671 188 C 217.590 188, 219.182 188.760, 220.208 189.688 C 222.237 191.524, 223.479 191.784, 232.500 192.253 C 235.800 192.425, 239.366 192.966, 240.424 193.456 C 241.980 194.177, 242.227 194.033, 241.715 192.701 C 241.299 191.617, 242.298 189.767, 244.636 187.288 C 247.448 184.305, 247.958 183.207, 247.087 182.011 C 246.481 181.180, 245.490 179.375, 244.885 178 C 244.280 176.625, 243.330 174.633, 242.774 173.573 C 241.998 172.095, 242.163 171.354, 243.484 170.388 C 245.095 169.210, 245.057 168.834, 242.889 164.492 C 241.615 161.941, 240.249 159.654, 239.855 159.410 C 239.460 159.166, 233.842 158.818, 227.370 158.638 C 219.628 158.422, 215.471 157.914, 215.218 157.155 C 214.628 155.383, 208.876 155.783, 204.985 157.867 M 148.147 165.888 C 147.086 166.560, 147.042 167.210, 147.943 168.893 C 149.324 171.473, 148.579 173, 145.941 173 C 144.648 173, 144 172.312, 144 170.941 C 144 169.801, 143.546 169.162, 142.984 169.510 C 142.425 169.856, 142.189 170.497, 142.460 170.935 C 142.731 171.374, 142.094 172.510, 141.044 173.460 C 139.038 175.276, 139.292 178.209, 141.386 177.406 C 142.057 177.148, 144.289 177.640, 146.346 178.500 L 150.086 180.063 149.793 177.281 C 149.563 175.103, 149.879 174.564, 151.250 174.794 C 152.941 175.078, 153.451 174.027, 153.042 171.106 C 152.934 170.340, 153.397 169.373, 154.069 168.957 C 154.741 168.542, 155.015 167.481, 154.677 166.601 C 154.018 164.883, 150.362 164.484, 148.147 165.888 M 291.856 173.477 C 291.377 173.956, 287.590 174.787, 285.250 174.926 C 284.563 174.967, 284 176.174, 284 177.608 C 284 179.812, 283.650 180.130, 281.750 179.661 C 280.512 179.355, 276.350 178.826, 272.500 178.485 C 268.650 178.144, 263.925 177.448, 262 176.938 C 253.537 174.696, 244.423 176.823, 247.842 180.242 C 249.831 182.231, 249.120 185.028, 245.946 187.699 C 243.912 189.410, 242.990 191.013, 243.184 192.495 C 243.344 193.720, 242.845 195.482, 242.074 196.411 C 239.942 198.980, 242.294 200.535, 250.196 201.783 C 257.185 202.887, 260.474 202.556, 263 200.493 C 266.100 197.962, 270.021 197.847, 275.089 200.137 C 277.790 201.358, 280 202.792, 280 203.325 C 280 203.858, 281.575 206.216, 283.500 208.565 C 285.425 210.915, 287 213.098, 287 213.418 C 287 213.738, 285.762 214.003, 284.250 214.006 C 282.250 214.011, 281.039 214.823, 279.809 216.984 C 278.879 218.618, 278.429 220.138, 278.809 220.360 C 279.847 220.969, 284 219.199, 284 218.149 C 284 217.645, 284.898 216.999, 285.995 216.712 C 287.092 216.425, 288.297 215.360, 288.672 214.345 C 289.047 213.330, 289.837 212.169, 290.427 211.765 C 292.044 210.658, 300 210.853, 300 212 C 300 212.550, 299.212 213.007, 298.250 213.015 C 296.754 213.028, 296.718 213.172, 298 214 C 298.825 214.533, 301.188 214.976, 303.250 214.985 C 307.521 215.002, 308.012 216.076, 304.750 218.269 L 302.500 219.783 305.250 221.052 C 306.762 221.750, 308 223.122, 308 224.101 C 308 226.606, 309.821 227.440, 311.813 225.848 C 314.939 223.350, 317.957 222.001, 320.736 221.858 C 322.817 221.751, 322.519 221.566, 319.533 221.108 C 316.555 220.652, 315.184 219.801, 314.033 217.694 C 312.613 215.093, 312.641 214.782, 314.418 213.461 C 315.473 212.676, 319.318 211.093, 322.963 209.942 C 327.584 208.484, 329.879 207.192, 330.545 205.675 C 331.189 204.209, 332.559 203.398, 334.750 203.187 C 337.151 202.955, 338 202.383, 338 200.996 C 338 199.963, 337.527 198.826, 336.948 198.468 C 336.370 198.110, 336.032 196.426, 336.198 194.725 C 336.484 191.794, 336.237 191.557, 331.500 190.222 C 328.750 189.446, 325.076 188.129, 323.335 187.294 C 321.594 186.460, 319.690 186.074, 319.102 186.437 C 317.040 187.711, 310.872 185.828, 310.078 183.682 C 309.658 182.545, 307.781 181.100, 305.907 180.469 C 303.904 179.795, 302.353 178.535, 302.142 177.411 C 301.537 174.177, 299.910 173, 296.044 173 C 294.003 173, 292.119 173.215, 291.856 173.477 M 136.187 179.735 C 133.393 179.985, 132.028 180.540, 132.312 181.311 C 132.553 181.965, 133.256 182.387, 133.875 182.250 C 134.494 182.113, 135 182.406, 135 182.902 C 135 183.398, 136.350 184.275, 138 184.850 C 139.650 185.425, 141 186.407, 141 187.031 C 141 187.656, 141.534 187.989, 142.188 187.771 C 142.841 187.553, 144.191 188.191, 145.188 189.188 C 147.137 191.137, 149.543 191.688, 148.461 189.937 C 148.100 189.352, 148.567 188.030, 149.500 186.999 C 151.111 185.220, 151.038 184.970, 148.064 182.063 C 146.233 180.273, 144.010 179.073, 142.716 179.175 C 141.497 179.271, 138.559 179.523, 136.187 179.735 M 128.079 181.951 C 127.439 182.347, 126.570 183.960, 126.149 185.537 C 125.586 187.641, 124.534 188.623, 122.191 189.230 C 120.423 189.688, 119 190.714, 119 191.529 C 119 192.338, 118.438 193.050, 117.750 193.111 C 114.897 193.363, 111.419 192.739, 110.226 191.760 C 108.358 190.228, 107.918 191.226, 108.920 194.720 C 109.792 197.763, 109.747 197.814, 105.881 198.183 C 103.723 198.389, 101.590 198.190, 101.141 197.741 C 100.692 197.292, 98.523 197.213, 96.321 197.565 C 92.812 198.126, 92.371 198.490, 92.756 200.504 C 93.107 202.342, 94.056 202.931, 97.498 203.447 C 102.276 204.164, 104.944 206.125, 106.752 210.250 C 107.415 211.762, 108.606 213, 109.399 213 C 110.192 213, 111.136 214.345, 111.497 215.989 C 111.858 217.632, 112.569 219.234, 113.077 219.548 C 113.585 219.861, 114 220.822, 114 221.681 C 114 222.898, 113.694 222.991, 112.618 222.098 C 111.482 221.155, 111.119 221.891, 110.576 226.234 C 110.213 229.140, 109.526 232.149, 109.049 232.921 C 108.517 233.782, 108.640 234.783, 109.368 235.511 C 111.312 237.455, 117.806 239.200, 120.753 238.572 C 122.359 238.229, 124.689 238.612, 126.364 239.493 C 130.511 241.675, 134 241.467, 134 239.039 C 134 237.960, 134.999 236.148, 136.219 235.011 C 138.058 233.297, 139.214 233.054, 142.969 233.588 C 145.461 233.943, 147.928 234.631, 148.450 235.117 C 150.140 236.688, 153.055 236.060, 156.592 233.362 C 159.969 230.787, 160.003 230.690, 158.025 229.305 C 156.911 228.525, 156 227.039, 156 226.002 C 156 224.966, 155.492 223.804, 154.872 223.421 C 154.105 222.947, 154.283 222.421, 155.427 221.781 C 156.726 221.054, 156.850 220.524, 155.969 219.463 C 155.342 218.707, 155.062 217.709, 155.348 217.246 C 155.634 216.783, 155.482 215.780, 155.010 215.017 C 154.344 213.939, 153.836 213.892, 152.734 214.806 C 150.986 216.257, 149.926 215.373, 150.753 213.152 C 151.728 210.534, 156.388 205, 157.619 205 C 158.235 205, 158.984 203.537, 159.284 201.750 C 159.584 199.963, 160.141 197.713, 160.522 196.750 C 161.062 195.383, 160.698 194.999, 158.857 194.994 C 157.561 194.990, 155.211 194.315, 153.636 193.494 C 152.060 192.672, 149.897 192, 148.828 192 C 146.772 192, 140.234 188.619, 133.372 184.006 C 131.101 182.480, 128.719 181.555, 128.079 181.951 M 195 183.474 C 192.525 184.152, 189.232 185.223, 187.683 185.854 L 184.865 187.002 186.950 189.930 C 190.452 194.848, 199 199.087, 199 195.906 C 199 195.157, 200.655 195.051, 204.250 195.569 C 211.656 196.637, 214.052 196.300, 216.690 193.821 C 217.961 192.628, 219 191.366, 219 191.018 C 219 189.786, 211.227 186.976, 209.575 187.610 C 208.566 187.997, 207.023 187.456, 205.699 186.251 C 201.734 182.643, 199.835 182.150, 195 183.474 M 217.809 194.703 C 216.622 195.966, 214.830 197, 213.826 197 C 211.497 197, 211.450 199.862, 213.750 201.608 C 216.069 203.368, 219.132 203.333, 222.636 201.506 C 224.211 200.685, 226.232 200.010, 227.128 200.006 C 228.023 200.003, 229.273 199.375, 229.907 198.612 C 230.768 197.574, 231.998 197.440, 234.780 198.081 C 237.778 198.772, 238.746 198.611, 239.766 197.256 C 240.845 195.822, 240.671 195.384, 238.591 194.294 C 237.160 193.544, 234.186 193.199, 231.403 193.460 C 228.792 193.705, 226.170 193.592, 225.578 193.209 C 223.394 191.799, 219.908 192.469, 217.809 194.703 M 199.660 197.443 C 199.246 198.522, 198.017 198.957, 195.850 198.792 C 194.018 198.652, 192.476 199.072, 192.242 199.774 C 192.017 200.448, 191.180 201, 190.381 201 C 189.240 201, 189.158 201.427, 190 203 C 190.589 204.100, 190.942 205.047, 190.785 205.104 C 190.490 205.212, 184.736 205.816, 179.500 206.288 C 177.850 206.437, 175.969 206.890, 175.319 207.295 C 174.670 207.701, 173.856 207.575, 173.510 207.016 C 172.716 205.732, 171 205.689, 171 206.953 C 171 208.498, 178.034 210.052, 180.077 208.959 C 182.583 207.618, 185.755 207.764, 186.248 209.244 C 186.928 211.285, 196.851 212.717, 201.746 211.480 C 206.715 210.225, 207.811 209.318, 208.310 206.048 C 208.513 204.723, 209.391 203.383, 210.263 203.070 C 211.623 202.581, 211.663 202.154, 210.545 200.073 C 209.827 198.739, 208.399 197.562, 207.370 197.458 C 206.342 197.355, 204.323 196.951, 202.886 196.561 C 200.957 196.037, 200.111 196.269, 199.660 197.443 M 230.384 199.982 C 229.770 200.615, 227.745 201.372, 225.884 201.665 C 224.023 201.958, 222.208 202.668, 221.851 203.244 C 221.477 203.848, 219.495 204.061, 217.163 203.749 C 212.868 203.173, 210.859 204.448, 209.619 208.536 C 209.141 210.112, 209.947 211.300, 213.182 213.786 C 217.886 217.401, 219.357 217.624, 224.730 215.533 C 226.803 214.726, 229.175 214.122, 230 214.190 C 234.526 214.567, 235.578 213.857, 237.861 208.879 C 239.214 205.930, 241.032 203.543, 242.146 203.252 C 244.050 202.754, 244.049 202.723, 242.107 201.363 C 239.361 199.439, 231.777 198.546, 230.384 199.982 M 268.910 200.056 C 267.903 200.678, 268.600 202.082, 271.791 205.867 C 275.058 209.741, 276 211.677, 276 214.513 C 276 218.656, 278.059 218.936, 279.035 214.926 C 279.445 213.239, 280.292 212.524, 281.813 212.579 C 284.570 212.679, 284.550 212.409, 281.500 208.411 C 280.125 206.608, 278.999 204.766, 278.997 204.317 C 278.991 202.853, 270.314 199.188, 268.910 200.056 M 263.581 201.869 C 262.739 203.231, 255.948 203.894, 251 203.097 C 244.858 202.108, 242.030 203.707, 238.998 209.882 C 237.624 212.680, 235.938 214.976, 235.250 214.984 C 233.746 215.003, 233.733 215.167, 234.975 218.435 C 235.512 219.846, 236.584 221, 237.359 221 C 238.133 221, 239.002 221.900, 239.290 223 C 239.646 224.363, 240.654 225, 242.454 225 C 244.033 225, 245.982 226.018, 247.298 227.529 C 250.184 230.843, 261.019 232.860, 264.364 230.705 C 267.915 228.417, 270.949 228.081, 274.531 229.577 C 279.280 231.562, 279.998 231.388, 280.015 228.250 C 280.033 225.097, 280.953 223.500, 282.750 223.500 C 283.438 223.500, 283.887 223.050, 283.750 222.500 C 283.613 221.950, 282.489 221.629, 281.254 221.787 C 276.995 222.332, 275 220.339, 275 215.542 C 275 211.724, 274.400 210.495, 270.379 206.077 C 265.740 200.980, 264.576 200.259, 263.581 201.869 M 161.119 206.003 C 159.259 206.442, 156.334 208.217, 154.619 209.949 C 152.903 211.680, 152.253 212.815, 153.173 212.470 C 154.271 212.060, 155.229 212.559, 155.958 213.922 C 157.306 216.440, 160.815 216.635, 162.532 214.288 C 163.625 212.792, 164 212.755, 165.500 214 C 166.989 215.236, 167.367 215.226, 168.358 213.926 C 168.986 213.102, 170.216 212.575, 171.092 212.756 C 171.968 212.938, 173.217 212.443, 173.869 211.658 C 174.830 210.500, 174.599 210.116, 172.646 209.626 C 171.322 209.294, 170.002 208.117, 169.713 207.011 C 169.147 204.846, 167.059 204.601, 161.119 206.003 M 180.274 210.348 C 177.557 210.943, 175.836 211.942, 175.454 213.144 C 175.030 214.482, 174.170 214.889, 172.430 214.573 C 170.722 214.263, 169.679 214.732, 168.920 216.149 C 167.879 218.094, 167.770 218.102, 165.859 216.373 C 164.570 215.206, 163.637 214.948, 163.189 215.636 C 162.810 216.217, 161.375 216.967, 160 217.304 C 157.760 217.852, 157.491 218.440, 157.416 222.958 C 157.345 227.211, 157.619 228, 159.166 228 C 160.175 228, 161 228.675, 161 229.500 C 161 231.630, 162.760 231.357, 164.232 229 C 166.721 225.015, 174.787 227.859, 177.001 233.503 C 178.599 237.576, 191.240 249, 194.149 249 C 196.157 249, 205 254.707, 205 256.003 C 205 256.477, 205.896 257.149, 206.990 257.497 C 208.085 257.844, 209.801 260.010, 210.804 262.310 C 212.362 265.883, 212.437 266.854, 211.320 268.995 C 209.435 272.606, 209.700 273.582, 212 271.500 C 213.100 270.505, 214 269.233, 214 268.674 C 214 268.115, 214.776 266.800, 215.724 265.752 C 217.367 263.936, 217.334 263.761, 215.021 262.016 C 212.847 260.376, 212.721 259.908, 213.811 257.516 C 214.884 255.161, 215.406 254.930, 218.249 255.555 C 220.021 255.944, 222.026 256.991, 222.704 257.881 C 223.497 258.923, 223.948 259.057, 223.968 258.256 C 224.010 256.613, 216.742 251.400, 212.421 249.974 C 210.014 249.180, 209 248.241, 209 246.806 C 209 245.144, 208.514 244.860, 206.376 245.269 C 204.379 245.650, 202.850 244.956, 199.978 242.361 C 197.903 240.486, 195.941 237.903, 195.620 236.620 C 195.298 235.338, 193.227 233.092, 191.017 231.630 C 188.808 230.168, 186.951 228.416, 186.890 227.736 C 186.185 219.786, 186.111 220.041, 189.617 218.378 C 193.409 216.578, 193.394 216.606, 191.965 213.934 C 191.380 212.842, 189.879 212, 188.515 212 C 187.186 212, 185.740 211.420, 185.300 210.711 C 184.698 209.740, 183.456 209.650, 180.274 210.348 M 204 212.287 C 202.075 212.813, 199.037 213.267, 197.250 213.296 C 193.797 213.353, 193.399 214.008, 194.999 216.999 C 196.181 219.207, 201.720 219.423, 203.802 217.341 C 204.539 216.604, 204.773 215.985, 204.321 215.967 C 203.870 215.948, 204.576 215.037, 205.892 213.942 C 208.882 211.452, 208.449 211.073, 204 212.287 M 207.750 214.080 C 206.787 214.641, 206 215.752, 206 216.550 C 206 217.347, 205.550 218, 205 218 C 204.450 218, 204 218.684, 204 219.519 C 204 220.655, 203.306 220.887, 201.250 220.438 C 199.374 220.029, 198.926 220.139, 199.840 220.784 C 201.193 221.738, 203.090 224.691, 204.895 228.653 C 206.044 231.172, 207.008 231.855, 211.052 233.015 C 212.880 233.539, 213.814 233.508, 213.460 232.936 C 212.082 230.705, 214.890 232.291, 218 235.500 C 221.152 238.752, 223.326 240.009, 222.758 238.250 C 222.418 237.197, 225.247 233.399, 226.738 232.908 C 227.688 232.595, 227.632 231.838, 226.493 229.646 C 225.678 228.076, 225.260 226.389, 225.564 225.896 C 225.869 225.403, 225.454 225, 224.642 225 C 223.831 225, 223.017 224.600, 222.833 224.112 C 222.410 222.985, 211.061 222.092, 210.416 223.135 C 210.152 223.563, 209.275 223.659, 208.468 223.349 C 207.661 223.040, 207 223.298, 207 223.924 C 207 224.551, 207.675 225.322, 208.500 225.638 C 209.325 225.955, 210 226.855, 210 227.638 C 210 228.422, 210.675 229.322, 211.500 229.638 C 213.032 230.226, 213.606 232.017, 212.250 231.979 C 210.836 231.938, 205.815 223.924, 206.343 222.549 C 206.739 221.515, 208.620 221.260, 213.930 221.518 C 217.812 221.707, 221.892 222.148, 222.995 222.498 C 225.260 223.217, 225.451 222.712, 223.965 219.934 C 223.254 218.606, 221.868 218, 219.542 218 C 217.387 218, 215.072 217.090, 213.182 215.500 C 209.803 212.656, 210.073 212.727, 207.750 214.080 M 225.784 216.683 C 224.191 217.101, 224.209 217.397, 226.029 220.793 C 227.108 222.806, 227.750 225.213, 227.455 226.143 C 227.160 227.072, 227.387 228.121, 227.959 228.475 C 228.532 228.829, 229 230.451, 229 232.080 C 229 234.292, 229.652 235.340, 231.572 236.215 C 233.629 237.152, 234.313 237.111, 234.993 236.011 C 235.682 234.896, 236.523 235.097, 239.422 237.068 C 241.518 238.492, 242.789 240.064, 242.489 240.861 C 242.143 241.781, 242.494 242.024, 243.570 241.611 C 244.447 241.275, 245.338 241, 245.550 241 C 245.763 241, 245.680 240.329, 245.365 239.508 C 245.034 238.646, 245.491 237.749, 246.448 237.381 C 247.926 236.815, 247.879 236.536, 246.020 234.804 C 244.341 233.239, 244.066 232.167, 244.606 229.286 C 245.057 226.884, 244.931 225.925, 244.222 226.363 C 242.615 227.356, 238 225.251, 238 223.525 C 238 222.686, 237.553 222, 237.008 222 C 236.462 222, 234.813 220.650, 233.342 219 C 230.766 216.109, 229.475 215.713, 225.784 216.683 M 195.667 220.667 C 194.711 221.622, 194.845 223, 195.893 223 C 196.384 223, 197.045 222.325, 197.362 221.500 C 197.947 219.976, 196.881 219.452, 195.667 220.667 M 245.649 230.684 C 245.282 231.051, 245.963 232.396, 247.162 233.672 C 249.127 235.764, 249.206 236.246, 247.967 238.561 C 246.869 240.614, 246.840 241.469, 247.825 242.815 C 248.503 243.742, 249.325 245.298, 249.652 246.273 C 250.117 247.664, 251.242 248.011, 254.873 247.885 C 257.418 247.796, 261.188 248.070, 263.250 248.493 C 266.179 249.093, 267 248.952, 267 247.846 C 267 245.665, 272.639 242.751, 275.254 243.581 C 277.257 244.216, 277.342 244.116, 276.085 242.602 C 275.024 241.324, 274.966 240.634, 275.842 239.758 C 276.479 239.121, 277 237.812, 277 236.850 C 277 235.887, 277.747 234.681, 278.660 234.170 C 280.157 233.333, 280.120 233.135, 278.285 232.153 C 274.289 230.014, 268.418 229.680, 265.735 231.438 C 263.697 232.774, 261.799 232.966, 255.856 232.439 C 251.810 232.081, 248.009 231.389, 247.408 230.902 C 246.807 230.416, 246.016 230.318, 245.649 230.684 M 68.500 234.917 C 66.850 235.787, 65.379 236.546, 65.232 236.601 C 65.085 236.657, 65.624 237.975, 66.431 239.530 C 68.184 242.909, 72.373 244.889, 76.500 244.289 C 78.813 243.953, 79.812 244.365, 80.860 246.089 C 82.070 248.079, 81.988 248.500, 80.113 249.915 C 78.612 251.047, 77.957 252.733, 77.838 255.766 C 77.746 258.110, 77.064 260.532, 76.323 261.147 C 75.265 262.025, 75.234 262.577, 76.178 263.714 C 77.115 264.844, 77.106 265.601, 76.132 267.160 C 75.163 268.712, 75.151 269.477, 76.081 270.597 C 77.024 271.734, 76.930 272.419, 75.638 273.847 C 73.348 276.378, 73.593 277.681, 76.494 278.409 C 78.096 278.811, 79.508 280.280, 80.443 282.518 C 81.833 285.845, 84.227 287.060, 85.461 285.063 C 86.846 282.823, 92.679 281, 98.466 281 C 104.149 281, 104.795 280.768, 106.842 278 C 108.062 276.350, 109.691 275, 110.463 275 C 111.234 275, 112.156 274.085, 112.511 272.966 C 112.866 271.848, 114.055 270.095, 115.153 269.072 C 116.437 267.876, 116.766 266.974, 116.075 266.547 C 113.997 265.262, 115.039 261.445, 118.989 255.877 C 121.935 251.725, 123.787 250.093, 126.073 249.635 C 129.929 248.864, 135 245.340, 135 243.432 C 135 242.380, 133.672 242, 130 242 C 127.250 242, 125 241.550, 125 241 C 125 240.450, 123.313 239.997, 121.250 239.994 C 116.677 239.988, 110.034 238.252, 108 236.533 C 107.175 235.836, 105.825 235.257, 105 235.246 C 104.175 235.236, 99.225 234.948, 94 234.607 C 73.428 233.265, 71.587 233.288, 68.500 234.917 M 225.213 236.188 C 223.734 237.666, 223.628 240.652, 225.023 241.514 C 226.382 242.354, 232 239.824, 232 238.373 C 232 237.746, 231.213 236.955, 230.250 236.616 C 229.287 236.276, 228.033 235.768, 227.463 235.487 C 226.892 235.205, 225.879 235.521, 225.213 236.188 M 234.560 238.531 C 232.643 239.981, 232.643 240.019, 234.605 241.847 C 236.038 243.182, 237.203 243.469, 238.795 242.880 C 241.479 241.887, 241.573 240.829, 239.171 238.655 C 236.985 236.676, 237.011 236.677, 234.560 238.531 M 167.739 241.238 C 167.457 241.973, 167.796 243.908, 168.493 245.537 C 169.843 248.692, 170.721 247.893, 171.238 243.041 C 171.524 240.359, 168.645 238.876, 167.739 241.238 M 229.923 241.250 C 229.307 243.266, 229.347 245.096, 230.017 245.510 C 230.478 245.795, 230.640 247.984, 230.377 250.373 C 229.990 253.894, 230.329 255.200, 232.166 257.262 L 234.433 259.807 236.216 257.750 C 238.358 255.281, 238.405 254.120, 236.468 251.559 C 235.661 250.491, 235 248.291, 235 246.669 C 235 245.034, 234.221 243.129, 233.250 242.392 C 231.639 241.169, 230.109 240.644, 229.923 241.250 M 239.352 243.993 C 236.559 245.121, 235.726 246.562, 236.487 248.958 C 237.269 251.422, 240.611 252.509, 243.369 251.196 C 244.541 250.638, 246.287 249.930, 247.250 249.622 C 251.045 248.409, 247.951 243.025, 243.500 243.095 C 242.400 243.113, 240.534 243.517, 239.352 243.993 M 67.512 244.981 C 67.178 245.521, 67.112 247.769, 67.366 249.976 C 67.620 252.183, 67.416 254.243, 66.914 254.553 C 66.411 254.864, 65.997 255.879, 65.994 256.809 C 65.990 257.739, 65.404 259.625, 64.690 261 C 62.100 265.991, 61.851 267.271, 63.600 266.600 C 64.765 266.153, 65.059 266.404, 64.643 267.489 C 64.310 268.356, 64.613 269, 65.352 269 C 66.318 269, 66.481 270.254, 66 274 L 65.359 279 69.179 279 C 72.563 279, 73 278.721, 73 276.559 C 73 275.216, 73.435 273.849, 73.967 273.520 C 74.499 273.191, 74.679 271.644, 74.367 270.083 C 74.044 268.469, 74.278 266.946, 74.910 266.556 C 75.692 266.072, 75.574 265.230, 74.511 263.712 C 72.619 261.011, 72.600 260, 74.439 260 C 75.395 260, 76.102 258.406, 76.545 255.250 C 76.913 252.637, 77.848 249.995, 78.624 249.377 C 79.400 248.759, 79.759 247.536, 79.423 246.659 C 78.938 245.396, 77.893 245.190, 74.405 245.668 C 71.429 246.076, 70 245.903, 70 245.136 C 70 243.742, 68.341 243.639, 67.512 244.981 M 167.162 252.473 C 165.725 253.271, 165.243 254.032, 165.912 254.445 C 166.510 254.815, 167 257.266, 167 259.892 C 167 265.619, 167.364 266.101, 170.576 264.633 C 172.864 263.587, 173.033 263.040, 172.777 257.510 C 172.476 250.992, 171.461 250.082, 167.162 252.473 M 133.229 261.188 C 133.847 263.042, 136 263.349, 136 261.583 C 136 260.712, 135.287 260, 134.417 260 C 133.546 260, 133.011 260.534, 133.229 261.188 M 192.750 272.692 C 191.787 272.942, 191.016 273.451, 191.036 273.823 C 191.095 274.946, 204.776 281.256, 205.790 280.630 C 206.308 280.310, 206.514 278.909, 206.248 277.518 C 205.982 276.127, 206.370 274.259, 207.110 273.368 C 208.329 271.899, 208.036 271.820, 203.977 272.522 C 198.862 273.408, 198.072 273.429, 196 272.738 C 195.175 272.463, 193.713 272.442, 192.750 272.692" stroke="none" fill="#8ea6bd" fill-rule="evenodd"/>
</svg>